G04 #@! TF.GenerationSoftware,KiCad,Pcbnew,(5.1.0)-1*
G04 #@! TF.CreationDate,2019-11-16T16:41:27+01:00*
G04 #@! TF.ProjectId,USBC_PowerDelivery,55534243-5f50-46f7-9765-7244656c6976,rev?*
G04 #@! TF.SameCoordinates,Original*
G04 #@! TF.FileFunction,Soldermask,Top*
G04 #@! TF.FilePolarity,Negative*
%FSLAX46Y46*%
G04 Gerber Fmt 4.6, Leading zero omitted, Abs format (unit mm)*
G04 Created by KiCad (PCBNEW (5.1.0)-1) date 2019-11-16 16:41:27*
%MOMM*%
%LPD*%
G04 APERTURE LIST*
%ADD10C,0.100000*%
G04 APERTURE END LIST*
D10*
G36*
X136575880Y-138959776D02*
G01*
X136956593Y-139035504D01*
X137366249Y-139205189D01*
X137734929Y-139451534D01*
X138048466Y-139765071D01*
X138294811Y-140133751D01*
X138464496Y-140543407D01*
X138551000Y-140978296D01*
X138551000Y-141421704D01*
X138464496Y-141856593D01*
X138294811Y-142266249D01*
X138048466Y-142634929D01*
X137734929Y-142948466D01*
X137366249Y-143194811D01*
X136956593Y-143364496D01*
X136575880Y-143440224D01*
X136521705Y-143451000D01*
X136078295Y-143451000D01*
X136024120Y-143440224D01*
X135643407Y-143364496D01*
X135233751Y-143194811D01*
X134865071Y-142948466D01*
X134551534Y-142634929D01*
X134305189Y-142266249D01*
X134135504Y-141856593D01*
X134049000Y-141421704D01*
X134049000Y-140978296D01*
X134135504Y-140543407D01*
X134305189Y-140133751D01*
X134551534Y-139765071D01*
X134865071Y-139451534D01*
X135233751Y-139205189D01*
X135643407Y-139035504D01*
X136024120Y-138959776D01*
X136078295Y-138949000D01*
X136521705Y-138949000D01*
X136575880Y-138959776D01*
X136575880Y-138959776D01*
G37*
G36*
X111665880Y-138959776D02*
G01*
X112046593Y-139035504D01*
X112456249Y-139205189D01*
X112824929Y-139451534D01*
X113138466Y-139765071D01*
X113384811Y-140133751D01*
X113554496Y-140543407D01*
X113641000Y-140978296D01*
X113641000Y-141421704D01*
X113554496Y-141856593D01*
X113384811Y-142266249D01*
X113138466Y-142634929D01*
X112824929Y-142948466D01*
X112456249Y-143194811D01*
X112046593Y-143364496D01*
X111665880Y-143440224D01*
X111611705Y-143451000D01*
X111168295Y-143451000D01*
X111114120Y-143440224D01*
X110733407Y-143364496D01*
X110323751Y-143194811D01*
X109955071Y-142948466D01*
X109641534Y-142634929D01*
X109395189Y-142266249D01*
X109225504Y-141856593D01*
X109139000Y-141421704D01*
X109139000Y-140978296D01*
X109225504Y-140543407D01*
X109395189Y-140133751D01*
X109641534Y-139765071D01*
X109955071Y-139451534D01*
X110323751Y-139205189D01*
X110733407Y-139035504D01*
X111114120Y-138959776D01*
X111168295Y-138949000D01*
X111611705Y-138949000D01*
X111665880Y-138959776D01*
X111665880Y-138959776D01*
G37*
G36*
X120351000Y-143301000D02*
G01*
X118449000Y-143301000D01*
X118449000Y-139699000D01*
X120351000Y-139699000D01*
X120351000Y-143301000D01*
X120351000Y-143301000D01*
G37*
G36*
X129604071Y-134684063D02*
G01*
X129800300Y-134743589D01*
X129981146Y-134840253D01*
X130022437Y-134874140D01*
X130139660Y-134970340D01*
X130269748Y-135128855D01*
X130276239Y-135140999D01*
X130366411Y-135309699D01*
X130425937Y-135505928D01*
X130441000Y-135658868D01*
X130441000Y-137741132D01*
X130425937Y-137894072D01*
X130366411Y-138090301D01*
X130366410Y-138090303D01*
X130269748Y-138271145D01*
X130139660Y-138429660D01*
X129981145Y-138559748D01*
X129800303Y-138656410D01*
X129800301Y-138656411D01*
X129604072Y-138715937D01*
X129400000Y-138736036D01*
X129195929Y-138715937D01*
X128999700Y-138656411D01*
X128999698Y-138656410D01*
X128818856Y-138559748D01*
X128660341Y-138429660D01*
X128530253Y-138271145D01*
X128433591Y-138090303D01*
X128433590Y-138090301D01*
X128374064Y-137894072D01*
X128359001Y-137741132D01*
X128359000Y-135658869D01*
X128374063Y-135505929D01*
X128433589Y-135309700D01*
X128530253Y-135128854D01*
X128564140Y-135087563D01*
X128660340Y-134970340D01*
X128818855Y-134840252D01*
X128999697Y-134743590D01*
X128999699Y-134743589D01*
X129195928Y-134684063D01*
X129400000Y-134663964D01*
X129604071Y-134684063D01*
X129604071Y-134684063D01*
G37*
G36*
X125441000Y-138731000D02*
G01*
X123359000Y-138731000D01*
X123359000Y-134669000D01*
X125441000Y-134669000D01*
X125441000Y-138731000D01*
X125441000Y-138731000D01*
G37*
G36*
X120351000Y-138301000D02*
G01*
X118449000Y-138301000D01*
X118449000Y-134699000D01*
X120351000Y-134699000D01*
X120351000Y-138301000D01*
X120351000Y-138301000D01*
G37*
G36*
X136026000Y-134359001D02*
G01*
X136028402Y-134383387D01*
X136035515Y-134406836D01*
X136047066Y-134428447D01*
X136062611Y-134447389D01*
X136081553Y-134462934D01*
X136103164Y-134474485D01*
X136126613Y-134481598D01*
X136150999Y-134484000D01*
X136406000Y-134484000D01*
X136406000Y-135016000D01*
X136150999Y-135016000D01*
X136126613Y-135018402D01*
X136103164Y-135025515D01*
X136081553Y-135037066D01*
X136062611Y-135052611D01*
X136047066Y-135071553D01*
X136035515Y-135093164D01*
X136028402Y-135116613D01*
X136026000Y-135140999D01*
X136026000Y-136176623D01*
X136012611Y-136187611D01*
X135997066Y-136206553D01*
X135985515Y-136228164D01*
X135978402Y-136251613D01*
X135976000Y-136275999D01*
X135976000Y-136451000D01*
X133524000Y-136451000D01*
X133524000Y-136275999D01*
X133521598Y-136251613D01*
X133514485Y-136228164D01*
X133502934Y-136206553D01*
X133487389Y-136187611D01*
X133474000Y-136176623D01*
X133474000Y-135140999D01*
X133471598Y-135116613D01*
X133464485Y-135093164D01*
X133452934Y-135071553D01*
X133437389Y-135052611D01*
X133418447Y-135037066D01*
X133396836Y-135025515D01*
X133373387Y-135018402D01*
X133349001Y-135016000D01*
X133094000Y-135016000D01*
X133094000Y-134484000D01*
X133349001Y-134484000D01*
X133373387Y-134481598D01*
X133396836Y-134474485D01*
X133418447Y-134462934D01*
X133437389Y-134447389D01*
X133452934Y-134428447D01*
X133464485Y-134406836D01*
X133471598Y-134383387D01*
X133474000Y-134359001D01*
X133474000Y-134069000D01*
X136026000Y-134069000D01*
X136026000Y-134359001D01*
X136026000Y-134359001D01*
G37*
G36*
X117194618Y-133472965D02*
G01*
X117227433Y-133482919D01*
X117257665Y-133499079D01*
X117284170Y-133520830D01*
X117305921Y-133547335D01*
X117322081Y-133577567D01*
X117332035Y-133610382D01*
X117336000Y-133650640D01*
X117336000Y-134614360D01*
X117332035Y-134654618D01*
X117322081Y-134687433D01*
X117305921Y-134717665D01*
X117284170Y-134744170D01*
X117257665Y-134765921D01*
X117227433Y-134782081D01*
X117194618Y-134792035D01*
X117154360Y-134796000D01*
X116565640Y-134796000D01*
X116525382Y-134792035D01*
X116492567Y-134782081D01*
X116462335Y-134765921D01*
X116435830Y-134744170D01*
X116414079Y-134717665D01*
X116397919Y-134687433D01*
X116387965Y-134654618D01*
X116384000Y-134614360D01*
X116384000Y-133650640D01*
X116387965Y-133610382D01*
X116397919Y-133577567D01*
X116414079Y-133547335D01*
X116435830Y-133520830D01*
X116462335Y-133499079D01*
X116492567Y-133482919D01*
X116525382Y-133472965D01*
X116565640Y-133469000D01*
X117154360Y-133469000D01*
X117194618Y-133472965D01*
X117194618Y-133472965D01*
G37*
G36*
X112980443Y-132235519D02*
G01*
X113046627Y-132242037D01*
X113216466Y-132293557D01*
X113372991Y-132377222D01*
X113374075Y-132378112D01*
X113510186Y-132489814D01*
X113576406Y-132570505D01*
X113622778Y-132627009D01*
X113706443Y-132783534D01*
X113757963Y-132953373D01*
X113775359Y-133130000D01*
X113757963Y-133306627D01*
X113706443Y-133476466D01*
X113622778Y-133632991D01*
X113607998Y-133651000D01*
X113510186Y-133770186D01*
X113408729Y-133853448D01*
X113372991Y-133882778D01*
X113216466Y-133966443D01*
X113046627Y-134017963D01*
X112980442Y-134024482D01*
X112914260Y-134031000D01*
X112825740Y-134031000D01*
X112759558Y-134024482D01*
X112693373Y-134017963D01*
X112523534Y-133966443D01*
X112367009Y-133882778D01*
X112331271Y-133853448D01*
X112229814Y-133770186D01*
X112132002Y-133651000D01*
X112117222Y-133632991D01*
X112033557Y-133476466D01*
X111982037Y-133306627D01*
X111964641Y-133130000D01*
X111982037Y-132953373D01*
X112033557Y-132783534D01*
X112117222Y-132627009D01*
X112163594Y-132570505D01*
X112229814Y-132489814D01*
X112365925Y-132378112D01*
X112367009Y-132377222D01*
X112523534Y-132293557D01*
X112693373Y-132242037D01*
X112759557Y-132235519D01*
X112825740Y-132229000D01*
X112914260Y-132229000D01*
X112980443Y-132235519D01*
X112980443Y-132235519D01*
G37*
G36*
X110440443Y-132235519D02*
G01*
X110506627Y-132242037D01*
X110676466Y-132293557D01*
X110832991Y-132377222D01*
X110834075Y-132378112D01*
X110970186Y-132489814D01*
X111036406Y-132570505D01*
X111082778Y-132627009D01*
X111166443Y-132783534D01*
X111217963Y-132953373D01*
X111235359Y-133130000D01*
X111217963Y-133306627D01*
X111166443Y-133476466D01*
X111082778Y-133632991D01*
X111067998Y-133651000D01*
X110970186Y-133770186D01*
X110868729Y-133853448D01*
X110832991Y-133882778D01*
X110676466Y-133966443D01*
X110506627Y-134017963D01*
X110440442Y-134024482D01*
X110374260Y-134031000D01*
X110285740Y-134031000D01*
X110219558Y-134024482D01*
X110153373Y-134017963D01*
X109983534Y-133966443D01*
X109827009Y-133882778D01*
X109791271Y-133853448D01*
X109689814Y-133770186D01*
X109592002Y-133651000D01*
X109577222Y-133632991D01*
X109493557Y-133476466D01*
X109442037Y-133306627D01*
X109424641Y-133130000D01*
X109442037Y-132953373D01*
X109493557Y-132783534D01*
X109577222Y-132627009D01*
X109623594Y-132570505D01*
X109689814Y-132489814D01*
X109825925Y-132378112D01*
X109827009Y-132377222D01*
X109983534Y-132293557D01*
X110153373Y-132242037D01*
X110219557Y-132235519D01*
X110285740Y-132229000D01*
X110374260Y-132229000D01*
X110440443Y-132235519D01*
X110440443Y-132235519D01*
G37*
G36*
X135951000Y-133651000D02*
G01*
X133549000Y-133651000D01*
X133549000Y-133049000D01*
X135951000Y-133049000D01*
X135951000Y-133651000D01*
X135951000Y-133651000D01*
G37*
G36*
X117194618Y-131847965D02*
G01*
X117227433Y-131857919D01*
X117257665Y-131874079D01*
X117284170Y-131895830D01*
X117305921Y-131922335D01*
X117322081Y-131952567D01*
X117332035Y-131985382D01*
X117336000Y-132025640D01*
X117336000Y-132989360D01*
X117332035Y-133029618D01*
X117322081Y-133062433D01*
X117305921Y-133092665D01*
X117284170Y-133119170D01*
X117257665Y-133140921D01*
X117227433Y-133157081D01*
X117194618Y-133167035D01*
X117154360Y-133171000D01*
X116565640Y-133171000D01*
X116525382Y-133167035D01*
X116492567Y-133157081D01*
X116462335Y-133140921D01*
X116435830Y-133119170D01*
X116414079Y-133092665D01*
X116397919Y-133062433D01*
X116387965Y-133029618D01*
X116384000Y-132989360D01*
X116384000Y-132025640D01*
X116387965Y-131985382D01*
X116397919Y-131952567D01*
X116414079Y-131922335D01*
X116435830Y-131895830D01*
X116462335Y-131874079D01*
X116492567Y-131857919D01*
X116525382Y-131847965D01*
X116565640Y-131844000D01*
X117154360Y-131844000D01*
X117194618Y-131847965D01*
X117194618Y-131847965D01*
G37*
G36*
X121139468Y-131093565D02*
G01*
X121178138Y-131105296D01*
X121213777Y-131124346D01*
X121245017Y-131149983D01*
X121270654Y-131181223D01*
X121289704Y-131216862D01*
X121301435Y-131255532D01*
X121306000Y-131301888D01*
X121306000Y-132378112D01*
X121301435Y-132424468D01*
X121289704Y-132463138D01*
X121270654Y-132498777D01*
X121245017Y-132530017D01*
X121213777Y-132555654D01*
X121178138Y-132574704D01*
X121139468Y-132586435D01*
X121093112Y-132591000D01*
X120441888Y-132591000D01*
X120395532Y-132586435D01*
X120356862Y-132574704D01*
X120321223Y-132555654D01*
X120289983Y-132530017D01*
X120264346Y-132498777D01*
X120245296Y-132463138D01*
X120233565Y-132424468D01*
X120229000Y-132378112D01*
X120229000Y-131301888D01*
X120233565Y-131255532D01*
X120245296Y-131216862D01*
X120264346Y-131181223D01*
X120289983Y-131149983D01*
X120321223Y-131124346D01*
X120356862Y-131105296D01*
X120395532Y-131093565D01*
X120441888Y-131089000D01*
X121093112Y-131089000D01*
X121139468Y-131093565D01*
X121139468Y-131093565D01*
G37*
G36*
X119264468Y-131093565D02*
G01*
X119303138Y-131105296D01*
X119338777Y-131124346D01*
X119370017Y-131149983D01*
X119395654Y-131181223D01*
X119414704Y-131216862D01*
X119426435Y-131255532D01*
X119431000Y-131301888D01*
X119431000Y-132378112D01*
X119426435Y-132424468D01*
X119414704Y-132463138D01*
X119395654Y-132498777D01*
X119370017Y-132530017D01*
X119338777Y-132555654D01*
X119303138Y-132574704D01*
X119264468Y-132586435D01*
X119218112Y-132591000D01*
X118566888Y-132591000D01*
X118520532Y-132586435D01*
X118481862Y-132574704D01*
X118446223Y-132555654D01*
X118414983Y-132530017D01*
X118389346Y-132498777D01*
X118370296Y-132463138D01*
X118358565Y-132424468D01*
X118354000Y-132378112D01*
X118354000Y-131301888D01*
X118358565Y-131255532D01*
X118370296Y-131216862D01*
X118389346Y-131181223D01*
X118414983Y-131149983D01*
X118446223Y-131124346D01*
X118481862Y-131105296D01*
X118520532Y-131093565D01*
X118566888Y-131089000D01*
X119218112Y-131089000D01*
X119264468Y-131093565D01*
X119264468Y-131093565D01*
G37*
G36*
X134584468Y-131216065D02*
G01*
X134623138Y-131227796D01*
X134658777Y-131246846D01*
X134690017Y-131272483D01*
X134715654Y-131303723D01*
X134734704Y-131339362D01*
X134746435Y-131378032D01*
X134751000Y-131424388D01*
X134751000Y-132075612D01*
X134746435Y-132121968D01*
X134734704Y-132160638D01*
X134715654Y-132196277D01*
X134690017Y-132227517D01*
X134658777Y-132253154D01*
X134623138Y-132272204D01*
X134584468Y-132283935D01*
X134538112Y-132288500D01*
X133461888Y-132288500D01*
X133415532Y-132283935D01*
X133376862Y-132272204D01*
X133341223Y-132253154D01*
X133309983Y-132227517D01*
X133284346Y-132196277D01*
X133265296Y-132160638D01*
X133253565Y-132121968D01*
X133249000Y-132075612D01*
X133249000Y-131424388D01*
X133253565Y-131378032D01*
X133265296Y-131339362D01*
X133284346Y-131303723D01*
X133309983Y-131272483D01*
X133341223Y-131246846D01*
X133376862Y-131227796D01*
X133415532Y-131216065D01*
X133461888Y-131211500D01*
X134538112Y-131211500D01*
X134584468Y-131216065D01*
X134584468Y-131216065D01*
G37*
G36*
X112980442Y-129695518D02*
G01*
X113046627Y-129702037D01*
X113216466Y-129753557D01*
X113372991Y-129837222D01*
X113408729Y-129866552D01*
X113510186Y-129949814D01*
X113593448Y-130051271D01*
X113622778Y-130087009D01*
X113706443Y-130243534D01*
X113757963Y-130413373D01*
X113775359Y-130590000D01*
X113757963Y-130766627D01*
X113706443Y-130936466D01*
X113622778Y-131092991D01*
X113621807Y-131094174D01*
X113510186Y-131230186D01*
X113418144Y-131305722D01*
X113372991Y-131342778D01*
X113216466Y-131426443D01*
X113046627Y-131477963D01*
X112980443Y-131484481D01*
X112914260Y-131491000D01*
X112825740Y-131491000D01*
X112759557Y-131484481D01*
X112693373Y-131477963D01*
X112523534Y-131426443D01*
X112367009Y-131342778D01*
X112321856Y-131305722D01*
X112229814Y-131230186D01*
X112118193Y-131094174D01*
X112117222Y-131092991D01*
X112033557Y-130936466D01*
X111982037Y-130766627D01*
X111964641Y-130590000D01*
X111982037Y-130413373D01*
X112033557Y-130243534D01*
X112117222Y-130087009D01*
X112146552Y-130051271D01*
X112229814Y-129949814D01*
X112331271Y-129866552D01*
X112367009Y-129837222D01*
X112523534Y-129753557D01*
X112693373Y-129702037D01*
X112759558Y-129695518D01*
X112825740Y-129689000D01*
X112914260Y-129689000D01*
X112980442Y-129695518D01*
X112980442Y-129695518D01*
G37*
G36*
X110440442Y-129695518D02*
G01*
X110506627Y-129702037D01*
X110676466Y-129753557D01*
X110832991Y-129837222D01*
X110868729Y-129866552D01*
X110970186Y-129949814D01*
X111053448Y-130051271D01*
X111082778Y-130087009D01*
X111166443Y-130243534D01*
X111217963Y-130413373D01*
X111235359Y-130590000D01*
X111217963Y-130766627D01*
X111166443Y-130936466D01*
X111082778Y-131092991D01*
X111081807Y-131094174D01*
X110970186Y-131230186D01*
X110878144Y-131305722D01*
X110832991Y-131342778D01*
X110676466Y-131426443D01*
X110506627Y-131477963D01*
X110440443Y-131484481D01*
X110374260Y-131491000D01*
X110285740Y-131491000D01*
X110219557Y-131484481D01*
X110153373Y-131477963D01*
X109983534Y-131426443D01*
X109827009Y-131342778D01*
X109781856Y-131305722D01*
X109689814Y-131230186D01*
X109578193Y-131094174D01*
X109577222Y-131092991D01*
X109493557Y-130936466D01*
X109442037Y-130766627D01*
X109424641Y-130590000D01*
X109442037Y-130413373D01*
X109493557Y-130243534D01*
X109577222Y-130087009D01*
X109606552Y-130051271D01*
X109689814Y-129949814D01*
X109791271Y-129866552D01*
X109827009Y-129837222D01*
X109983534Y-129753557D01*
X110153373Y-129702037D01*
X110219558Y-129695518D01*
X110285740Y-129689000D01*
X110374260Y-129689000D01*
X110440442Y-129695518D01*
X110440442Y-129695518D01*
G37*
G36*
X118614468Y-129523565D02*
G01*
X118653138Y-129535296D01*
X118688777Y-129554346D01*
X118720017Y-129579983D01*
X118745654Y-129611223D01*
X118764704Y-129646862D01*
X118776435Y-129685532D01*
X118781000Y-129731888D01*
X118781000Y-130383112D01*
X118776435Y-130429468D01*
X118764704Y-130468138D01*
X118745654Y-130503777D01*
X118720017Y-130535017D01*
X118688777Y-130560654D01*
X118653138Y-130579704D01*
X118614468Y-130591435D01*
X118568112Y-130596000D01*
X117491888Y-130596000D01*
X117445532Y-130591435D01*
X117406862Y-130579704D01*
X117371223Y-130560654D01*
X117339983Y-130535017D01*
X117314346Y-130503777D01*
X117295296Y-130468138D01*
X117283565Y-130429468D01*
X117279000Y-130383112D01*
X117279000Y-129731888D01*
X117283565Y-129685532D01*
X117295296Y-129646862D01*
X117314346Y-129611223D01*
X117339983Y-129579983D01*
X117371223Y-129554346D01*
X117406862Y-129535296D01*
X117445532Y-129523565D01*
X117491888Y-129519000D01*
X118568112Y-129519000D01*
X118614468Y-129523565D01*
X118614468Y-129523565D01*
G37*
G36*
X116624468Y-129523565D02*
G01*
X116663138Y-129535296D01*
X116698777Y-129554346D01*
X116730017Y-129579983D01*
X116755654Y-129611223D01*
X116774704Y-129646862D01*
X116786435Y-129685532D01*
X116791000Y-129731888D01*
X116791000Y-130383112D01*
X116786435Y-130429468D01*
X116774704Y-130468138D01*
X116755654Y-130503777D01*
X116730017Y-130535017D01*
X116698777Y-130560654D01*
X116663138Y-130579704D01*
X116624468Y-130591435D01*
X116578112Y-130596000D01*
X115501888Y-130596000D01*
X115455532Y-130591435D01*
X115416862Y-130579704D01*
X115381223Y-130560654D01*
X115349983Y-130535017D01*
X115324346Y-130503777D01*
X115305296Y-130468138D01*
X115293565Y-130429468D01*
X115289000Y-130383112D01*
X115289000Y-129731888D01*
X115293565Y-129685532D01*
X115305296Y-129646862D01*
X115324346Y-129611223D01*
X115349983Y-129579983D01*
X115381223Y-129554346D01*
X115416862Y-129535296D01*
X115455532Y-129523565D01*
X115501888Y-129519000D01*
X116578112Y-129519000D01*
X116624468Y-129523565D01*
X116624468Y-129523565D01*
G37*
G36*
X134584468Y-129341065D02*
G01*
X134623138Y-129352796D01*
X134658777Y-129371846D01*
X134690017Y-129397483D01*
X134715654Y-129428723D01*
X134734704Y-129464362D01*
X134746435Y-129503032D01*
X134751000Y-129549388D01*
X134751000Y-130200612D01*
X134746435Y-130246968D01*
X134734704Y-130285638D01*
X134715654Y-130321277D01*
X134690017Y-130352517D01*
X134658777Y-130378154D01*
X134623138Y-130397204D01*
X134584468Y-130408935D01*
X134538112Y-130413500D01*
X133461888Y-130413500D01*
X133415532Y-130408935D01*
X133376862Y-130397204D01*
X133341223Y-130378154D01*
X133309983Y-130352517D01*
X133284346Y-130321277D01*
X133265296Y-130285638D01*
X133253565Y-130246968D01*
X133249000Y-130200612D01*
X133249000Y-129549388D01*
X133253565Y-129503032D01*
X133265296Y-129464362D01*
X133284346Y-129428723D01*
X133309983Y-129397483D01*
X133341223Y-129371846D01*
X133376862Y-129352796D01*
X133415532Y-129341065D01*
X133461888Y-129336500D01*
X134538112Y-129336500D01*
X134584468Y-129341065D01*
X134584468Y-129341065D01*
G37*
G36*
X124634468Y-128453565D02*
G01*
X124673138Y-128465296D01*
X124708777Y-128484346D01*
X124740017Y-128509983D01*
X124765654Y-128541223D01*
X124784704Y-128576862D01*
X124796435Y-128615532D01*
X124801000Y-128661888D01*
X124801000Y-129738112D01*
X124796435Y-129784468D01*
X124784704Y-129823138D01*
X124765654Y-129858777D01*
X124740017Y-129890017D01*
X124708777Y-129915654D01*
X124673138Y-129934704D01*
X124634468Y-129946435D01*
X124588112Y-129951000D01*
X123936888Y-129951000D01*
X123890532Y-129946435D01*
X123851862Y-129934704D01*
X123816223Y-129915654D01*
X123784983Y-129890017D01*
X123759346Y-129858777D01*
X123740296Y-129823138D01*
X123728565Y-129784468D01*
X123724000Y-129738112D01*
X123724000Y-128661888D01*
X123728565Y-128615532D01*
X123740296Y-128576862D01*
X123759346Y-128541223D01*
X123784983Y-128509983D01*
X123816223Y-128484346D01*
X123851862Y-128465296D01*
X123890532Y-128453565D01*
X123936888Y-128449000D01*
X124588112Y-128449000D01*
X124634468Y-128453565D01*
X124634468Y-128453565D01*
G37*
G36*
X126509468Y-128453565D02*
G01*
X126548138Y-128465296D01*
X126583777Y-128484346D01*
X126615017Y-128509983D01*
X126640654Y-128541223D01*
X126659704Y-128576862D01*
X126671435Y-128615532D01*
X126676000Y-128661888D01*
X126676000Y-129738112D01*
X126671435Y-129784468D01*
X126659704Y-129823138D01*
X126640654Y-129858777D01*
X126615017Y-129890017D01*
X126583777Y-129915654D01*
X126548138Y-129934704D01*
X126509468Y-129946435D01*
X126463112Y-129951000D01*
X125811888Y-129951000D01*
X125765532Y-129946435D01*
X125726862Y-129934704D01*
X125691223Y-129915654D01*
X125659983Y-129890017D01*
X125634346Y-129858777D01*
X125615296Y-129823138D01*
X125603565Y-129784468D01*
X125599000Y-129738112D01*
X125599000Y-128661888D01*
X125603565Y-128615532D01*
X125615296Y-128576862D01*
X125634346Y-128541223D01*
X125659983Y-128509983D01*
X125691223Y-128484346D01*
X125726862Y-128465296D01*
X125765532Y-128453565D01*
X125811888Y-128449000D01*
X126463112Y-128449000D01*
X126509468Y-128453565D01*
X126509468Y-128453565D01*
G37*
G36*
X123069591Y-128953085D02*
G01*
X123103569Y-128963393D01*
X123134890Y-128980134D01*
X123162339Y-129002661D01*
X123184866Y-129030110D01*
X123201607Y-129061431D01*
X123211915Y-129095409D01*
X123216000Y-129136890D01*
X123216000Y-129738110D01*
X123211915Y-129779591D01*
X123201607Y-129813569D01*
X123184866Y-129844890D01*
X123162339Y-129872339D01*
X123134890Y-129894866D01*
X123103569Y-129911607D01*
X123069591Y-129921915D01*
X123028110Y-129926000D01*
X122351890Y-129926000D01*
X122310409Y-129921915D01*
X122276431Y-129911607D01*
X122245110Y-129894866D01*
X122217661Y-129872339D01*
X122195134Y-129844890D01*
X122178393Y-129813569D01*
X122168085Y-129779591D01*
X122164000Y-129738110D01*
X122164000Y-129136890D01*
X122168085Y-129095409D01*
X122178393Y-129061431D01*
X122195134Y-129030110D01*
X122217661Y-129002661D01*
X122245110Y-128980134D01*
X122276431Y-128963393D01*
X122310409Y-128953085D01*
X122351890Y-128949000D01*
X123028110Y-128949000D01*
X123069591Y-128953085D01*
X123069591Y-128953085D01*
G37*
G36*
X121064468Y-128633565D02*
G01*
X121103138Y-128645296D01*
X121138777Y-128664346D01*
X121170017Y-128689983D01*
X121195654Y-128721223D01*
X121214704Y-128756862D01*
X121226435Y-128795532D01*
X121231000Y-128841888D01*
X121231000Y-129493112D01*
X121226435Y-129539468D01*
X121214704Y-129578138D01*
X121195654Y-129613777D01*
X121170017Y-129645017D01*
X121138777Y-129670654D01*
X121103138Y-129689704D01*
X121064468Y-129701435D01*
X121018112Y-129706000D01*
X119941888Y-129706000D01*
X119895532Y-129701435D01*
X119856862Y-129689704D01*
X119821223Y-129670654D01*
X119789983Y-129645017D01*
X119764346Y-129613777D01*
X119745296Y-129578138D01*
X119733565Y-129539468D01*
X119729000Y-129493112D01*
X119729000Y-128841888D01*
X119733565Y-128795532D01*
X119745296Y-128756862D01*
X119764346Y-128721223D01*
X119789983Y-128689983D01*
X119821223Y-128664346D01*
X119856862Y-128645296D01*
X119895532Y-128633565D01*
X119941888Y-128629000D01*
X121018112Y-128629000D01*
X121064468Y-128633565D01*
X121064468Y-128633565D01*
G37*
G36*
X132309468Y-127853565D02*
G01*
X132348138Y-127865296D01*
X132383777Y-127884346D01*
X132415017Y-127909983D01*
X132440654Y-127941223D01*
X132459704Y-127976862D01*
X132471435Y-128015532D01*
X132476000Y-128061888D01*
X132476000Y-129138112D01*
X132471435Y-129184468D01*
X132459704Y-129223138D01*
X132440654Y-129258777D01*
X132415017Y-129290017D01*
X132383777Y-129315654D01*
X132348138Y-129334704D01*
X132309468Y-129346435D01*
X132263112Y-129351000D01*
X131611888Y-129351000D01*
X131565532Y-129346435D01*
X131526862Y-129334704D01*
X131491223Y-129315654D01*
X131459983Y-129290017D01*
X131434346Y-129258777D01*
X131415296Y-129223138D01*
X131403565Y-129184468D01*
X131399000Y-129138112D01*
X131399000Y-128061888D01*
X131403565Y-128015532D01*
X131415296Y-127976862D01*
X131434346Y-127941223D01*
X131459983Y-127909983D01*
X131491223Y-127884346D01*
X131526862Y-127865296D01*
X131565532Y-127853565D01*
X131611888Y-127849000D01*
X132263112Y-127849000D01*
X132309468Y-127853565D01*
X132309468Y-127853565D01*
G37*
G36*
X130434468Y-127853565D02*
G01*
X130473138Y-127865296D01*
X130508777Y-127884346D01*
X130540017Y-127909983D01*
X130565654Y-127941223D01*
X130584704Y-127976862D01*
X130596435Y-128015532D01*
X130601000Y-128061888D01*
X130601000Y-129138112D01*
X130596435Y-129184468D01*
X130584704Y-129223138D01*
X130565654Y-129258777D01*
X130540017Y-129290017D01*
X130508777Y-129315654D01*
X130473138Y-129334704D01*
X130434468Y-129346435D01*
X130388112Y-129351000D01*
X129736888Y-129351000D01*
X129690532Y-129346435D01*
X129651862Y-129334704D01*
X129616223Y-129315654D01*
X129584983Y-129290017D01*
X129559346Y-129258777D01*
X129540296Y-129223138D01*
X129528565Y-129184468D01*
X129524000Y-129138112D01*
X129524000Y-128061888D01*
X129528565Y-128015532D01*
X129540296Y-127976862D01*
X129559346Y-127941223D01*
X129584983Y-127909983D01*
X129616223Y-127884346D01*
X129651862Y-127865296D01*
X129690532Y-127853565D01*
X129736888Y-127849000D01*
X130388112Y-127849000D01*
X130434468Y-127853565D01*
X130434468Y-127853565D01*
G37*
G36*
X112980443Y-127155519D02*
G01*
X113046627Y-127162037D01*
X113216466Y-127213557D01*
X113372991Y-127297222D01*
X113408729Y-127326552D01*
X113510186Y-127409814D01*
X113573063Y-127486431D01*
X113622778Y-127547009D01*
X113706443Y-127703534D01*
X113757963Y-127873373D01*
X113775359Y-128050000D01*
X113757963Y-128226627D01*
X113706443Y-128396466D01*
X113622778Y-128552991D01*
X113621303Y-128554788D01*
X113510186Y-128690186D01*
X113408729Y-128773448D01*
X113372991Y-128802778D01*
X113216466Y-128886443D01*
X113046627Y-128937963D01*
X112980443Y-128944481D01*
X112914260Y-128951000D01*
X112825740Y-128951000D01*
X112759557Y-128944481D01*
X112693373Y-128937963D01*
X112523534Y-128886443D01*
X112367009Y-128802778D01*
X112331271Y-128773448D01*
X112229814Y-128690186D01*
X112118697Y-128554788D01*
X112117222Y-128552991D01*
X112033557Y-128396466D01*
X111982037Y-128226627D01*
X111964641Y-128050000D01*
X111982037Y-127873373D01*
X112033557Y-127703534D01*
X112117222Y-127547009D01*
X112166937Y-127486431D01*
X112229814Y-127409814D01*
X112331271Y-127326552D01*
X112367009Y-127297222D01*
X112523534Y-127213557D01*
X112693373Y-127162037D01*
X112759557Y-127155519D01*
X112825740Y-127149000D01*
X112914260Y-127149000D01*
X112980443Y-127155519D01*
X112980443Y-127155519D01*
G37*
G36*
X110440443Y-127155519D02*
G01*
X110506627Y-127162037D01*
X110676466Y-127213557D01*
X110832991Y-127297222D01*
X110868729Y-127326552D01*
X110970186Y-127409814D01*
X111033063Y-127486431D01*
X111082778Y-127547009D01*
X111166443Y-127703534D01*
X111217963Y-127873373D01*
X111235359Y-128050000D01*
X111217963Y-128226627D01*
X111166443Y-128396466D01*
X111082778Y-128552991D01*
X111081303Y-128554788D01*
X110970186Y-128690186D01*
X110868729Y-128773448D01*
X110832991Y-128802778D01*
X110676466Y-128886443D01*
X110506627Y-128937963D01*
X110440443Y-128944481D01*
X110374260Y-128951000D01*
X110285740Y-128951000D01*
X110219557Y-128944481D01*
X110153373Y-128937963D01*
X109983534Y-128886443D01*
X109827009Y-128802778D01*
X109791271Y-128773448D01*
X109689814Y-128690186D01*
X109578697Y-128554788D01*
X109577222Y-128552991D01*
X109493557Y-128396466D01*
X109442037Y-128226627D01*
X109424641Y-128050000D01*
X109442037Y-127873373D01*
X109493557Y-127703534D01*
X109577222Y-127547009D01*
X109626937Y-127486431D01*
X109689814Y-127409814D01*
X109791271Y-127326552D01*
X109827009Y-127297222D01*
X109983534Y-127213557D01*
X110153373Y-127162037D01*
X110219557Y-127155519D01*
X110285740Y-127149000D01*
X110374260Y-127149000D01*
X110440443Y-127155519D01*
X110440443Y-127155519D01*
G37*
G36*
X118614468Y-127648565D02*
G01*
X118653138Y-127660296D01*
X118688777Y-127679346D01*
X118720017Y-127704983D01*
X118745654Y-127736223D01*
X118764704Y-127771862D01*
X118776435Y-127810532D01*
X118781000Y-127856888D01*
X118781000Y-128508112D01*
X118776435Y-128554468D01*
X118764704Y-128593138D01*
X118745654Y-128628777D01*
X118720017Y-128660017D01*
X118688777Y-128685654D01*
X118653138Y-128704704D01*
X118614468Y-128716435D01*
X118568112Y-128721000D01*
X117491888Y-128721000D01*
X117445532Y-128716435D01*
X117406862Y-128704704D01*
X117371223Y-128685654D01*
X117339983Y-128660017D01*
X117314346Y-128628777D01*
X117295296Y-128593138D01*
X117283565Y-128554468D01*
X117279000Y-128508112D01*
X117279000Y-127856888D01*
X117283565Y-127810532D01*
X117295296Y-127771862D01*
X117314346Y-127736223D01*
X117339983Y-127704983D01*
X117371223Y-127679346D01*
X117406862Y-127660296D01*
X117445532Y-127648565D01*
X117491888Y-127644000D01*
X118568112Y-127644000D01*
X118614468Y-127648565D01*
X118614468Y-127648565D01*
G37*
G36*
X116624468Y-127648565D02*
G01*
X116663138Y-127660296D01*
X116698777Y-127679346D01*
X116730017Y-127704983D01*
X116755654Y-127736223D01*
X116774704Y-127771862D01*
X116786435Y-127810532D01*
X116791000Y-127856888D01*
X116791000Y-128508112D01*
X116786435Y-128554468D01*
X116774704Y-128593138D01*
X116755654Y-128628777D01*
X116730017Y-128660017D01*
X116698777Y-128685654D01*
X116663138Y-128704704D01*
X116624468Y-128716435D01*
X116578112Y-128721000D01*
X115501888Y-128721000D01*
X115455532Y-128716435D01*
X115416862Y-128704704D01*
X115381223Y-128685654D01*
X115349983Y-128660017D01*
X115324346Y-128628777D01*
X115305296Y-128593138D01*
X115293565Y-128554468D01*
X115289000Y-128508112D01*
X115289000Y-127856888D01*
X115293565Y-127810532D01*
X115305296Y-127771862D01*
X115324346Y-127736223D01*
X115349983Y-127704983D01*
X115381223Y-127679346D01*
X115416862Y-127660296D01*
X115455532Y-127648565D01*
X115501888Y-127644000D01*
X116578112Y-127644000D01*
X116624468Y-127648565D01*
X116624468Y-127648565D01*
G37*
G36*
X123069591Y-127378085D02*
G01*
X123103569Y-127388393D01*
X123134890Y-127405134D01*
X123162339Y-127427661D01*
X123184866Y-127455110D01*
X123201607Y-127486431D01*
X123211915Y-127520409D01*
X123216000Y-127561890D01*
X123216000Y-128163110D01*
X123211915Y-128204591D01*
X123201607Y-128238569D01*
X123184866Y-128269890D01*
X123162339Y-128297339D01*
X123134890Y-128319866D01*
X123103569Y-128336607D01*
X123069591Y-128346915D01*
X123028110Y-128351000D01*
X122351890Y-128351000D01*
X122310409Y-128346915D01*
X122276431Y-128336607D01*
X122245110Y-128319866D01*
X122217661Y-128297339D01*
X122195134Y-128269890D01*
X122178393Y-128238569D01*
X122168085Y-128204591D01*
X122164000Y-128163110D01*
X122164000Y-127561890D01*
X122168085Y-127520409D01*
X122178393Y-127486431D01*
X122195134Y-127455110D01*
X122217661Y-127427661D01*
X122245110Y-127405134D01*
X122276431Y-127388393D01*
X122310409Y-127378085D01*
X122351890Y-127374000D01*
X123028110Y-127374000D01*
X123069591Y-127378085D01*
X123069591Y-127378085D01*
G37*
G36*
X121064468Y-126758565D02*
G01*
X121103138Y-126770296D01*
X121138777Y-126789346D01*
X121170017Y-126814983D01*
X121195654Y-126846223D01*
X121214704Y-126881862D01*
X121226435Y-126920532D01*
X121231000Y-126966888D01*
X121231000Y-127618112D01*
X121226435Y-127664468D01*
X121214704Y-127703138D01*
X121195654Y-127738777D01*
X121170017Y-127770017D01*
X121138777Y-127795654D01*
X121103138Y-127814704D01*
X121064468Y-127826435D01*
X121018112Y-127831000D01*
X119941888Y-127831000D01*
X119895532Y-127826435D01*
X119856862Y-127814704D01*
X119821223Y-127795654D01*
X119789983Y-127770017D01*
X119764346Y-127738777D01*
X119745296Y-127703138D01*
X119733565Y-127664468D01*
X119729000Y-127618112D01*
X119729000Y-126966888D01*
X119733565Y-126920532D01*
X119745296Y-126881862D01*
X119764346Y-126846223D01*
X119789983Y-126814983D01*
X119821223Y-126789346D01*
X119856862Y-126770296D01*
X119895532Y-126758565D01*
X119941888Y-126754000D01*
X121018112Y-126754000D01*
X121064468Y-126758565D01*
X121064468Y-126758565D01*
G37*
G36*
X133771968Y-125653565D02*
G01*
X133810638Y-125665296D01*
X133846277Y-125684346D01*
X133877517Y-125709983D01*
X133903154Y-125741223D01*
X133922204Y-125776862D01*
X133933935Y-125815532D01*
X133938500Y-125861888D01*
X133938500Y-126938112D01*
X133933935Y-126984468D01*
X133922204Y-127023138D01*
X133903154Y-127058777D01*
X133877517Y-127090017D01*
X133846277Y-127115654D01*
X133810638Y-127134704D01*
X133771968Y-127146435D01*
X133725612Y-127151000D01*
X133074388Y-127151000D01*
X133028032Y-127146435D01*
X132989362Y-127134704D01*
X132953723Y-127115654D01*
X132922483Y-127090017D01*
X132896846Y-127058777D01*
X132877796Y-127023138D01*
X132866065Y-126984468D01*
X132861500Y-126938112D01*
X132861500Y-125861888D01*
X132866065Y-125815532D01*
X132877796Y-125776862D01*
X132896846Y-125741223D01*
X132922483Y-125709983D01*
X132953723Y-125684346D01*
X132989362Y-125665296D01*
X133028032Y-125653565D01*
X133074388Y-125649000D01*
X133725612Y-125649000D01*
X133771968Y-125653565D01*
X133771968Y-125653565D01*
G37*
G36*
X131896968Y-125653565D02*
G01*
X131935638Y-125665296D01*
X131971277Y-125684346D01*
X132002517Y-125709983D01*
X132028154Y-125741223D01*
X132047204Y-125776862D01*
X132058935Y-125815532D01*
X132063500Y-125861888D01*
X132063500Y-126938112D01*
X132058935Y-126984468D01*
X132047204Y-127023138D01*
X132028154Y-127058777D01*
X132002517Y-127090017D01*
X131971277Y-127115654D01*
X131935638Y-127134704D01*
X131896968Y-127146435D01*
X131850612Y-127151000D01*
X131199388Y-127151000D01*
X131153032Y-127146435D01*
X131114362Y-127134704D01*
X131078723Y-127115654D01*
X131047483Y-127090017D01*
X131021846Y-127058777D01*
X131002796Y-127023138D01*
X130991065Y-126984468D01*
X130986500Y-126938112D01*
X130986500Y-125861888D01*
X130991065Y-125815532D01*
X131002796Y-125776862D01*
X131021846Y-125741223D01*
X131047483Y-125709983D01*
X131078723Y-125684346D01*
X131114362Y-125665296D01*
X131153032Y-125653565D01*
X131199388Y-125649000D01*
X131850612Y-125649000D01*
X131896968Y-125653565D01*
X131896968Y-125653565D01*
G37*
G36*
X124905355Y-121575083D02*
G01*
X124910029Y-121576501D01*
X124914330Y-121578800D01*
X124920702Y-121584029D01*
X124941076Y-121597643D01*
X124963715Y-121607020D01*
X124987749Y-121611800D01*
X125012253Y-121611800D01*
X125036286Y-121607019D01*
X125058925Y-121597642D01*
X125079298Y-121584029D01*
X125085670Y-121578800D01*
X125089971Y-121576501D01*
X125094645Y-121575083D01*
X125105641Y-121574000D01*
X125394359Y-121574000D01*
X125405355Y-121575083D01*
X125410029Y-121576501D01*
X125414330Y-121578800D01*
X125420702Y-121584029D01*
X125441076Y-121597643D01*
X125463715Y-121607020D01*
X125487749Y-121611800D01*
X125512253Y-121611800D01*
X125536286Y-121607019D01*
X125558925Y-121597642D01*
X125579298Y-121584029D01*
X125585670Y-121578800D01*
X125589971Y-121576501D01*
X125594645Y-121575083D01*
X125605641Y-121574000D01*
X125894359Y-121574000D01*
X125905355Y-121575083D01*
X125910029Y-121576501D01*
X125914330Y-121578800D01*
X125920702Y-121584029D01*
X125941076Y-121597643D01*
X125963715Y-121607020D01*
X125987749Y-121611800D01*
X126012253Y-121611800D01*
X126036286Y-121607019D01*
X126058925Y-121597642D01*
X126079298Y-121584029D01*
X126085670Y-121578800D01*
X126089971Y-121576501D01*
X126094645Y-121575083D01*
X126105641Y-121574000D01*
X126394359Y-121574000D01*
X126405355Y-121575083D01*
X126410029Y-121576501D01*
X126414330Y-121578800D01*
X126420702Y-121584029D01*
X126441076Y-121597643D01*
X126463715Y-121607020D01*
X126487749Y-121611800D01*
X126512253Y-121611800D01*
X126536286Y-121607019D01*
X126558925Y-121597642D01*
X126579298Y-121584029D01*
X126585670Y-121578800D01*
X126589971Y-121576501D01*
X126594645Y-121575083D01*
X126605641Y-121574000D01*
X126894359Y-121574000D01*
X126905355Y-121575083D01*
X126910029Y-121576501D01*
X126914330Y-121578800D01*
X126920702Y-121584029D01*
X126941076Y-121597643D01*
X126963715Y-121607020D01*
X126987749Y-121611800D01*
X127012253Y-121611800D01*
X127036286Y-121607019D01*
X127058925Y-121597642D01*
X127079298Y-121584029D01*
X127085670Y-121578800D01*
X127089971Y-121576501D01*
X127094645Y-121575083D01*
X127105641Y-121574000D01*
X127394359Y-121574000D01*
X127405355Y-121575083D01*
X127410029Y-121576501D01*
X127414331Y-121578800D01*
X127418104Y-121581896D01*
X127421200Y-121585669D01*
X127423499Y-121589971D01*
X127424917Y-121594645D01*
X127426000Y-121605641D01*
X127426000Y-122449001D01*
X127428402Y-122473387D01*
X127435515Y-122496836D01*
X127447066Y-122518447D01*
X127462611Y-122537389D01*
X127481553Y-122552934D01*
X127503164Y-122564485D01*
X127526613Y-122571598D01*
X127550999Y-122574000D01*
X128394359Y-122574000D01*
X128405355Y-122575083D01*
X128410029Y-122576501D01*
X128414331Y-122578800D01*
X128418104Y-122581896D01*
X128421200Y-122585669D01*
X128423499Y-122589971D01*
X128424917Y-122594645D01*
X128426000Y-122605641D01*
X128426000Y-122894359D01*
X128424917Y-122905355D01*
X128423499Y-122910029D01*
X128421200Y-122914330D01*
X128415971Y-122920702D01*
X128402357Y-122941076D01*
X128392980Y-122963715D01*
X128388200Y-122987749D01*
X128388200Y-123012253D01*
X128392981Y-123036286D01*
X128402358Y-123058925D01*
X128415971Y-123079298D01*
X128421200Y-123085670D01*
X128423499Y-123089971D01*
X128424917Y-123094645D01*
X128426000Y-123105641D01*
X128426000Y-123394359D01*
X128424917Y-123405355D01*
X128423499Y-123410029D01*
X128421200Y-123414330D01*
X128415971Y-123420702D01*
X128402357Y-123441076D01*
X128392980Y-123463715D01*
X128388200Y-123487749D01*
X128388200Y-123512253D01*
X128392981Y-123536286D01*
X128402358Y-123558925D01*
X128415971Y-123579298D01*
X128421200Y-123585670D01*
X128423499Y-123589971D01*
X128424917Y-123594645D01*
X128426000Y-123605641D01*
X128426000Y-123894359D01*
X128424917Y-123905355D01*
X128423499Y-123910029D01*
X128421200Y-123914330D01*
X128415971Y-123920702D01*
X128402357Y-123941076D01*
X128392980Y-123963715D01*
X128388200Y-123987749D01*
X128388200Y-124012253D01*
X128392981Y-124036286D01*
X128402358Y-124058925D01*
X128415971Y-124079298D01*
X128421200Y-124085670D01*
X128423499Y-124089971D01*
X128424917Y-124094645D01*
X128426000Y-124105641D01*
X128426000Y-124394359D01*
X128424917Y-124405355D01*
X128423499Y-124410029D01*
X128421200Y-124414330D01*
X128415971Y-124420702D01*
X128402357Y-124441076D01*
X128392980Y-124463715D01*
X128388200Y-124487749D01*
X128388200Y-124512253D01*
X128392981Y-124536286D01*
X128402358Y-124558925D01*
X128415971Y-124579298D01*
X128421200Y-124585670D01*
X128423499Y-124589971D01*
X128424917Y-124594645D01*
X128426000Y-124605641D01*
X128426000Y-124894359D01*
X128424917Y-124905355D01*
X128423499Y-124910029D01*
X128421200Y-124914330D01*
X128415971Y-124920702D01*
X128402357Y-124941076D01*
X128392980Y-124963715D01*
X128388200Y-124987749D01*
X128388200Y-125012253D01*
X128392981Y-125036286D01*
X128402358Y-125058925D01*
X128415971Y-125079298D01*
X128421200Y-125085670D01*
X128423499Y-125089971D01*
X128424917Y-125094645D01*
X128426000Y-125105641D01*
X128426000Y-125394359D01*
X128424917Y-125405355D01*
X128423499Y-125410029D01*
X128421200Y-125414331D01*
X128418104Y-125418104D01*
X128414331Y-125421200D01*
X128410029Y-125423499D01*
X128405355Y-125424917D01*
X128394359Y-125426000D01*
X127550999Y-125426000D01*
X127526613Y-125428402D01*
X127503164Y-125435515D01*
X127481553Y-125447066D01*
X127462611Y-125462611D01*
X127447066Y-125481553D01*
X127435515Y-125503164D01*
X127428402Y-125526613D01*
X127426000Y-125550999D01*
X127426000Y-126394359D01*
X127424917Y-126405355D01*
X127423499Y-126410029D01*
X127421200Y-126414331D01*
X127418104Y-126418104D01*
X127414331Y-126421200D01*
X127410029Y-126423499D01*
X127405355Y-126424917D01*
X127394359Y-126426000D01*
X127105641Y-126426000D01*
X127094645Y-126424917D01*
X127089971Y-126423499D01*
X127085670Y-126421200D01*
X127079298Y-126415971D01*
X127058924Y-126402357D01*
X127036285Y-126392980D01*
X127012251Y-126388200D01*
X126987747Y-126388200D01*
X126963714Y-126392981D01*
X126941075Y-126402358D01*
X126920702Y-126415971D01*
X126914330Y-126421200D01*
X126910029Y-126423499D01*
X126905355Y-126424917D01*
X126894359Y-126426000D01*
X126605641Y-126426000D01*
X126594645Y-126424917D01*
X126589971Y-126423499D01*
X126585670Y-126421200D01*
X126579298Y-126415971D01*
X126558924Y-126402357D01*
X126536285Y-126392980D01*
X126512251Y-126388200D01*
X126487747Y-126388200D01*
X126463714Y-126392981D01*
X126441075Y-126402358D01*
X126420702Y-126415971D01*
X126414330Y-126421200D01*
X126410029Y-126423499D01*
X126405355Y-126424917D01*
X126394359Y-126426000D01*
X126105641Y-126426000D01*
X126094645Y-126424917D01*
X126089971Y-126423499D01*
X126085670Y-126421200D01*
X126079298Y-126415971D01*
X126058924Y-126402357D01*
X126036285Y-126392980D01*
X126012251Y-126388200D01*
X125987747Y-126388200D01*
X125963714Y-126392981D01*
X125941075Y-126402358D01*
X125920702Y-126415971D01*
X125914330Y-126421200D01*
X125910029Y-126423499D01*
X125905355Y-126424917D01*
X125894359Y-126426000D01*
X125605641Y-126426000D01*
X125594645Y-126424917D01*
X125589971Y-126423499D01*
X125585670Y-126421200D01*
X125579298Y-126415971D01*
X125558924Y-126402357D01*
X125536285Y-126392980D01*
X125512251Y-126388200D01*
X125487747Y-126388200D01*
X125463714Y-126392981D01*
X125441075Y-126402358D01*
X125420702Y-126415971D01*
X125414330Y-126421200D01*
X125410029Y-126423499D01*
X125405355Y-126424917D01*
X125394359Y-126426000D01*
X125105641Y-126426000D01*
X125094645Y-126424917D01*
X125089971Y-126423499D01*
X125085670Y-126421200D01*
X125079298Y-126415971D01*
X125058924Y-126402357D01*
X125036285Y-126392980D01*
X125012251Y-126388200D01*
X124987747Y-126388200D01*
X124963714Y-126392981D01*
X124941075Y-126402358D01*
X124920702Y-126415971D01*
X124914330Y-126421200D01*
X124910029Y-126423499D01*
X124905355Y-126424917D01*
X124894359Y-126426000D01*
X124605641Y-126426000D01*
X124594645Y-126424917D01*
X124589971Y-126423499D01*
X124585669Y-126421200D01*
X124581896Y-126418104D01*
X124578800Y-126414331D01*
X124576501Y-126410029D01*
X124575083Y-126405355D01*
X124574000Y-126394359D01*
X124574000Y-125550999D01*
X124571598Y-125526613D01*
X124564485Y-125503164D01*
X124552934Y-125481553D01*
X124537389Y-125462611D01*
X124518447Y-125447066D01*
X124496836Y-125435515D01*
X124473387Y-125428402D01*
X124449001Y-125426000D01*
X123605641Y-125426000D01*
X123594645Y-125424917D01*
X123589971Y-125423499D01*
X123585669Y-125421200D01*
X123581896Y-125418104D01*
X123578800Y-125414331D01*
X123576501Y-125410029D01*
X123575083Y-125405355D01*
X123574000Y-125394359D01*
X123574000Y-125105641D01*
X123575083Y-125094645D01*
X123576501Y-125089971D01*
X123578800Y-125085670D01*
X123584029Y-125079298D01*
X123597643Y-125058924D01*
X123607020Y-125036285D01*
X123611800Y-125012251D01*
X123611800Y-124987747D01*
X123607019Y-124963714D01*
X123597642Y-124941075D01*
X123584029Y-124920702D01*
X123578800Y-124914330D01*
X123576501Y-124910029D01*
X123575083Y-124905355D01*
X123574000Y-124894359D01*
X123574000Y-124605641D01*
X123575083Y-124594645D01*
X123576501Y-124589971D01*
X123578800Y-124585670D01*
X123584029Y-124579298D01*
X123597643Y-124558924D01*
X123607020Y-124536285D01*
X123611800Y-124512251D01*
X123611800Y-124487747D01*
X123607019Y-124463714D01*
X123597642Y-124441075D01*
X123584029Y-124420702D01*
X123578800Y-124414330D01*
X123576501Y-124410029D01*
X123575083Y-124405355D01*
X123574000Y-124394359D01*
X123574000Y-124105641D01*
X123575083Y-124094645D01*
X123576501Y-124089971D01*
X123578800Y-124085670D01*
X123584029Y-124079298D01*
X123597643Y-124058924D01*
X123607020Y-124036285D01*
X123611800Y-124012251D01*
X123611800Y-123987747D01*
X123607019Y-123963714D01*
X123597642Y-123941075D01*
X123584029Y-123920702D01*
X123578800Y-123914330D01*
X123576501Y-123910029D01*
X123575083Y-123905355D01*
X123574000Y-123894359D01*
X123574000Y-123605641D01*
X123575083Y-123594645D01*
X123576501Y-123589971D01*
X123578800Y-123585670D01*
X123584029Y-123579298D01*
X123597643Y-123558924D01*
X123607020Y-123536285D01*
X123611800Y-123512251D01*
X123611800Y-123487747D01*
X123607019Y-123463714D01*
X123597642Y-123441075D01*
X123584029Y-123420702D01*
X123578800Y-123414330D01*
X123576501Y-123410029D01*
X123575083Y-123405355D01*
X123574000Y-123394359D01*
X123574000Y-123105641D01*
X123575083Y-123094645D01*
X123576501Y-123089971D01*
X123578800Y-123085670D01*
X123584029Y-123079298D01*
X123597643Y-123058924D01*
X123607020Y-123036285D01*
X123611800Y-123012251D01*
X123611800Y-122987747D01*
X123607019Y-122963714D01*
X123597642Y-122941075D01*
X123584029Y-122920702D01*
X123578800Y-122914330D01*
X123576501Y-122910029D01*
X123575083Y-122905355D01*
X123574000Y-122894359D01*
X123574000Y-122605641D01*
X123575083Y-122594645D01*
X123576501Y-122589971D01*
X123578800Y-122585669D01*
X123581896Y-122581896D01*
X123585669Y-122578800D01*
X123589971Y-122576501D01*
X123594645Y-122575083D01*
X123605641Y-122574000D01*
X124449001Y-122574000D01*
X124473387Y-122571598D01*
X124496836Y-122564485D01*
X124518447Y-122552934D01*
X124537389Y-122537389D01*
X124552934Y-122518447D01*
X124564485Y-122496836D01*
X124571598Y-122473387D01*
X124574000Y-122449001D01*
X124574000Y-121605641D01*
X124575083Y-121594645D01*
X124576501Y-121589971D01*
X124578800Y-121585669D01*
X124581896Y-121581896D01*
X124585669Y-121578800D01*
X124589971Y-121576501D01*
X124594645Y-121575083D01*
X124605641Y-121574000D01*
X124894359Y-121574000D01*
X124905355Y-121575083D01*
X124905355Y-121575083D01*
G37*
G36*
X112980442Y-124615518D02*
G01*
X113046627Y-124622037D01*
X113216466Y-124673557D01*
X113216468Y-124673558D01*
X113248452Y-124690654D01*
X113372991Y-124757222D01*
X113408729Y-124786552D01*
X113510186Y-124869814D01*
X113587247Y-124963715D01*
X113622778Y-125007009D01*
X113622779Y-125007011D01*
X113696447Y-125144832D01*
X113706443Y-125163534D01*
X113757963Y-125333373D01*
X113775359Y-125510000D01*
X113757963Y-125686627D01*
X113706443Y-125856466D01*
X113622778Y-126012991D01*
X113593448Y-126048729D01*
X113510186Y-126150186D01*
X113408729Y-126233448D01*
X113372991Y-126262778D01*
X113216466Y-126346443D01*
X113046627Y-126397963D01*
X112980443Y-126404481D01*
X112914260Y-126411000D01*
X112825740Y-126411000D01*
X112759557Y-126404481D01*
X112693373Y-126397963D01*
X112523534Y-126346443D01*
X112367009Y-126262778D01*
X112331271Y-126233448D01*
X112229814Y-126150186D01*
X112146552Y-126048729D01*
X112117222Y-126012991D01*
X112033557Y-125856466D01*
X111982037Y-125686627D01*
X111964641Y-125510000D01*
X111982037Y-125333373D01*
X112033557Y-125163534D01*
X112043554Y-125144832D01*
X112117221Y-125007011D01*
X112117222Y-125007009D01*
X112152753Y-124963715D01*
X112229814Y-124869814D01*
X112331271Y-124786552D01*
X112367009Y-124757222D01*
X112491548Y-124690654D01*
X112523532Y-124673558D01*
X112523534Y-124673557D01*
X112693373Y-124622037D01*
X112759558Y-124615518D01*
X112825740Y-124609000D01*
X112914260Y-124609000D01*
X112980442Y-124615518D01*
X112980442Y-124615518D01*
G37*
G36*
X110440442Y-124615518D02*
G01*
X110506627Y-124622037D01*
X110676466Y-124673557D01*
X110676468Y-124673558D01*
X110708452Y-124690654D01*
X110832991Y-124757222D01*
X110868729Y-124786552D01*
X110970186Y-124869814D01*
X111047247Y-124963715D01*
X111082778Y-125007009D01*
X111082779Y-125007011D01*
X111156447Y-125144832D01*
X111166443Y-125163534D01*
X111217963Y-125333373D01*
X111235359Y-125510000D01*
X111217963Y-125686627D01*
X111166443Y-125856466D01*
X111082778Y-126012991D01*
X111053448Y-126048729D01*
X110970186Y-126150186D01*
X110868729Y-126233448D01*
X110832991Y-126262778D01*
X110676466Y-126346443D01*
X110506627Y-126397963D01*
X110440443Y-126404481D01*
X110374260Y-126411000D01*
X110285740Y-126411000D01*
X110219557Y-126404481D01*
X110153373Y-126397963D01*
X109983534Y-126346443D01*
X109827009Y-126262778D01*
X109791271Y-126233448D01*
X109689814Y-126150186D01*
X109606552Y-126048729D01*
X109577222Y-126012991D01*
X109493557Y-125856466D01*
X109442037Y-125686627D01*
X109424641Y-125510000D01*
X109442037Y-125333373D01*
X109493557Y-125163534D01*
X109503554Y-125144832D01*
X109577221Y-125007011D01*
X109577222Y-125007009D01*
X109612753Y-124963715D01*
X109689814Y-124869814D01*
X109791271Y-124786552D01*
X109827009Y-124757222D01*
X109951548Y-124690654D01*
X109983532Y-124673558D01*
X109983534Y-124673557D01*
X110153373Y-124622037D01*
X110219558Y-124615518D01*
X110285740Y-124609000D01*
X110374260Y-124609000D01*
X110440442Y-124615518D01*
X110440442Y-124615518D01*
G37*
G36*
X118364468Y-124793565D02*
G01*
X118403138Y-124805296D01*
X118438777Y-124824346D01*
X118470017Y-124849983D01*
X118495654Y-124881223D01*
X118514704Y-124916862D01*
X118526435Y-124955532D01*
X118531000Y-125001888D01*
X118531000Y-125653112D01*
X118526435Y-125699468D01*
X118514704Y-125738138D01*
X118495654Y-125773777D01*
X118470017Y-125805017D01*
X118438777Y-125830654D01*
X118403138Y-125849704D01*
X118364468Y-125861435D01*
X118318112Y-125866000D01*
X117241888Y-125866000D01*
X117195532Y-125861435D01*
X117156862Y-125849704D01*
X117121223Y-125830654D01*
X117089983Y-125805017D01*
X117064346Y-125773777D01*
X117045296Y-125738138D01*
X117033565Y-125699468D01*
X117029000Y-125653112D01*
X117029000Y-125001888D01*
X117033565Y-124955532D01*
X117045296Y-124916862D01*
X117064346Y-124881223D01*
X117089983Y-124849983D01*
X117121223Y-124824346D01*
X117156862Y-124805296D01*
X117195532Y-124793565D01*
X117241888Y-124789000D01*
X118318112Y-124789000D01*
X118364468Y-124793565D01*
X118364468Y-124793565D01*
G37*
G36*
X120354468Y-124793565D02*
G01*
X120393138Y-124805296D01*
X120428777Y-124824346D01*
X120460017Y-124849983D01*
X120485654Y-124881223D01*
X120504704Y-124916862D01*
X120516435Y-124955532D01*
X120521000Y-125001888D01*
X120521000Y-125653112D01*
X120516435Y-125699468D01*
X120504704Y-125738138D01*
X120485654Y-125773777D01*
X120460017Y-125805017D01*
X120428777Y-125830654D01*
X120393138Y-125849704D01*
X120354468Y-125861435D01*
X120308112Y-125866000D01*
X119231888Y-125866000D01*
X119185532Y-125861435D01*
X119146862Y-125849704D01*
X119111223Y-125830654D01*
X119079983Y-125805017D01*
X119054346Y-125773777D01*
X119035296Y-125738138D01*
X119023565Y-125699468D01*
X119019000Y-125653112D01*
X119019000Y-125001888D01*
X119023565Y-124955532D01*
X119035296Y-124916862D01*
X119054346Y-124881223D01*
X119079983Y-124849983D01*
X119111223Y-124824346D01*
X119146862Y-124805296D01*
X119185532Y-124793565D01*
X119231888Y-124789000D01*
X120308112Y-124789000D01*
X120354468Y-124793565D01*
X120354468Y-124793565D01*
G37*
G36*
X116364468Y-124793565D02*
G01*
X116403138Y-124805296D01*
X116438777Y-124824346D01*
X116470017Y-124849983D01*
X116495654Y-124881223D01*
X116514704Y-124916862D01*
X116526435Y-124955532D01*
X116531000Y-125001888D01*
X116531000Y-125653112D01*
X116526435Y-125699468D01*
X116514704Y-125738138D01*
X116495654Y-125773777D01*
X116470017Y-125805017D01*
X116438777Y-125830654D01*
X116403138Y-125849704D01*
X116364468Y-125861435D01*
X116318112Y-125866000D01*
X115241888Y-125866000D01*
X115195532Y-125861435D01*
X115156862Y-125849704D01*
X115121223Y-125830654D01*
X115089983Y-125805017D01*
X115064346Y-125773777D01*
X115045296Y-125738138D01*
X115033565Y-125699468D01*
X115029000Y-125653112D01*
X115029000Y-125001888D01*
X115033565Y-124955532D01*
X115045296Y-124916862D01*
X115064346Y-124881223D01*
X115089983Y-124849983D01*
X115121223Y-124824346D01*
X115156862Y-124805296D01*
X115195532Y-124793565D01*
X115241888Y-124789000D01*
X116318112Y-124789000D01*
X116364468Y-124793565D01*
X116364468Y-124793565D01*
G37*
G36*
X132834468Y-124153565D02*
G01*
X132873138Y-124165296D01*
X132908777Y-124184346D01*
X132940017Y-124209983D01*
X132965654Y-124241223D01*
X132984704Y-124276862D01*
X132996435Y-124315532D01*
X133001000Y-124361888D01*
X133001000Y-125013112D01*
X132996435Y-125059468D01*
X132984704Y-125098138D01*
X132965654Y-125133777D01*
X132940017Y-125165017D01*
X132908777Y-125190654D01*
X132873138Y-125209704D01*
X132834468Y-125221435D01*
X132788112Y-125226000D01*
X131711888Y-125226000D01*
X131665532Y-125221435D01*
X131626862Y-125209704D01*
X131591223Y-125190654D01*
X131559983Y-125165017D01*
X131534346Y-125133777D01*
X131515296Y-125098138D01*
X131503565Y-125059468D01*
X131499000Y-125013112D01*
X131499000Y-124361888D01*
X131503565Y-124315532D01*
X131515296Y-124276862D01*
X131534346Y-124241223D01*
X131559983Y-124209983D01*
X131591223Y-124184346D01*
X131626862Y-124165296D01*
X131665532Y-124153565D01*
X131711888Y-124149000D01*
X132788112Y-124149000D01*
X132834468Y-124153565D01*
X132834468Y-124153565D01*
G37*
G36*
X130834468Y-123653565D02*
G01*
X130873138Y-123665296D01*
X130908777Y-123684346D01*
X130940017Y-123709983D01*
X130965654Y-123741223D01*
X130984704Y-123776862D01*
X130996435Y-123815532D01*
X131001000Y-123861888D01*
X131001000Y-124513112D01*
X130996435Y-124559468D01*
X130984704Y-124598138D01*
X130965654Y-124633777D01*
X130940017Y-124665017D01*
X130908777Y-124690654D01*
X130873138Y-124709704D01*
X130834468Y-124721435D01*
X130788112Y-124726000D01*
X129711888Y-124726000D01*
X129665532Y-124721435D01*
X129626862Y-124709704D01*
X129591223Y-124690654D01*
X129559983Y-124665017D01*
X129534346Y-124633777D01*
X129515296Y-124598138D01*
X129503565Y-124559468D01*
X129499000Y-124513112D01*
X129499000Y-123861888D01*
X129503565Y-123815532D01*
X129515296Y-123776862D01*
X129534346Y-123741223D01*
X129559983Y-123709983D01*
X129591223Y-123684346D01*
X129626862Y-123665296D01*
X129665532Y-123653565D01*
X129711888Y-123649000D01*
X130788112Y-123649000D01*
X130834468Y-123653565D01*
X130834468Y-123653565D01*
G37*
G36*
X120354468Y-122918565D02*
G01*
X120393138Y-122930296D01*
X120428777Y-122949346D01*
X120460017Y-122974983D01*
X120485654Y-123006223D01*
X120504704Y-123041862D01*
X120516435Y-123080532D01*
X120521000Y-123126888D01*
X120521000Y-123778112D01*
X120516435Y-123824468D01*
X120504704Y-123863138D01*
X120485654Y-123898777D01*
X120460017Y-123930017D01*
X120428777Y-123955654D01*
X120393138Y-123974704D01*
X120354468Y-123986435D01*
X120308112Y-123991000D01*
X119231888Y-123991000D01*
X119185532Y-123986435D01*
X119146862Y-123974704D01*
X119111223Y-123955654D01*
X119079983Y-123930017D01*
X119054346Y-123898777D01*
X119035296Y-123863138D01*
X119023565Y-123824468D01*
X119019000Y-123778112D01*
X119019000Y-123126888D01*
X119023565Y-123080532D01*
X119035296Y-123041862D01*
X119054346Y-123006223D01*
X119079983Y-122974983D01*
X119111223Y-122949346D01*
X119146862Y-122930296D01*
X119185532Y-122918565D01*
X119231888Y-122914000D01*
X120308112Y-122914000D01*
X120354468Y-122918565D01*
X120354468Y-122918565D01*
G37*
G36*
X118364468Y-122918565D02*
G01*
X118403138Y-122930296D01*
X118438777Y-122949346D01*
X118470017Y-122974983D01*
X118495654Y-123006223D01*
X118514704Y-123041862D01*
X118526435Y-123080532D01*
X118531000Y-123126888D01*
X118531000Y-123778112D01*
X118526435Y-123824468D01*
X118514704Y-123863138D01*
X118495654Y-123898777D01*
X118470017Y-123930017D01*
X118438777Y-123955654D01*
X118403138Y-123974704D01*
X118364468Y-123986435D01*
X118318112Y-123991000D01*
X117241888Y-123991000D01*
X117195532Y-123986435D01*
X117156862Y-123974704D01*
X117121223Y-123955654D01*
X117089983Y-123930017D01*
X117064346Y-123898777D01*
X117045296Y-123863138D01*
X117033565Y-123824468D01*
X117029000Y-123778112D01*
X117029000Y-123126888D01*
X117033565Y-123080532D01*
X117045296Y-123041862D01*
X117064346Y-123006223D01*
X117089983Y-122974983D01*
X117121223Y-122949346D01*
X117156862Y-122930296D01*
X117195532Y-122918565D01*
X117241888Y-122914000D01*
X118318112Y-122914000D01*
X118364468Y-122918565D01*
X118364468Y-122918565D01*
G37*
G36*
X116364468Y-122918565D02*
G01*
X116403138Y-122930296D01*
X116438777Y-122949346D01*
X116470017Y-122974983D01*
X116495654Y-123006223D01*
X116514704Y-123041862D01*
X116526435Y-123080532D01*
X116531000Y-123126888D01*
X116531000Y-123778112D01*
X116526435Y-123824468D01*
X116514704Y-123863138D01*
X116495654Y-123898777D01*
X116470017Y-123930017D01*
X116438777Y-123955654D01*
X116403138Y-123974704D01*
X116364468Y-123986435D01*
X116318112Y-123991000D01*
X115241888Y-123991000D01*
X115195532Y-123986435D01*
X115156862Y-123974704D01*
X115121223Y-123955654D01*
X115089983Y-123930017D01*
X115064346Y-123898777D01*
X115045296Y-123863138D01*
X115033565Y-123824468D01*
X115029000Y-123778112D01*
X115029000Y-123126888D01*
X115033565Y-123080532D01*
X115045296Y-123041862D01*
X115064346Y-123006223D01*
X115089983Y-122974983D01*
X115121223Y-122949346D01*
X115156862Y-122930296D01*
X115195532Y-122918565D01*
X115241888Y-122914000D01*
X116318112Y-122914000D01*
X116364468Y-122918565D01*
X116364468Y-122918565D01*
G37*
G36*
X110440442Y-122075518D02*
G01*
X110506627Y-122082037D01*
X110676466Y-122133557D01*
X110832991Y-122217222D01*
X110868729Y-122246552D01*
X110970186Y-122329814D01*
X111029313Y-122401862D01*
X111082778Y-122467009D01*
X111082779Y-122467011D01*
X111153744Y-122599775D01*
X111166443Y-122623534D01*
X111217963Y-122793373D01*
X111235359Y-122970000D01*
X111217963Y-123146627D01*
X111166443Y-123316466D01*
X111082778Y-123472991D01*
X111070668Y-123487747D01*
X110970186Y-123610186D01*
X110879820Y-123684346D01*
X110832991Y-123722778D01*
X110676466Y-123806443D01*
X110506627Y-123857963D01*
X110440442Y-123864482D01*
X110374260Y-123871000D01*
X110285740Y-123871000D01*
X110219558Y-123864482D01*
X110153373Y-123857963D01*
X109983534Y-123806443D01*
X109827009Y-123722778D01*
X109780180Y-123684346D01*
X109689814Y-123610186D01*
X109589332Y-123487747D01*
X109577222Y-123472991D01*
X109493557Y-123316466D01*
X109442037Y-123146627D01*
X109424641Y-122970000D01*
X109442037Y-122793373D01*
X109493557Y-122623534D01*
X109506257Y-122599775D01*
X109577221Y-122467011D01*
X109577222Y-122467009D01*
X109630687Y-122401862D01*
X109689814Y-122329814D01*
X109791271Y-122246552D01*
X109827009Y-122217222D01*
X109983534Y-122133557D01*
X110153373Y-122082037D01*
X110219558Y-122075518D01*
X110285740Y-122069000D01*
X110374260Y-122069000D01*
X110440442Y-122075518D01*
X110440442Y-122075518D01*
G37*
G36*
X112980442Y-122075518D02*
G01*
X113046627Y-122082037D01*
X113216466Y-122133557D01*
X113372991Y-122217222D01*
X113408729Y-122246552D01*
X113510186Y-122329814D01*
X113569313Y-122401862D01*
X113622778Y-122467009D01*
X113622779Y-122467011D01*
X113693744Y-122599775D01*
X113706443Y-122623534D01*
X113757963Y-122793373D01*
X113775359Y-122970000D01*
X113757963Y-123146627D01*
X113706443Y-123316466D01*
X113622778Y-123472991D01*
X113610668Y-123487747D01*
X113510186Y-123610186D01*
X113419820Y-123684346D01*
X113372991Y-123722778D01*
X113216466Y-123806443D01*
X113046627Y-123857963D01*
X112980442Y-123864482D01*
X112914260Y-123871000D01*
X112825740Y-123871000D01*
X112759558Y-123864482D01*
X112693373Y-123857963D01*
X112523534Y-123806443D01*
X112367009Y-123722778D01*
X112320180Y-123684346D01*
X112229814Y-123610186D01*
X112129332Y-123487747D01*
X112117222Y-123472991D01*
X112033557Y-123316466D01*
X111982037Y-123146627D01*
X111964641Y-122970000D01*
X111982037Y-122793373D01*
X112033557Y-122623534D01*
X112046257Y-122599775D01*
X112117221Y-122467011D01*
X112117222Y-122467009D01*
X112170687Y-122401862D01*
X112229814Y-122329814D01*
X112331271Y-122246552D01*
X112367009Y-122217222D01*
X112523534Y-122133557D01*
X112693373Y-122082037D01*
X112759558Y-122075518D01*
X112825740Y-122069000D01*
X112914260Y-122069000D01*
X112980442Y-122075518D01*
X112980442Y-122075518D01*
G37*
G36*
X132834468Y-122278565D02*
G01*
X132873138Y-122290296D01*
X132908777Y-122309346D01*
X132940017Y-122334983D01*
X132965654Y-122366223D01*
X132984704Y-122401862D01*
X132996435Y-122440532D01*
X133001000Y-122486888D01*
X133001000Y-123138112D01*
X132996435Y-123184468D01*
X132984704Y-123223138D01*
X132965654Y-123258777D01*
X132940017Y-123290017D01*
X132908777Y-123315654D01*
X132873138Y-123334704D01*
X132834468Y-123346435D01*
X132788112Y-123351000D01*
X131711888Y-123351000D01*
X131665532Y-123346435D01*
X131626862Y-123334704D01*
X131591223Y-123315654D01*
X131559983Y-123290017D01*
X131534346Y-123258777D01*
X131515296Y-123223138D01*
X131503565Y-123184468D01*
X131499000Y-123138112D01*
X131499000Y-122486888D01*
X131503565Y-122440532D01*
X131515296Y-122401862D01*
X131534346Y-122366223D01*
X131559983Y-122334983D01*
X131591223Y-122309346D01*
X131626862Y-122290296D01*
X131665532Y-122278565D01*
X131711888Y-122274000D01*
X132788112Y-122274000D01*
X132834468Y-122278565D01*
X132834468Y-122278565D01*
G37*
G36*
X130834468Y-121778565D02*
G01*
X130873138Y-121790296D01*
X130908777Y-121809346D01*
X130940017Y-121834983D01*
X130965654Y-121866223D01*
X130984704Y-121901862D01*
X130996435Y-121940532D01*
X131001000Y-121986888D01*
X131001000Y-122638112D01*
X130996435Y-122684468D01*
X130984704Y-122723138D01*
X130965654Y-122758777D01*
X130940017Y-122790017D01*
X130908777Y-122815654D01*
X130873138Y-122834704D01*
X130834468Y-122846435D01*
X130788112Y-122851000D01*
X129711888Y-122851000D01*
X129665532Y-122846435D01*
X129626862Y-122834704D01*
X129591223Y-122815654D01*
X129559983Y-122790017D01*
X129534346Y-122758777D01*
X129515296Y-122723138D01*
X129503565Y-122684468D01*
X129499000Y-122638112D01*
X129499000Y-121986888D01*
X129503565Y-121940532D01*
X129515296Y-121901862D01*
X129534346Y-121866223D01*
X129559983Y-121834983D01*
X129591223Y-121809346D01*
X129626862Y-121790296D01*
X129665532Y-121778565D01*
X129711888Y-121774000D01*
X130788112Y-121774000D01*
X130834468Y-121778565D01*
X130834468Y-121778565D01*
G37*
G36*
X123111000Y-121441000D02*
G01*
X121009000Y-121441000D01*
X121009000Y-119739000D01*
X123111000Y-119739000D01*
X123111000Y-121441000D01*
X123111000Y-121441000D01*
G37*
G36*
X117711000Y-121441000D02*
G01*
X115609000Y-121441000D01*
X115609000Y-119739000D01*
X117711000Y-119739000D01*
X117711000Y-121441000D01*
X117711000Y-121441000D01*
G37*
G36*
X112980443Y-119535519D02*
G01*
X113046627Y-119542037D01*
X113216466Y-119593557D01*
X113372991Y-119677222D01*
X113408729Y-119706552D01*
X113510186Y-119789814D01*
X113593448Y-119891271D01*
X113622778Y-119927009D01*
X113706443Y-120083534D01*
X113757963Y-120253373D01*
X113775359Y-120430000D01*
X113757963Y-120606627D01*
X113706443Y-120776466D01*
X113622778Y-120932991D01*
X113593448Y-120968729D01*
X113510186Y-121070186D01*
X113408729Y-121153448D01*
X113372991Y-121182778D01*
X113216466Y-121266443D01*
X113046627Y-121317963D01*
X112980443Y-121324481D01*
X112914260Y-121331000D01*
X112825740Y-121331000D01*
X112759557Y-121324481D01*
X112693373Y-121317963D01*
X112523534Y-121266443D01*
X112367009Y-121182778D01*
X112331271Y-121153448D01*
X112229814Y-121070186D01*
X112146552Y-120968729D01*
X112117222Y-120932991D01*
X112033557Y-120776466D01*
X111982037Y-120606627D01*
X111964641Y-120430000D01*
X111982037Y-120253373D01*
X112033557Y-120083534D01*
X112117222Y-119927009D01*
X112146552Y-119891271D01*
X112229814Y-119789814D01*
X112331271Y-119706552D01*
X112367009Y-119677222D01*
X112523534Y-119593557D01*
X112693373Y-119542037D01*
X112759557Y-119535519D01*
X112825740Y-119529000D01*
X112914260Y-119529000D01*
X112980443Y-119535519D01*
X112980443Y-119535519D01*
G37*
G36*
X111231000Y-121331000D02*
G01*
X109429000Y-121331000D01*
X109429000Y-119529000D01*
X111231000Y-119529000D01*
X111231000Y-121331000D01*
X111231000Y-121331000D01*
G37*
G36*
X132609468Y-119253565D02*
G01*
X132648138Y-119265296D01*
X132683777Y-119284346D01*
X132715017Y-119309983D01*
X132740654Y-119341223D01*
X132759704Y-119376862D01*
X132771435Y-119415532D01*
X132776000Y-119461888D01*
X132776000Y-120538112D01*
X132771435Y-120584468D01*
X132759704Y-120623138D01*
X132740654Y-120658777D01*
X132715017Y-120690017D01*
X132683777Y-120715654D01*
X132648138Y-120734704D01*
X132609468Y-120746435D01*
X132563112Y-120751000D01*
X131911888Y-120751000D01*
X131865532Y-120746435D01*
X131826862Y-120734704D01*
X131791223Y-120715654D01*
X131759983Y-120690017D01*
X131734346Y-120658777D01*
X131715296Y-120623138D01*
X131703565Y-120584468D01*
X131699000Y-120538112D01*
X131699000Y-119461888D01*
X131703565Y-119415532D01*
X131715296Y-119376862D01*
X131734346Y-119341223D01*
X131759983Y-119309983D01*
X131791223Y-119284346D01*
X131826862Y-119265296D01*
X131865532Y-119253565D01*
X131911888Y-119249000D01*
X132563112Y-119249000D01*
X132609468Y-119253565D01*
X132609468Y-119253565D01*
G37*
G36*
X130734468Y-119253565D02*
G01*
X130773138Y-119265296D01*
X130808777Y-119284346D01*
X130840017Y-119309983D01*
X130865654Y-119341223D01*
X130884704Y-119376862D01*
X130896435Y-119415532D01*
X130901000Y-119461888D01*
X130901000Y-120538112D01*
X130896435Y-120584468D01*
X130884704Y-120623138D01*
X130865654Y-120658777D01*
X130840017Y-120690017D01*
X130808777Y-120715654D01*
X130773138Y-120734704D01*
X130734468Y-120746435D01*
X130688112Y-120751000D01*
X130036888Y-120751000D01*
X129990532Y-120746435D01*
X129951862Y-120734704D01*
X129916223Y-120715654D01*
X129884983Y-120690017D01*
X129859346Y-120658777D01*
X129840296Y-120623138D01*
X129828565Y-120584468D01*
X129824000Y-120538112D01*
X129824000Y-119461888D01*
X129828565Y-119415532D01*
X129840296Y-119376862D01*
X129859346Y-119341223D01*
X129884983Y-119309983D01*
X129916223Y-119284346D01*
X129951862Y-119265296D01*
X129990532Y-119253565D01*
X130036888Y-119249000D01*
X130688112Y-119249000D01*
X130734468Y-119253565D01*
X130734468Y-119253565D01*
G37*
G36*
X112664468Y-117183565D02*
G01*
X112703138Y-117195296D01*
X112738777Y-117214346D01*
X112770017Y-117239983D01*
X112795654Y-117271223D01*
X112814704Y-117306862D01*
X112826435Y-117345532D01*
X112831000Y-117391888D01*
X112831000Y-118043112D01*
X112826435Y-118089468D01*
X112814704Y-118128138D01*
X112795654Y-118163777D01*
X112770017Y-118195017D01*
X112738777Y-118220654D01*
X112703138Y-118239704D01*
X112664468Y-118251435D01*
X112618112Y-118256000D01*
X111541888Y-118256000D01*
X111495532Y-118251435D01*
X111456862Y-118239704D01*
X111421223Y-118220654D01*
X111389983Y-118195017D01*
X111364346Y-118163777D01*
X111345296Y-118128138D01*
X111333565Y-118089468D01*
X111329000Y-118043112D01*
X111329000Y-117391888D01*
X111333565Y-117345532D01*
X111345296Y-117306862D01*
X111364346Y-117271223D01*
X111389983Y-117239983D01*
X111421223Y-117214346D01*
X111456862Y-117195296D01*
X111495532Y-117183565D01*
X111541888Y-117179000D01*
X112618112Y-117179000D01*
X112664468Y-117183565D01*
X112664468Y-117183565D01*
G37*
G36*
X130609468Y-116753565D02*
G01*
X130648138Y-116765296D01*
X130683777Y-116784346D01*
X130715017Y-116809983D01*
X130740654Y-116841223D01*
X130759704Y-116876862D01*
X130771435Y-116915532D01*
X130776000Y-116961888D01*
X130776000Y-118038112D01*
X130771435Y-118084468D01*
X130759704Y-118123138D01*
X130740654Y-118158777D01*
X130715017Y-118190017D01*
X130683777Y-118215654D01*
X130648138Y-118234704D01*
X130609468Y-118246435D01*
X130563112Y-118251000D01*
X129911888Y-118251000D01*
X129865532Y-118246435D01*
X129826862Y-118234704D01*
X129791223Y-118215654D01*
X129759983Y-118190017D01*
X129734346Y-118158777D01*
X129715296Y-118123138D01*
X129703565Y-118084468D01*
X129699000Y-118038112D01*
X129699000Y-116961888D01*
X129703565Y-116915532D01*
X129715296Y-116876862D01*
X129734346Y-116841223D01*
X129759983Y-116809983D01*
X129791223Y-116784346D01*
X129826862Y-116765296D01*
X129865532Y-116753565D01*
X129911888Y-116749000D01*
X130563112Y-116749000D01*
X130609468Y-116753565D01*
X130609468Y-116753565D01*
G37*
G36*
X128734468Y-116753565D02*
G01*
X128773138Y-116765296D01*
X128808777Y-116784346D01*
X128840017Y-116809983D01*
X128865654Y-116841223D01*
X128884704Y-116876862D01*
X128896435Y-116915532D01*
X128901000Y-116961888D01*
X128901000Y-118038112D01*
X128896435Y-118084468D01*
X128884704Y-118123138D01*
X128865654Y-118158777D01*
X128840017Y-118190017D01*
X128808777Y-118215654D01*
X128773138Y-118234704D01*
X128734468Y-118246435D01*
X128688112Y-118251000D01*
X128036888Y-118251000D01*
X127990532Y-118246435D01*
X127951862Y-118234704D01*
X127916223Y-118215654D01*
X127884983Y-118190017D01*
X127859346Y-118158777D01*
X127840296Y-118123138D01*
X127828565Y-118084468D01*
X127824000Y-118038112D01*
X127824000Y-116961888D01*
X127828565Y-116915532D01*
X127840296Y-116876862D01*
X127859346Y-116841223D01*
X127884983Y-116809983D01*
X127916223Y-116784346D01*
X127951862Y-116765296D01*
X127990532Y-116753565D01*
X128036888Y-116749000D01*
X128688112Y-116749000D01*
X128734468Y-116753565D01*
X128734468Y-116753565D01*
G37*
G36*
X124954591Y-116778085D02*
G01*
X124988569Y-116788393D01*
X125019890Y-116805134D01*
X125047339Y-116827661D01*
X125069866Y-116855110D01*
X125086607Y-116886431D01*
X125096915Y-116920409D01*
X125101000Y-116961890D01*
X125101000Y-117638110D01*
X125096915Y-117679591D01*
X125086607Y-117713569D01*
X125069866Y-117744890D01*
X125047339Y-117772339D01*
X125019890Y-117794866D01*
X124988569Y-117811607D01*
X124954591Y-117821915D01*
X124913110Y-117826000D01*
X124311890Y-117826000D01*
X124270409Y-117821915D01*
X124236431Y-117811607D01*
X124205110Y-117794866D01*
X124177661Y-117772339D01*
X124155134Y-117744890D01*
X124138393Y-117713569D01*
X124128085Y-117679591D01*
X124124000Y-117638110D01*
X124124000Y-116961890D01*
X124128085Y-116920409D01*
X124138393Y-116886431D01*
X124155134Y-116855110D01*
X124177661Y-116827661D01*
X124205110Y-116805134D01*
X124236431Y-116788393D01*
X124270409Y-116778085D01*
X124311890Y-116774000D01*
X124913110Y-116774000D01*
X124954591Y-116778085D01*
X124954591Y-116778085D01*
G37*
G36*
X126529591Y-116778085D02*
G01*
X126563569Y-116788393D01*
X126594890Y-116805134D01*
X126622339Y-116827661D01*
X126644866Y-116855110D01*
X126661607Y-116886431D01*
X126671915Y-116920409D01*
X126676000Y-116961890D01*
X126676000Y-117638110D01*
X126671915Y-117679591D01*
X126661607Y-117713569D01*
X126644866Y-117744890D01*
X126622339Y-117772339D01*
X126594890Y-117794866D01*
X126563569Y-117811607D01*
X126529591Y-117821915D01*
X126488110Y-117826000D01*
X125886890Y-117826000D01*
X125845409Y-117821915D01*
X125811431Y-117811607D01*
X125780110Y-117794866D01*
X125752661Y-117772339D01*
X125730134Y-117744890D01*
X125713393Y-117713569D01*
X125703085Y-117679591D01*
X125699000Y-117638110D01*
X125699000Y-116961890D01*
X125703085Y-116920409D01*
X125713393Y-116886431D01*
X125730134Y-116855110D01*
X125752661Y-116827661D01*
X125780110Y-116805134D01*
X125811431Y-116788393D01*
X125845409Y-116778085D01*
X125886890Y-116774000D01*
X126488110Y-116774000D01*
X126529591Y-116778085D01*
X126529591Y-116778085D01*
G37*
G36*
X117191000Y-117611000D02*
G01*
X113589000Y-117611000D01*
X113589000Y-115709000D01*
X117191000Y-115709000D01*
X117191000Y-117611000D01*
X117191000Y-117611000D01*
G37*
G36*
X122191000Y-117611000D02*
G01*
X118589000Y-117611000D01*
X118589000Y-115709000D01*
X122191000Y-115709000D01*
X122191000Y-117611000D01*
X122191000Y-117611000D01*
G37*
G36*
X112664468Y-115308565D02*
G01*
X112703138Y-115320296D01*
X112738777Y-115339346D01*
X112770017Y-115364983D01*
X112795654Y-115396223D01*
X112814704Y-115431862D01*
X112826435Y-115470532D01*
X112831000Y-115516888D01*
X112831000Y-116168112D01*
X112826435Y-116214468D01*
X112814704Y-116253138D01*
X112795654Y-116288777D01*
X112770017Y-116320017D01*
X112738777Y-116345654D01*
X112703138Y-116364704D01*
X112664468Y-116376435D01*
X112618112Y-116381000D01*
X111541888Y-116381000D01*
X111495532Y-116376435D01*
X111456862Y-116364704D01*
X111421223Y-116345654D01*
X111389983Y-116320017D01*
X111364346Y-116288777D01*
X111345296Y-116253138D01*
X111333565Y-116214468D01*
X111329000Y-116168112D01*
X111329000Y-115516888D01*
X111333565Y-115470532D01*
X111345296Y-115431862D01*
X111364346Y-115396223D01*
X111389983Y-115364983D01*
X111421223Y-115339346D01*
X111456862Y-115320296D01*
X111495532Y-115308565D01*
X111541888Y-115304000D01*
X112618112Y-115304000D01*
X112664468Y-115308565D01*
X112664468Y-115308565D01*
G37*
G36*
X124951000Y-113381000D02*
G01*
X122056216Y-113381000D01*
X122031830Y-113383402D01*
X122008381Y-113390515D01*
X121986770Y-113402066D01*
X121967828Y-113417611D01*
X121952283Y-113436553D01*
X121936600Y-113469712D01*
X121933609Y-113479573D01*
X121889034Y-113562967D01*
X121829054Y-113636054D01*
X121755967Y-113696034D01*
X121755965Y-113696035D01*
X121755964Y-113696036D01*
X121672577Y-113740607D01*
X121672574Y-113740608D01*
X121672572Y-113740609D01*
X121582097Y-113768055D01*
X121511579Y-113775000D01*
X121379999Y-113775000D01*
X121355613Y-113777402D01*
X121332164Y-113784515D01*
X121310553Y-113796066D01*
X121291611Y-113811611D01*
X121276066Y-113830553D01*
X121264515Y-113852164D01*
X121257402Y-113875613D01*
X121255000Y-113899999D01*
X121255000Y-114251264D01*
X121246970Y-114332797D01*
X121215233Y-114437419D01*
X121163700Y-114533831D01*
X121163698Y-114533833D01*
X121094343Y-114618343D01*
X121009833Y-114687698D01*
X120913416Y-114739234D01*
X120861107Y-114755101D01*
X120808796Y-114770970D01*
X120700000Y-114781685D01*
X120591203Y-114770970D01*
X120538892Y-114755101D01*
X120486583Y-114739234D01*
X120486581Y-114739233D01*
X120390168Y-114687699D01*
X120377317Y-114677153D01*
X120305657Y-114618343D01*
X120236302Y-114533833D01*
X120184766Y-114437416D01*
X120153031Y-114332798D01*
X120153030Y-114332796D01*
X120145000Y-114251263D01*
X120145001Y-113188736D01*
X120153031Y-113107203D01*
X120174824Y-113035361D01*
X120184767Y-113002583D01*
X120195319Y-112982842D01*
X120236302Y-112906168D01*
X120305658Y-112821657D01*
X120390169Y-112752301D01*
X120486582Y-112700767D01*
X120486584Y-112700766D01*
X120538893Y-112684899D01*
X120591204Y-112669030D01*
X120700000Y-112658315D01*
X120808797Y-112669030D01*
X120861108Y-112684899D01*
X120913417Y-112700766D01*
X120913419Y-112700767D01*
X121009832Y-112752301D01*
X121051657Y-112786626D01*
X121072031Y-112800240D01*
X121094670Y-112809617D01*
X121118703Y-112814398D01*
X121130956Y-112815000D01*
X121511579Y-112815000D01*
X121582097Y-112821945D01*
X121672572Y-112849391D01*
X121672574Y-112849392D01*
X121672577Y-112849393D01*
X121755964Y-112893964D01*
X121755965Y-112893965D01*
X121755967Y-112893966D01*
X121831099Y-112955625D01*
X121844702Y-112969228D01*
X121865076Y-112982842D01*
X121887715Y-112992219D01*
X121911748Y-112997000D01*
X121936252Y-112997000D01*
X121960285Y-112992220D01*
X121982924Y-112982843D01*
X122003299Y-112969229D01*
X122020626Y-112951902D01*
X122034240Y-112931528D01*
X122043617Y-112908889D01*
X122048398Y-112884856D01*
X122049000Y-112872603D01*
X122049000Y-112479000D01*
X124951000Y-112479000D01*
X124951000Y-113381000D01*
X124951000Y-113381000D01*
G37*
G36*
X128451000Y-112872603D02*
G01*
X128453402Y-112896989D01*
X128460515Y-112920438D01*
X128472066Y-112942049D01*
X128487611Y-112960991D01*
X128506553Y-112976536D01*
X128528164Y-112988087D01*
X128551613Y-112995200D01*
X128575999Y-112997602D01*
X128600385Y-112995200D01*
X128623834Y-112988087D01*
X128645445Y-112976536D01*
X128664387Y-112960991D01*
X128670263Y-112954507D01*
X128744033Y-112893966D01*
X128744035Y-112893965D01*
X128744036Y-112893964D01*
X128827423Y-112849393D01*
X128827426Y-112849392D01*
X128827428Y-112849391D01*
X128917903Y-112821945D01*
X128988421Y-112815000D01*
X129369045Y-112815000D01*
X129393431Y-112812598D01*
X129416880Y-112805485D01*
X129438491Y-112793934D01*
X129448344Y-112786626D01*
X129490169Y-112752301D01*
X129586582Y-112700767D01*
X129586584Y-112700766D01*
X129638893Y-112684899D01*
X129691204Y-112669030D01*
X129800000Y-112658315D01*
X129908797Y-112669030D01*
X129961108Y-112684899D01*
X130013417Y-112700766D01*
X130013419Y-112700767D01*
X130109832Y-112752301D01*
X130194343Y-112821657D01*
X130263699Y-112906168D01*
X130304682Y-112982842D01*
X130315234Y-113002583D01*
X130325177Y-113035361D01*
X130346970Y-113107203D01*
X130355000Y-113188736D01*
X130355000Y-114251264D01*
X130346970Y-114332797D01*
X130315233Y-114437419D01*
X130263700Y-114533831D01*
X130263698Y-114533833D01*
X130194343Y-114618343D01*
X130109833Y-114687698D01*
X130013416Y-114739234D01*
X129961107Y-114755101D01*
X129908796Y-114770970D01*
X129800000Y-114781685D01*
X129691203Y-114770970D01*
X129638892Y-114755101D01*
X129586583Y-114739234D01*
X129586581Y-114739233D01*
X129490168Y-114687699D01*
X129477317Y-114677153D01*
X129405657Y-114618343D01*
X129336302Y-114533833D01*
X129284766Y-114437416D01*
X129253031Y-114332798D01*
X129253030Y-114332796D01*
X129245000Y-114251263D01*
X129245000Y-113899999D01*
X129242598Y-113875613D01*
X129235485Y-113852164D01*
X129223934Y-113830553D01*
X129208389Y-113811611D01*
X129189447Y-113796066D01*
X129167836Y-113784515D01*
X129144387Y-113777402D01*
X129120001Y-113775000D01*
X128988421Y-113775000D01*
X128917903Y-113768055D01*
X128827428Y-113740609D01*
X128827426Y-113740608D01*
X128827423Y-113740607D01*
X128744036Y-113696036D01*
X128744035Y-113696035D01*
X128744033Y-113696034D01*
X128670946Y-113636054D01*
X128610966Y-113562967D01*
X128566391Y-113479573D01*
X128563400Y-113469712D01*
X128554022Y-113447073D01*
X128540408Y-113426699D01*
X128523081Y-113409372D01*
X128502706Y-113395759D01*
X128480067Y-113386382D01*
X128443784Y-113381000D01*
X125549000Y-113381000D01*
X125549000Y-112479000D01*
X128451000Y-112479000D01*
X128451000Y-112872603D01*
X128451000Y-112872603D01*
G37*
G36*
X128201000Y-114581000D02*
G01*
X122299000Y-114581000D01*
X122299000Y-113679000D01*
X128201000Y-113679000D01*
X128201000Y-114581000D01*
X128201000Y-114581000D01*
G37*
G36*
X111665880Y-108789776D02*
G01*
X112046593Y-108865504D01*
X112456249Y-109035189D01*
X112824929Y-109281534D01*
X113138466Y-109595071D01*
X113384811Y-109963751D01*
X113554496Y-110373407D01*
X113641000Y-110808296D01*
X113641000Y-111251704D01*
X113554496Y-111686593D01*
X113384811Y-112096249D01*
X113138466Y-112464929D01*
X112824929Y-112778466D01*
X112456249Y-113024811D01*
X112046593Y-113194496D01*
X111665880Y-113270224D01*
X111611705Y-113281000D01*
X111168295Y-113281000D01*
X111114120Y-113270224D01*
X110733407Y-113194496D01*
X110323751Y-113024811D01*
X109955071Y-112778466D01*
X109641534Y-112464929D01*
X109395189Y-112096249D01*
X109225504Y-111686593D01*
X109139000Y-111251704D01*
X109139000Y-110808296D01*
X109225504Y-110373407D01*
X109395189Y-109963751D01*
X109641534Y-109595071D01*
X109955071Y-109281534D01*
X110323751Y-109035189D01*
X110733407Y-108865504D01*
X111114120Y-108789776D01*
X111168295Y-108779000D01*
X111611705Y-108779000D01*
X111665880Y-108789776D01*
X111665880Y-108789776D01*
G37*
G36*
X136575880Y-108659776D02*
G01*
X136956593Y-108735504D01*
X137366249Y-108905189D01*
X137734929Y-109151534D01*
X138048466Y-109465071D01*
X138294811Y-109833751D01*
X138464496Y-110243407D01*
X138551000Y-110678296D01*
X138551000Y-111121704D01*
X138464496Y-111556593D01*
X138294811Y-111966249D01*
X138048466Y-112334929D01*
X137734929Y-112648466D01*
X137366249Y-112894811D01*
X136956593Y-113064496D01*
X136575880Y-113140224D01*
X136521705Y-113151000D01*
X136078295Y-113151000D01*
X136024120Y-113140224D01*
X135643407Y-113064496D01*
X135233751Y-112894811D01*
X134865071Y-112648466D01*
X134551534Y-112334929D01*
X134305189Y-111966249D01*
X134135504Y-111556593D01*
X134049000Y-111121704D01*
X134049000Y-110678296D01*
X134135504Y-110243407D01*
X134305189Y-109833751D01*
X134551534Y-109465071D01*
X134865071Y-109151534D01*
X135233751Y-108905189D01*
X135643407Y-108735504D01*
X136024120Y-108659776D01*
X136078295Y-108649000D01*
X136521705Y-108649000D01*
X136575880Y-108659776D01*
X136575880Y-108659776D01*
G37*
G36*
X131337818Y-108357696D02*
G01*
X131451105Y-108392062D01*
X131555512Y-108447869D01*
X131647027Y-108522973D01*
X131722131Y-108614488D01*
X131777938Y-108718895D01*
X131812304Y-108832182D01*
X131821000Y-108920481D01*
X131821000Y-110079519D01*
X131812304Y-110167818D01*
X131777938Y-110281105D01*
X131722131Y-110385512D01*
X131722130Y-110385513D01*
X131647027Y-110477027D01*
X131571923Y-110538662D01*
X131555511Y-110552131D01*
X131451104Y-110607938D01*
X131337817Y-110642304D01*
X131220000Y-110653907D01*
X131102182Y-110642304D01*
X130988895Y-110607938D01*
X130884488Y-110552131D01*
X130838525Y-110514410D01*
X130792973Y-110477027D01*
X130717870Y-110385512D01*
X130717869Y-110385511D01*
X130662062Y-110281104D01*
X130627696Y-110167817D01*
X130619000Y-110079518D01*
X130619001Y-108920481D01*
X130627697Y-108832182D01*
X130662063Y-108718895D01*
X130717870Y-108614488D01*
X130792974Y-108522973D01*
X130884489Y-108447869D01*
X130988896Y-108392062D01*
X131102183Y-108357696D01*
X131220000Y-108346093D01*
X131337818Y-108357696D01*
X131337818Y-108357696D01*
G37*
G36*
X119397818Y-108357696D02*
G01*
X119511105Y-108392062D01*
X119615512Y-108447869D01*
X119707027Y-108522973D01*
X119782131Y-108614488D01*
X119837938Y-108718895D01*
X119872304Y-108832182D01*
X119881000Y-108920481D01*
X119881000Y-110079519D01*
X119872304Y-110167818D01*
X119837938Y-110281105D01*
X119782131Y-110385512D01*
X119782130Y-110385513D01*
X119707027Y-110477027D01*
X119631923Y-110538662D01*
X119615511Y-110552131D01*
X119511104Y-110607938D01*
X119397817Y-110642304D01*
X119280000Y-110653907D01*
X119162182Y-110642304D01*
X119048895Y-110607938D01*
X118944488Y-110552131D01*
X118898525Y-110514410D01*
X118852973Y-110477027D01*
X118777870Y-110385512D01*
X118777869Y-110385511D01*
X118722062Y-110281104D01*
X118687696Y-110167817D01*
X118679000Y-110079518D01*
X118679001Y-108920481D01*
X118687697Y-108832182D01*
X118722063Y-108718895D01*
X118777870Y-108614488D01*
X118852974Y-108522973D01*
X118944489Y-108447869D01*
X119048896Y-108392062D01*
X119162183Y-108357696D01*
X119280000Y-108346093D01*
X119397818Y-108357696D01*
X119397818Y-108357696D01*
G37*
M02*
