G04 #@! TF.GenerationSoftware,KiCad,Pcbnew,(5.1.0)-1*
G04 #@! TF.CreationDate,2019-11-16T16:41:27+01:00*
G04 #@! TF.ProjectId,USBC_PowerDelivery,55534243-5f50-46f7-9765-7244656c6976,rev?*
G04 #@! TF.SameCoordinates,Original*
G04 #@! TF.FileFunction,Profile,NP*
%FSLAX46Y46*%
G04 Gerber Fmt 4.6, Leading zero omitted, Abs format (unit mm)*
G04 Created by KiCad (PCBNEW (5.1.0)-1) date 2019-11-16 16:41:27*
%MOMM*%
%LPD*%
G04 APERTURE LIST*
%ADD10C,0.050000*%
%ADD11C,0.100000*%
G04 APERTURE END LIST*
D10*
X108280000Y-108000000D02*
X120320000Y-108000000D01*
X139000000Y-108000000D02*
X130180000Y-108000000D01*
X130170000Y-112370000D02*
X130180000Y-108000000D01*
X120340000Y-112370000D02*
X130170000Y-112370000D01*
X120320000Y-108000000D02*
X120340000Y-112370000D01*
X139000000Y-144200000D02*
X139000000Y-108000000D01*
X108310000Y-144210000D02*
X139000000Y-144200000D01*
X108280000Y-108000000D02*
X108310000Y-144210000D01*
D11*
X120450000Y-113245000D02*
G75*
G02X120700000Y-112995000I250000J0D01*
G01*
X121250000Y-113595000D02*
G75*
G03X121550000Y-113295000I0J300000D01*
G01*
X120700000Y-112995000D02*
X121250000Y-112995000D01*
X120450000Y-113245000D02*
X120450000Y-114195000D01*
X120450000Y-114195000D02*
G75*
G03X120700000Y-114445000I250000J0D01*
G01*
X120700000Y-114445000D02*
G75*
G03X120950000Y-114195000I0J250000D01*
G01*
X120950000Y-114195000D02*
X120950000Y-113750000D01*
X121550000Y-113295000D02*
G75*
G03X121250000Y-112995000I-300000J0D01*
G01*
X120950000Y-113750000D02*
G75*
G02X121095000Y-113595000I150000J5000D01*
G01*
X121095000Y-113595000D02*
X121250000Y-113595000D01*
X130050000Y-113245000D02*
G75*
G03X129800000Y-112995000I-250000J0D01*
G01*
X129255000Y-113595000D02*
G75*
G02X128950000Y-113295000I-2500J302500D01*
G01*
X129800000Y-112995000D02*
X129250000Y-112995000D01*
X130050000Y-113245000D02*
X130050000Y-114195000D01*
X130050000Y-114195000D02*
G75*
G02X129800000Y-114445000I-250000J0D01*
G01*
X129800000Y-114445000D02*
G75*
G02X129550000Y-114195000I0J250000D01*
G01*
X129550000Y-114195000D02*
X129550000Y-113750000D01*
X128950000Y-113295000D02*
G75*
G02X129250000Y-112995000I300000J0D01*
G01*
X129550000Y-113750000D02*
G75*
G03X129405000Y-113595000I-150000J5000D01*
G01*
X129405000Y-113595000D02*
X129255000Y-113595000D01*
X131220000Y-110300000D02*
G75*
G02X130970000Y-110050000I0J250000D01*
G01*
X130970000Y-110050000D02*
X130970000Y-108950000D01*
X130970000Y-108950000D02*
G75*
G02X131220000Y-108700000I250000J0D01*
G01*
X131220000Y-108700000D02*
G75*
G02X131470000Y-108950000I0J-250000D01*
G01*
X131470000Y-108950000D02*
X131470000Y-110050000D01*
X131470000Y-110050000D02*
G75*
G02X131220000Y-110300000I-250000J0D01*
G01*
X119280000Y-110300000D02*
G75*
G02X119030000Y-110050000I0J250000D01*
G01*
X119030000Y-110050000D02*
X119030000Y-108950000D01*
X119030000Y-108950000D02*
G75*
G02X119280000Y-108700000I250000J0D01*
G01*
X119280000Y-108700000D02*
G75*
G02X119530000Y-108950000I0J-250000D01*
G01*
X119530000Y-108950000D02*
X119530000Y-110050000D01*
X119530000Y-110050000D02*
G75*
G02X119280000Y-110300000I-250000J0D01*
G01*
M02*
