G04 #@! TF.GenerationSoftware,KiCad,Pcbnew,(5.1.0)-1*
G04 #@! TF.CreationDate,2019-11-16T16:41:27+01:00*
G04 #@! TF.ProjectId,USBC_PowerDelivery,55534243-5f50-46f7-9765-7244656c6976,rev?*
G04 #@! TF.SameCoordinates,Original*
G04 #@! TF.FileFunction,Paste,Top*
G04 #@! TF.FilePolarity,Positive*
%FSLAX46Y46*%
G04 Gerber Fmt 4.6, Leading zero omitted, Abs format (unit mm)*
G04 Created by KiCad (PCBNEW (5.1.0)-1) date 2019-11-16 16:41:27*
%MOMM*%
%LPD*%
G04 APERTURE LIST*
%ADD10C,0.100000*%
%ADD11C,0.875000*%
%ADD12R,0.300000X0.800000*%
%ADD13C,0.250000*%
%ADD14C,1.090000*%
%ADD15R,2.000000X1.600000*%
%ADD16C,0.975000*%
%ADD17R,0.350000X0.500000*%
%ADD18R,0.400000X0.300000*%
%ADD19R,0.380000X0.430000*%
%ADD20R,2.450000X1.980000*%
%ADD21R,3.500000X1.800000*%
%ADD22C,0.850000*%
%ADD23R,1.800000X3.500000*%
G04 APERTURE END LIST*
D10*
G36*
X122967691Y-127426053D02*
G01*
X122988926Y-127429203D01*
X123009750Y-127434419D01*
X123029962Y-127441651D01*
X123049368Y-127450830D01*
X123067781Y-127461866D01*
X123085024Y-127474654D01*
X123100930Y-127489070D01*
X123115346Y-127504976D01*
X123128134Y-127522219D01*
X123139170Y-127540632D01*
X123148349Y-127560038D01*
X123155581Y-127580250D01*
X123160797Y-127601074D01*
X123163947Y-127622309D01*
X123165000Y-127643750D01*
X123165000Y-128081250D01*
X123163947Y-128102691D01*
X123160797Y-128123926D01*
X123155581Y-128144750D01*
X123148349Y-128164962D01*
X123139170Y-128184368D01*
X123128134Y-128202781D01*
X123115346Y-128220024D01*
X123100930Y-128235930D01*
X123085024Y-128250346D01*
X123067781Y-128263134D01*
X123049368Y-128274170D01*
X123029962Y-128283349D01*
X123009750Y-128290581D01*
X122988926Y-128295797D01*
X122967691Y-128298947D01*
X122946250Y-128300000D01*
X122433750Y-128300000D01*
X122412309Y-128298947D01*
X122391074Y-128295797D01*
X122370250Y-128290581D01*
X122350038Y-128283349D01*
X122330632Y-128274170D01*
X122312219Y-128263134D01*
X122294976Y-128250346D01*
X122279070Y-128235930D01*
X122264654Y-128220024D01*
X122251866Y-128202781D01*
X122240830Y-128184368D01*
X122231651Y-128164962D01*
X122224419Y-128144750D01*
X122219203Y-128123926D01*
X122216053Y-128102691D01*
X122215000Y-128081250D01*
X122215000Y-127643750D01*
X122216053Y-127622309D01*
X122219203Y-127601074D01*
X122224419Y-127580250D01*
X122231651Y-127560038D01*
X122240830Y-127540632D01*
X122251866Y-127522219D01*
X122264654Y-127504976D01*
X122279070Y-127489070D01*
X122294976Y-127474654D01*
X122312219Y-127461866D01*
X122330632Y-127450830D01*
X122350038Y-127441651D01*
X122370250Y-127434419D01*
X122391074Y-127429203D01*
X122412309Y-127426053D01*
X122433750Y-127425000D01*
X122946250Y-127425000D01*
X122967691Y-127426053D01*
X122967691Y-127426053D01*
G37*
D11*
X122690000Y-127862500D03*
D10*
G36*
X122967691Y-129001053D02*
G01*
X122988926Y-129004203D01*
X123009750Y-129009419D01*
X123029962Y-129016651D01*
X123049368Y-129025830D01*
X123067781Y-129036866D01*
X123085024Y-129049654D01*
X123100930Y-129064070D01*
X123115346Y-129079976D01*
X123128134Y-129097219D01*
X123139170Y-129115632D01*
X123148349Y-129135038D01*
X123155581Y-129155250D01*
X123160797Y-129176074D01*
X123163947Y-129197309D01*
X123165000Y-129218750D01*
X123165000Y-129656250D01*
X123163947Y-129677691D01*
X123160797Y-129698926D01*
X123155581Y-129719750D01*
X123148349Y-129739962D01*
X123139170Y-129759368D01*
X123128134Y-129777781D01*
X123115346Y-129795024D01*
X123100930Y-129810930D01*
X123085024Y-129825346D01*
X123067781Y-129838134D01*
X123049368Y-129849170D01*
X123029962Y-129858349D01*
X123009750Y-129865581D01*
X122988926Y-129870797D01*
X122967691Y-129873947D01*
X122946250Y-129875000D01*
X122433750Y-129875000D01*
X122412309Y-129873947D01*
X122391074Y-129870797D01*
X122370250Y-129865581D01*
X122350038Y-129858349D01*
X122330632Y-129849170D01*
X122312219Y-129838134D01*
X122294976Y-129825346D01*
X122279070Y-129810930D01*
X122264654Y-129795024D01*
X122251866Y-129777781D01*
X122240830Y-129759368D01*
X122231651Y-129739962D01*
X122224419Y-129719750D01*
X122219203Y-129698926D01*
X122216053Y-129677691D01*
X122215000Y-129656250D01*
X122215000Y-129218750D01*
X122216053Y-129197309D01*
X122219203Y-129176074D01*
X122224419Y-129155250D01*
X122231651Y-129135038D01*
X122240830Y-129115632D01*
X122251866Y-129097219D01*
X122264654Y-129079976D01*
X122279070Y-129064070D01*
X122294976Y-129049654D01*
X122312219Y-129036866D01*
X122330632Y-129025830D01*
X122350038Y-129016651D01*
X122370250Y-129009419D01*
X122391074Y-129004203D01*
X122412309Y-129001053D01*
X122433750Y-129000000D01*
X122946250Y-129000000D01*
X122967691Y-129001053D01*
X122967691Y-129001053D01*
G37*
D11*
X122690000Y-129437500D03*
D12*
X128000000Y-114130000D03*
X127500000Y-114130000D03*
X127000000Y-114130000D03*
X126500000Y-114130000D03*
X126000000Y-114130000D03*
X125500000Y-114130000D03*
X125000000Y-114130000D03*
X124500000Y-114130000D03*
X124000000Y-114130000D03*
X123500000Y-114130000D03*
X123000000Y-114130000D03*
X122500000Y-114130000D03*
X122250000Y-112930000D03*
X122750000Y-112930000D03*
X123250000Y-112930000D03*
X123750000Y-112930000D03*
X124250000Y-112930000D03*
X124750000Y-112930000D03*
X125750000Y-112930000D03*
X126250000Y-112930000D03*
X126750000Y-112930000D03*
X127250000Y-112930000D03*
X127750000Y-112930000D03*
X128250000Y-112930000D03*
D10*
G36*
X128318626Y-122625301D02*
G01*
X128324693Y-122626201D01*
X128330643Y-122627691D01*
X128336418Y-122629758D01*
X128341962Y-122632380D01*
X128347223Y-122635533D01*
X128352150Y-122639187D01*
X128356694Y-122643306D01*
X128360813Y-122647850D01*
X128364467Y-122652777D01*
X128367620Y-122658038D01*
X128370242Y-122663582D01*
X128372309Y-122669357D01*
X128373799Y-122675307D01*
X128374699Y-122681374D01*
X128375000Y-122687500D01*
X128375000Y-122812500D01*
X128374699Y-122818626D01*
X128373799Y-122824693D01*
X128372309Y-122830643D01*
X128370242Y-122836418D01*
X128367620Y-122841962D01*
X128364467Y-122847223D01*
X128360813Y-122852150D01*
X128356694Y-122856694D01*
X128352150Y-122860813D01*
X128347223Y-122864467D01*
X128341962Y-122867620D01*
X128336418Y-122870242D01*
X128330643Y-122872309D01*
X128324693Y-122873799D01*
X128318626Y-122874699D01*
X128312500Y-122875000D01*
X127612500Y-122875000D01*
X127606374Y-122874699D01*
X127600307Y-122873799D01*
X127594357Y-122872309D01*
X127588582Y-122870242D01*
X127583038Y-122867620D01*
X127577777Y-122864467D01*
X127572850Y-122860813D01*
X127568306Y-122856694D01*
X127564187Y-122852150D01*
X127560533Y-122847223D01*
X127557380Y-122841962D01*
X127554758Y-122836418D01*
X127552691Y-122830643D01*
X127551201Y-122824693D01*
X127550301Y-122818626D01*
X127550000Y-122812500D01*
X127550000Y-122687500D01*
X127550301Y-122681374D01*
X127551201Y-122675307D01*
X127552691Y-122669357D01*
X127554758Y-122663582D01*
X127557380Y-122658038D01*
X127560533Y-122652777D01*
X127564187Y-122647850D01*
X127568306Y-122643306D01*
X127572850Y-122639187D01*
X127577777Y-122635533D01*
X127583038Y-122632380D01*
X127588582Y-122629758D01*
X127594357Y-122627691D01*
X127600307Y-122626201D01*
X127606374Y-122625301D01*
X127612500Y-122625000D01*
X128312500Y-122625000D01*
X128318626Y-122625301D01*
X128318626Y-122625301D01*
G37*
D13*
X127962500Y-122750000D03*
D10*
G36*
X128318626Y-123125301D02*
G01*
X128324693Y-123126201D01*
X128330643Y-123127691D01*
X128336418Y-123129758D01*
X128341962Y-123132380D01*
X128347223Y-123135533D01*
X128352150Y-123139187D01*
X128356694Y-123143306D01*
X128360813Y-123147850D01*
X128364467Y-123152777D01*
X128367620Y-123158038D01*
X128370242Y-123163582D01*
X128372309Y-123169357D01*
X128373799Y-123175307D01*
X128374699Y-123181374D01*
X128375000Y-123187500D01*
X128375000Y-123312500D01*
X128374699Y-123318626D01*
X128373799Y-123324693D01*
X128372309Y-123330643D01*
X128370242Y-123336418D01*
X128367620Y-123341962D01*
X128364467Y-123347223D01*
X128360813Y-123352150D01*
X128356694Y-123356694D01*
X128352150Y-123360813D01*
X128347223Y-123364467D01*
X128341962Y-123367620D01*
X128336418Y-123370242D01*
X128330643Y-123372309D01*
X128324693Y-123373799D01*
X128318626Y-123374699D01*
X128312500Y-123375000D01*
X127612500Y-123375000D01*
X127606374Y-123374699D01*
X127600307Y-123373799D01*
X127594357Y-123372309D01*
X127588582Y-123370242D01*
X127583038Y-123367620D01*
X127577777Y-123364467D01*
X127572850Y-123360813D01*
X127568306Y-123356694D01*
X127564187Y-123352150D01*
X127560533Y-123347223D01*
X127557380Y-123341962D01*
X127554758Y-123336418D01*
X127552691Y-123330643D01*
X127551201Y-123324693D01*
X127550301Y-123318626D01*
X127550000Y-123312500D01*
X127550000Y-123187500D01*
X127550301Y-123181374D01*
X127551201Y-123175307D01*
X127552691Y-123169357D01*
X127554758Y-123163582D01*
X127557380Y-123158038D01*
X127560533Y-123152777D01*
X127564187Y-123147850D01*
X127568306Y-123143306D01*
X127572850Y-123139187D01*
X127577777Y-123135533D01*
X127583038Y-123132380D01*
X127588582Y-123129758D01*
X127594357Y-123127691D01*
X127600307Y-123126201D01*
X127606374Y-123125301D01*
X127612500Y-123125000D01*
X128312500Y-123125000D01*
X128318626Y-123125301D01*
X128318626Y-123125301D01*
G37*
D13*
X127962500Y-123250000D03*
D10*
G36*
X128318626Y-123625301D02*
G01*
X128324693Y-123626201D01*
X128330643Y-123627691D01*
X128336418Y-123629758D01*
X128341962Y-123632380D01*
X128347223Y-123635533D01*
X128352150Y-123639187D01*
X128356694Y-123643306D01*
X128360813Y-123647850D01*
X128364467Y-123652777D01*
X128367620Y-123658038D01*
X128370242Y-123663582D01*
X128372309Y-123669357D01*
X128373799Y-123675307D01*
X128374699Y-123681374D01*
X128375000Y-123687500D01*
X128375000Y-123812500D01*
X128374699Y-123818626D01*
X128373799Y-123824693D01*
X128372309Y-123830643D01*
X128370242Y-123836418D01*
X128367620Y-123841962D01*
X128364467Y-123847223D01*
X128360813Y-123852150D01*
X128356694Y-123856694D01*
X128352150Y-123860813D01*
X128347223Y-123864467D01*
X128341962Y-123867620D01*
X128336418Y-123870242D01*
X128330643Y-123872309D01*
X128324693Y-123873799D01*
X128318626Y-123874699D01*
X128312500Y-123875000D01*
X127612500Y-123875000D01*
X127606374Y-123874699D01*
X127600307Y-123873799D01*
X127594357Y-123872309D01*
X127588582Y-123870242D01*
X127583038Y-123867620D01*
X127577777Y-123864467D01*
X127572850Y-123860813D01*
X127568306Y-123856694D01*
X127564187Y-123852150D01*
X127560533Y-123847223D01*
X127557380Y-123841962D01*
X127554758Y-123836418D01*
X127552691Y-123830643D01*
X127551201Y-123824693D01*
X127550301Y-123818626D01*
X127550000Y-123812500D01*
X127550000Y-123687500D01*
X127550301Y-123681374D01*
X127551201Y-123675307D01*
X127552691Y-123669357D01*
X127554758Y-123663582D01*
X127557380Y-123658038D01*
X127560533Y-123652777D01*
X127564187Y-123647850D01*
X127568306Y-123643306D01*
X127572850Y-123639187D01*
X127577777Y-123635533D01*
X127583038Y-123632380D01*
X127588582Y-123629758D01*
X127594357Y-123627691D01*
X127600307Y-123626201D01*
X127606374Y-123625301D01*
X127612500Y-123625000D01*
X128312500Y-123625000D01*
X128318626Y-123625301D01*
X128318626Y-123625301D01*
G37*
D13*
X127962500Y-123750000D03*
D10*
G36*
X128318626Y-124125301D02*
G01*
X128324693Y-124126201D01*
X128330643Y-124127691D01*
X128336418Y-124129758D01*
X128341962Y-124132380D01*
X128347223Y-124135533D01*
X128352150Y-124139187D01*
X128356694Y-124143306D01*
X128360813Y-124147850D01*
X128364467Y-124152777D01*
X128367620Y-124158038D01*
X128370242Y-124163582D01*
X128372309Y-124169357D01*
X128373799Y-124175307D01*
X128374699Y-124181374D01*
X128375000Y-124187500D01*
X128375000Y-124312500D01*
X128374699Y-124318626D01*
X128373799Y-124324693D01*
X128372309Y-124330643D01*
X128370242Y-124336418D01*
X128367620Y-124341962D01*
X128364467Y-124347223D01*
X128360813Y-124352150D01*
X128356694Y-124356694D01*
X128352150Y-124360813D01*
X128347223Y-124364467D01*
X128341962Y-124367620D01*
X128336418Y-124370242D01*
X128330643Y-124372309D01*
X128324693Y-124373799D01*
X128318626Y-124374699D01*
X128312500Y-124375000D01*
X127612500Y-124375000D01*
X127606374Y-124374699D01*
X127600307Y-124373799D01*
X127594357Y-124372309D01*
X127588582Y-124370242D01*
X127583038Y-124367620D01*
X127577777Y-124364467D01*
X127572850Y-124360813D01*
X127568306Y-124356694D01*
X127564187Y-124352150D01*
X127560533Y-124347223D01*
X127557380Y-124341962D01*
X127554758Y-124336418D01*
X127552691Y-124330643D01*
X127551201Y-124324693D01*
X127550301Y-124318626D01*
X127550000Y-124312500D01*
X127550000Y-124187500D01*
X127550301Y-124181374D01*
X127551201Y-124175307D01*
X127552691Y-124169357D01*
X127554758Y-124163582D01*
X127557380Y-124158038D01*
X127560533Y-124152777D01*
X127564187Y-124147850D01*
X127568306Y-124143306D01*
X127572850Y-124139187D01*
X127577777Y-124135533D01*
X127583038Y-124132380D01*
X127588582Y-124129758D01*
X127594357Y-124127691D01*
X127600307Y-124126201D01*
X127606374Y-124125301D01*
X127612500Y-124125000D01*
X128312500Y-124125000D01*
X128318626Y-124125301D01*
X128318626Y-124125301D01*
G37*
D13*
X127962500Y-124250000D03*
D10*
G36*
X128318626Y-124625301D02*
G01*
X128324693Y-124626201D01*
X128330643Y-124627691D01*
X128336418Y-124629758D01*
X128341962Y-124632380D01*
X128347223Y-124635533D01*
X128352150Y-124639187D01*
X128356694Y-124643306D01*
X128360813Y-124647850D01*
X128364467Y-124652777D01*
X128367620Y-124658038D01*
X128370242Y-124663582D01*
X128372309Y-124669357D01*
X128373799Y-124675307D01*
X128374699Y-124681374D01*
X128375000Y-124687500D01*
X128375000Y-124812500D01*
X128374699Y-124818626D01*
X128373799Y-124824693D01*
X128372309Y-124830643D01*
X128370242Y-124836418D01*
X128367620Y-124841962D01*
X128364467Y-124847223D01*
X128360813Y-124852150D01*
X128356694Y-124856694D01*
X128352150Y-124860813D01*
X128347223Y-124864467D01*
X128341962Y-124867620D01*
X128336418Y-124870242D01*
X128330643Y-124872309D01*
X128324693Y-124873799D01*
X128318626Y-124874699D01*
X128312500Y-124875000D01*
X127612500Y-124875000D01*
X127606374Y-124874699D01*
X127600307Y-124873799D01*
X127594357Y-124872309D01*
X127588582Y-124870242D01*
X127583038Y-124867620D01*
X127577777Y-124864467D01*
X127572850Y-124860813D01*
X127568306Y-124856694D01*
X127564187Y-124852150D01*
X127560533Y-124847223D01*
X127557380Y-124841962D01*
X127554758Y-124836418D01*
X127552691Y-124830643D01*
X127551201Y-124824693D01*
X127550301Y-124818626D01*
X127550000Y-124812500D01*
X127550000Y-124687500D01*
X127550301Y-124681374D01*
X127551201Y-124675307D01*
X127552691Y-124669357D01*
X127554758Y-124663582D01*
X127557380Y-124658038D01*
X127560533Y-124652777D01*
X127564187Y-124647850D01*
X127568306Y-124643306D01*
X127572850Y-124639187D01*
X127577777Y-124635533D01*
X127583038Y-124632380D01*
X127588582Y-124629758D01*
X127594357Y-124627691D01*
X127600307Y-124626201D01*
X127606374Y-124625301D01*
X127612500Y-124625000D01*
X128312500Y-124625000D01*
X128318626Y-124625301D01*
X128318626Y-124625301D01*
G37*
D13*
X127962500Y-124750000D03*
D10*
G36*
X128318626Y-125125301D02*
G01*
X128324693Y-125126201D01*
X128330643Y-125127691D01*
X128336418Y-125129758D01*
X128341962Y-125132380D01*
X128347223Y-125135533D01*
X128352150Y-125139187D01*
X128356694Y-125143306D01*
X128360813Y-125147850D01*
X128364467Y-125152777D01*
X128367620Y-125158038D01*
X128370242Y-125163582D01*
X128372309Y-125169357D01*
X128373799Y-125175307D01*
X128374699Y-125181374D01*
X128375000Y-125187500D01*
X128375000Y-125312500D01*
X128374699Y-125318626D01*
X128373799Y-125324693D01*
X128372309Y-125330643D01*
X128370242Y-125336418D01*
X128367620Y-125341962D01*
X128364467Y-125347223D01*
X128360813Y-125352150D01*
X128356694Y-125356694D01*
X128352150Y-125360813D01*
X128347223Y-125364467D01*
X128341962Y-125367620D01*
X128336418Y-125370242D01*
X128330643Y-125372309D01*
X128324693Y-125373799D01*
X128318626Y-125374699D01*
X128312500Y-125375000D01*
X127612500Y-125375000D01*
X127606374Y-125374699D01*
X127600307Y-125373799D01*
X127594357Y-125372309D01*
X127588582Y-125370242D01*
X127583038Y-125367620D01*
X127577777Y-125364467D01*
X127572850Y-125360813D01*
X127568306Y-125356694D01*
X127564187Y-125352150D01*
X127560533Y-125347223D01*
X127557380Y-125341962D01*
X127554758Y-125336418D01*
X127552691Y-125330643D01*
X127551201Y-125324693D01*
X127550301Y-125318626D01*
X127550000Y-125312500D01*
X127550000Y-125187500D01*
X127550301Y-125181374D01*
X127551201Y-125175307D01*
X127552691Y-125169357D01*
X127554758Y-125163582D01*
X127557380Y-125158038D01*
X127560533Y-125152777D01*
X127564187Y-125147850D01*
X127568306Y-125143306D01*
X127572850Y-125139187D01*
X127577777Y-125135533D01*
X127583038Y-125132380D01*
X127588582Y-125129758D01*
X127594357Y-125127691D01*
X127600307Y-125126201D01*
X127606374Y-125125301D01*
X127612500Y-125125000D01*
X128312500Y-125125000D01*
X128318626Y-125125301D01*
X128318626Y-125125301D01*
G37*
D13*
X127962500Y-125250000D03*
D10*
G36*
X127318626Y-125550301D02*
G01*
X127324693Y-125551201D01*
X127330643Y-125552691D01*
X127336418Y-125554758D01*
X127341962Y-125557380D01*
X127347223Y-125560533D01*
X127352150Y-125564187D01*
X127356694Y-125568306D01*
X127360813Y-125572850D01*
X127364467Y-125577777D01*
X127367620Y-125583038D01*
X127370242Y-125588582D01*
X127372309Y-125594357D01*
X127373799Y-125600307D01*
X127374699Y-125606374D01*
X127375000Y-125612500D01*
X127375000Y-126312500D01*
X127374699Y-126318626D01*
X127373799Y-126324693D01*
X127372309Y-126330643D01*
X127370242Y-126336418D01*
X127367620Y-126341962D01*
X127364467Y-126347223D01*
X127360813Y-126352150D01*
X127356694Y-126356694D01*
X127352150Y-126360813D01*
X127347223Y-126364467D01*
X127341962Y-126367620D01*
X127336418Y-126370242D01*
X127330643Y-126372309D01*
X127324693Y-126373799D01*
X127318626Y-126374699D01*
X127312500Y-126375000D01*
X127187500Y-126375000D01*
X127181374Y-126374699D01*
X127175307Y-126373799D01*
X127169357Y-126372309D01*
X127163582Y-126370242D01*
X127158038Y-126367620D01*
X127152777Y-126364467D01*
X127147850Y-126360813D01*
X127143306Y-126356694D01*
X127139187Y-126352150D01*
X127135533Y-126347223D01*
X127132380Y-126341962D01*
X127129758Y-126336418D01*
X127127691Y-126330643D01*
X127126201Y-126324693D01*
X127125301Y-126318626D01*
X127125000Y-126312500D01*
X127125000Y-125612500D01*
X127125301Y-125606374D01*
X127126201Y-125600307D01*
X127127691Y-125594357D01*
X127129758Y-125588582D01*
X127132380Y-125583038D01*
X127135533Y-125577777D01*
X127139187Y-125572850D01*
X127143306Y-125568306D01*
X127147850Y-125564187D01*
X127152777Y-125560533D01*
X127158038Y-125557380D01*
X127163582Y-125554758D01*
X127169357Y-125552691D01*
X127175307Y-125551201D01*
X127181374Y-125550301D01*
X127187500Y-125550000D01*
X127312500Y-125550000D01*
X127318626Y-125550301D01*
X127318626Y-125550301D01*
G37*
D13*
X127250000Y-125962500D03*
D10*
G36*
X126818626Y-125550301D02*
G01*
X126824693Y-125551201D01*
X126830643Y-125552691D01*
X126836418Y-125554758D01*
X126841962Y-125557380D01*
X126847223Y-125560533D01*
X126852150Y-125564187D01*
X126856694Y-125568306D01*
X126860813Y-125572850D01*
X126864467Y-125577777D01*
X126867620Y-125583038D01*
X126870242Y-125588582D01*
X126872309Y-125594357D01*
X126873799Y-125600307D01*
X126874699Y-125606374D01*
X126875000Y-125612500D01*
X126875000Y-126312500D01*
X126874699Y-126318626D01*
X126873799Y-126324693D01*
X126872309Y-126330643D01*
X126870242Y-126336418D01*
X126867620Y-126341962D01*
X126864467Y-126347223D01*
X126860813Y-126352150D01*
X126856694Y-126356694D01*
X126852150Y-126360813D01*
X126847223Y-126364467D01*
X126841962Y-126367620D01*
X126836418Y-126370242D01*
X126830643Y-126372309D01*
X126824693Y-126373799D01*
X126818626Y-126374699D01*
X126812500Y-126375000D01*
X126687500Y-126375000D01*
X126681374Y-126374699D01*
X126675307Y-126373799D01*
X126669357Y-126372309D01*
X126663582Y-126370242D01*
X126658038Y-126367620D01*
X126652777Y-126364467D01*
X126647850Y-126360813D01*
X126643306Y-126356694D01*
X126639187Y-126352150D01*
X126635533Y-126347223D01*
X126632380Y-126341962D01*
X126629758Y-126336418D01*
X126627691Y-126330643D01*
X126626201Y-126324693D01*
X126625301Y-126318626D01*
X126625000Y-126312500D01*
X126625000Y-125612500D01*
X126625301Y-125606374D01*
X126626201Y-125600307D01*
X126627691Y-125594357D01*
X126629758Y-125588582D01*
X126632380Y-125583038D01*
X126635533Y-125577777D01*
X126639187Y-125572850D01*
X126643306Y-125568306D01*
X126647850Y-125564187D01*
X126652777Y-125560533D01*
X126658038Y-125557380D01*
X126663582Y-125554758D01*
X126669357Y-125552691D01*
X126675307Y-125551201D01*
X126681374Y-125550301D01*
X126687500Y-125550000D01*
X126812500Y-125550000D01*
X126818626Y-125550301D01*
X126818626Y-125550301D01*
G37*
D13*
X126750000Y-125962500D03*
D10*
G36*
X126318626Y-125550301D02*
G01*
X126324693Y-125551201D01*
X126330643Y-125552691D01*
X126336418Y-125554758D01*
X126341962Y-125557380D01*
X126347223Y-125560533D01*
X126352150Y-125564187D01*
X126356694Y-125568306D01*
X126360813Y-125572850D01*
X126364467Y-125577777D01*
X126367620Y-125583038D01*
X126370242Y-125588582D01*
X126372309Y-125594357D01*
X126373799Y-125600307D01*
X126374699Y-125606374D01*
X126375000Y-125612500D01*
X126375000Y-126312500D01*
X126374699Y-126318626D01*
X126373799Y-126324693D01*
X126372309Y-126330643D01*
X126370242Y-126336418D01*
X126367620Y-126341962D01*
X126364467Y-126347223D01*
X126360813Y-126352150D01*
X126356694Y-126356694D01*
X126352150Y-126360813D01*
X126347223Y-126364467D01*
X126341962Y-126367620D01*
X126336418Y-126370242D01*
X126330643Y-126372309D01*
X126324693Y-126373799D01*
X126318626Y-126374699D01*
X126312500Y-126375000D01*
X126187500Y-126375000D01*
X126181374Y-126374699D01*
X126175307Y-126373799D01*
X126169357Y-126372309D01*
X126163582Y-126370242D01*
X126158038Y-126367620D01*
X126152777Y-126364467D01*
X126147850Y-126360813D01*
X126143306Y-126356694D01*
X126139187Y-126352150D01*
X126135533Y-126347223D01*
X126132380Y-126341962D01*
X126129758Y-126336418D01*
X126127691Y-126330643D01*
X126126201Y-126324693D01*
X126125301Y-126318626D01*
X126125000Y-126312500D01*
X126125000Y-125612500D01*
X126125301Y-125606374D01*
X126126201Y-125600307D01*
X126127691Y-125594357D01*
X126129758Y-125588582D01*
X126132380Y-125583038D01*
X126135533Y-125577777D01*
X126139187Y-125572850D01*
X126143306Y-125568306D01*
X126147850Y-125564187D01*
X126152777Y-125560533D01*
X126158038Y-125557380D01*
X126163582Y-125554758D01*
X126169357Y-125552691D01*
X126175307Y-125551201D01*
X126181374Y-125550301D01*
X126187500Y-125550000D01*
X126312500Y-125550000D01*
X126318626Y-125550301D01*
X126318626Y-125550301D01*
G37*
D13*
X126250000Y-125962500D03*
D10*
G36*
X125818626Y-125550301D02*
G01*
X125824693Y-125551201D01*
X125830643Y-125552691D01*
X125836418Y-125554758D01*
X125841962Y-125557380D01*
X125847223Y-125560533D01*
X125852150Y-125564187D01*
X125856694Y-125568306D01*
X125860813Y-125572850D01*
X125864467Y-125577777D01*
X125867620Y-125583038D01*
X125870242Y-125588582D01*
X125872309Y-125594357D01*
X125873799Y-125600307D01*
X125874699Y-125606374D01*
X125875000Y-125612500D01*
X125875000Y-126312500D01*
X125874699Y-126318626D01*
X125873799Y-126324693D01*
X125872309Y-126330643D01*
X125870242Y-126336418D01*
X125867620Y-126341962D01*
X125864467Y-126347223D01*
X125860813Y-126352150D01*
X125856694Y-126356694D01*
X125852150Y-126360813D01*
X125847223Y-126364467D01*
X125841962Y-126367620D01*
X125836418Y-126370242D01*
X125830643Y-126372309D01*
X125824693Y-126373799D01*
X125818626Y-126374699D01*
X125812500Y-126375000D01*
X125687500Y-126375000D01*
X125681374Y-126374699D01*
X125675307Y-126373799D01*
X125669357Y-126372309D01*
X125663582Y-126370242D01*
X125658038Y-126367620D01*
X125652777Y-126364467D01*
X125647850Y-126360813D01*
X125643306Y-126356694D01*
X125639187Y-126352150D01*
X125635533Y-126347223D01*
X125632380Y-126341962D01*
X125629758Y-126336418D01*
X125627691Y-126330643D01*
X125626201Y-126324693D01*
X125625301Y-126318626D01*
X125625000Y-126312500D01*
X125625000Y-125612500D01*
X125625301Y-125606374D01*
X125626201Y-125600307D01*
X125627691Y-125594357D01*
X125629758Y-125588582D01*
X125632380Y-125583038D01*
X125635533Y-125577777D01*
X125639187Y-125572850D01*
X125643306Y-125568306D01*
X125647850Y-125564187D01*
X125652777Y-125560533D01*
X125658038Y-125557380D01*
X125663582Y-125554758D01*
X125669357Y-125552691D01*
X125675307Y-125551201D01*
X125681374Y-125550301D01*
X125687500Y-125550000D01*
X125812500Y-125550000D01*
X125818626Y-125550301D01*
X125818626Y-125550301D01*
G37*
D13*
X125750000Y-125962500D03*
D10*
G36*
X125318626Y-125550301D02*
G01*
X125324693Y-125551201D01*
X125330643Y-125552691D01*
X125336418Y-125554758D01*
X125341962Y-125557380D01*
X125347223Y-125560533D01*
X125352150Y-125564187D01*
X125356694Y-125568306D01*
X125360813Y-125572850D01*
X125364467Y-125577777D01*
X125367620Y-125583038D01*
X125370242Y-125588582D01*
X125372309Y-125594357D01*
X125373799Y-125600307D01*
X125374699Y-125606374D01*
X125375000Y-125612500D01*
X125375000Y-126312500D01*
X125374699Y-126318626D01*
X125373799Y-126324693D01*
X125372309Y-126330643D01*
X125370242Y-126336418D01*
X125367620Y-126341962D01*
X125364467Y-126347223D01*
X125360813Y-126352150D01*
X125356694Y-126356694D01*
X125352150Y-126360813D01*
X125347223Y-126364467D01*
X125341962Y-126367620D01*
X125336418Y-126370242D01*
X125330643Y-126372309D01*
X125324693Y-126373799D01*
X125318626Y-126374699D01*
X125312500Y-126375000D01*
X125187500Y-126375000D01*
X125181374Y-126374699D01*
X125175307Y-126373799D01*
X125169357Y-126372309D01*
X125163582Y-126370242D01*
X125158038Y-126367620D01*
X125152777Y-126364467D01*
X125147850Y-126360813D01*
X125143306Y-126356694D01*
X125139187Y-126352150D01*
X125135533Y-126347223D01*
X125132380Y-126341962D01*
X125129758Y-126336418D01*
X125127691Y-126330643D01*
X125126201Y-126324693D01*
X125125301Y-126318626D01*
X125125000Y-126312500D01*
X125125000Y-125612500D01*
X125125301Y-125606374D01*
X125126201Y-125600307D01*
X125127691Y-125594357D01*
X125129758Y-125588582D01*
X125132380Y-125583038D01*
X125135533Y-125577777D01*
X125139187Y-125572850D01*
X125143306Y-125568306D01*
X125147850Y-125564187D01*
X125152777Y-125560533D01*
X125158038Y-125557380D01*
X125163582Y-125554758D01*
X125169357Y-125552691D01*
X125175307Y-125551201D01*
X125181374Y-125550301D01*
X125187500Y-125550000D01*
X125312500Y-125550000D01*
X125318626Y-125550301D01*
X125318626Y-125550301D01*
G37*
D13*
X125250000Y-125962500D03*
D10*
G36*
X124818626Y-125550301D02*
G01*
X124824693Y-125551201D01*
X124830643Y-125552691D01*
X124836418Y-125554758D01*
X124841962Y-125557380D01*
X124847223Y-125560533D01*
X124852150Y-125564187D01*
X124856694Y-125568306D01*
X124860813Y-125572850D01*
X124864467Y-125577777D01*
X124867620Y-125583038D01*
X124870242Y-125588582D01*
X124872309Y-125594357D01*
X124873799Y-125600307D01*
X124874699Y-125606374D01*
X124875000Y-125612500D01*
X124875000Y-126312500D01*
X124874699Y-126318626D01*
X124873799Y-126324693D01*
X124872309Y-126330643D01*
X124870242Y-126336418D01*
X124867620Y-126341962D01*
X124864467Y-126347223D01*
X124860813Y-126352150D01*
X124856694Y-126356694D01*
X124852150Y-126360813D01*
X124847223Y-126364467D01*
X124841962Y-126367620D01*
X124836418Y-126370242D01*
X124830643Y-126372309D01*
X124824693Y-126373799D01*
X124818626Y-126374699D01*
X124812500Y-126375000D01*
X124687500Y-126375000D01*
X124681374Y-126374699D01*
X124675307Y-126373799D01*
X124669357Y-126372309D01*
X124663582Y-126370242D01*
X124658038Y-126367620D01*
X124652777Y-126364467D01*
X124647850Y-126360813D01*
X124643306Y-126356694D01*
X124639187Y-126352150D01*
X124635533Y-126347223D01*
X124632380Y-126341962D01*
X124629758Y-126336418D01*
X124627691Y-126330643D01*
X124626201Y-126324693D01*
X124625301Y-126318626D01*
X124625000Y-126312500D01*
X124625000Y-125612500D01*
X124625301Y-125606374D01*
X124626201Y-125600307D01*
X124627691Y-125594357D01*
X124629758Y-125588582D01*
X124632380Y-125583038D01*
X124635533Y-125577777D01*
X124639187Y-125572850D01*
X124643306Y-125568306D01*
X124647850Y-125564187D01*
X124652777Y-125560533D01*
X124658038Y-125557380D01*
X124663582Y-125554758D01*
X124669357Y-125552691D01*
X124675307Y-125551201D01*
X124681374Y-125550301D01*
X124687500Y-125550000D01*
X124812500Y-125550000D01*
X124818626Y-125550301D01*
X124818626Y-125550301D01*
G37*
D13*
X124750000Y-125962500D03*
D10*
G36*
X124393626Y-125125301D02*
G01*
X124399693Y-125126201D01*
X124405643Y-125127691D01*
X124411418Y-125129758D01*
X124416962Y-125132380D01*
X124422223Y-125135533D01*
X124427150Y-125139187D01*
X124431694Y-125143306D01*
X124435813Y-125147850D01*
X124439467Y-125152777D01*
X124442620Y-125158038D01*
X124445242Y-125163582D01*
X124447309Y-125169357D01*
X124448799Y-125175307D01*
X124449699Y-125181374D01*
X124450000Y-125187500D01*
X124450000Y-125312500D01*
X124449699Y-125318626D01*
X124448799Y-125324693D01*
X124447309Y-125330643D01*
X124445242Y-125336418D01*
X124442620Y-125341962D01*
X124439467Y-125347223D01*
X124435813Y-125352150D01*
X124431694Y-125356694D01*
X124427150Y-125360813D01*
X124422223Y-125364467D01*
X124416962Y-125367620D01*
X124411418Y-125370242D01*
X124405643Y-125372309D01*
X124399693Y-125373799D01*
X124393626Y-125374699D01*
X124387500Y-125375000D01*
X123687500Y-125375000D01*
X123681374Y-125374699D01*
X123675307Y-125373799D01*
X123669357Y-125372309D01*
X123663582Y-125370242D01*
X123658038Y-125367620D01*
X123652777Y-125364467D01*
X123647850Y-125360813D01*
X123643306Y-125356694D01*
X123639187Y-125352150D01*
X123635533Y-125347223D01*
X123632380Y-125341962D01*
X123629758Y-125336418D01*
X123627691Y-125330643D01*
X123626201Y-125324693D01*
X123625301Y-125318626D01*
X123625000Y-125312500D01*
X123625000Y-125187500D01*
X123625301Y-125181374D01*
X123626201Y-125175307D01*
X123627691Y-125169357D01*
X123629758Y-125163582D01*
X123632380Y-125158038D01*
X123635533Y-125152777D01*
X123639187Y-125147850D01*
X123643306Y-125143306D01*
X123647850Y-125139187D01*
X123652777Y-125135533D01*
X123658038Y-125132380D01*
X123663582Y-125129758D01*
X123669357Y-125127691D01*
X123675307Y-125126201D01*
X123681374Y-125125301D01*
X123687500Y-125125000D01*
X124387500Y-125125000D01*
X124393626Y-125125301D01*
X124393626Y-125125301D01*
G37*
D13*
X124037500Y-125250000D03*
D10*
G36*
X124393626Y-124625301D02*
G01*
X124399693Y-124626201D01*
X124405643Y-124627691D01*
X124411418Y-124629758D01*
X124416962Y-124632380D01*
X124422223Y-124635533D01*
X124427150Y-124639187D01*
X124431694Y-124643306D01*
X124435813Y-124647850D01*
X124439467Y-124652777D01*
X124442620Y-124658038D01*
X124445242Y-124663582D01*
X124447309Y-124669357D01*
X124448799Y-124675307D01*
X124449699Y-124681374D01*
X124450000Y-124687500D01*
X124450000Y-124812500D01*
X124449699Y-124818626D01*
X124448799Y-124824693D01*
X124447309Y-124830643D01*
X124445242Y-124836418D01*
X124442620Y-124841962D01*
X124439467Y-124847223D01*
X124435813Y-124852150D01*
X124431694Y-124856694D01*
X124427150Y-124860813D01*
X124422223Y-124864467D01*
X124416962Y-124867620D01*
X124411418Y-124870242D01*
X124405643Y-124872309D01*
X124399693Y-124873799D01*
X124393626Y-124874699D01*
X124387500Y-124875000D01*
X123687500Y-124875000D01*
X123681374Y-124874699D01*
X123675307Y-124873799D01*
X123669357Y-124872309D01*
X123663582Y-124870242D01*
X123658038Y-124867620D01*
X123652777Y-124864467D01*
X123647850Y-124860813D01*
X123643306Y-124856694D01*
X123639187Y-124852150D01*
X123635533Y-124847223D01*
X123632380Y-124841962D01*
X123629758Y-124836418D01*
X123627691Y-124830643D01*
X123626201Y-124824693D01*
X123625301Y-124818626D01*
X123625000Y-124812500D01*
X123625000Y-124687500D01*
X123625301Y-124681374D01*
X123626201Y-124675307D01*
X123627691Y-124669357D01*
X123629758Y-124663582D01*
X123632380Y-124658038D01*
X123635533Y-124652777D01*
X123639187Y-124647850D01*
X123643306Y-124643306D01*
X123647850Y-124639187D01*
X123652777Y-124635533D01*
X123658038Y-124632380D01*
X123663582Y-124629758D01*
X123669357Y-124627691D01*
X123675307Y-124626201D01*
X123681374Y-124625301D01*
X123687500Y-124625000D01*
X124387500Y-124625000D01*
X124393626Y-124625301D01*
X124393626Y-124625301D01*
G37*
D13*
X124037500Y-124750000D03*
D10*
G36*
X124393626Y-124125301D02*
G01*
X124399693Y-124126201D01*
X124405643Y-124127691D01*
X124411418Y-124129758D01*
X124416962Y-124132380D01*
X124422223Y-124135533D01*
X124427150Y-124139187D01*
X124431694Y-124143306D01*
X124435813Y-124147850D01*
X124439467Y-124152777D01*
X124442620Y-124158038D01*
X124445242Y-124163582D01*
X124447309Y-124169357D01*
X124448799Y-124175307D01*
X124449699Y-124181374D01*
X124450000Y-124187500D01*
X124450000Y-124312500D01*
X124449699Y-124318626D01*
X124448799Y-124324693D01*
X124447309Y-124330643D01*
X124445242Y-124336418D01*
X124442620Y-124341962D01*
X124439467Y-124347223D01*
X124435813Y-124352150D01*
X124431694Y-124356694D01*
X124427150Y-124360813D01*
X124422223Y-124364467D01*
X124416962Y-124367620D01*
X124411418Y-124370242D01*
X124405643Y-124372309D01*
X124399693Y-124373799D01*
X124393626Y-124374699D01*
X124387500Y-124375000D01*
X123687500Y-124375000D01*
X123681374Y-124374699D01*
X123675307Y-124373799D01*
X123669357Y-124372309D01*
X123663582Y-124370242D01*
X123658038Y-124367620D01*
X123652777Y-124364467D01*
X123647850Y-124360813D01*
X123643306Y-124356694D01*
X123639187Y-124352150D01*
X123635533Y-124347223D01*
X123632380Y-124341962D01*
X123629758Y-124336418D01*
X123627691Y-124330643D01*
X123626201Y-124324693D01*
X123625301Y-124318626D01*
X123625000Y-124312500D01*
X123625000Y-124187500D01*
X123625301Y-124181374D01*
X123626201Y-124175307D01*
X123627691Y-124169357D01*
X123629758Y-124163582D01*
X123632380Y-124158038D01*
X123635533Y-124152777D01*
X123639187Y-124147850D01*
X123643306Y-124143306D01*
X123647850Y-124139187D01*
X123652777Y-124135533D01*
X123658038Y-124132380D01*
X123663582Y-124129758D01*
X123669357Y-124127691D01*
X123675307Y-124126201D01*
X123681374Y-124125301D01*
X123687500Y-124125000D01*
X124387500Y-124125000D01*
X124393626Y-124125301D01*
X124393626Y-124125301D01*
G37*
D13*
X124037500Y-124250000D03*
D10*
G36*
X124393626Y-123625301D02*
G01*
X124399693Y-123626201D01*
X124405643Y-123627691D01*
X124411418Y-123629758D01*
X124416962Y-123632380D01*
X124422223Y-123635533D01*
X124427150Y-123639187D01*
X124431694Y-123643306D01*
X124435813Y-123647850D01*
X124439467Y-123652777D01*
X124442620Y-123658038D01*
X124445242Y-123663582D01*
X124447309Y-123669357D01*
X124448799Y-123675307D01*
X124449699Y-123681374D01*
X124450000Y-123687500D01*
X124450000Y-123812500D01*
X124449699Y-123818626D01*
X124448799Y-123824693D01*
X124447309Y-123830643D01*
X124445242Y-123836418D01*
X124442620Y-123841962D01*
X124439467Y-123847223D01*
X124435813Y-123852150D01*
X124431694Y-123856694D01*
X124427150Y-123860813D01*
X124422223Y-123864467D01*
X124416962Y-123867620D01*
X124411418Y-123870242D01*
X124405643Y-123872309D01*
X124399693Y-123873799D01*
X124393626Y-123874699D01*
X124387500Y-123875000D01*
X123687500Y-123875000D01*
X123681374Y-123874699D01*
X123675307Y-123873799D01*
X123669357Y-123872309D01*
X123663582Y-123870242D01*
X123658038Y-123867620D01*
X123652777Y-123864467D01*
X123647850Y-123860813D01*
X123643306Y-123856694D01*
X123639187Y-123852150D01*
X123635533Y-123847223D01*
X123632380Y-123841962D01*
X123629758Y-123836418D01*
X123627691Y-123830643D01*
X123626201Y-123824693D01*
X123625301Y-123818626D01*
X123625000Y-123812500D01*
X123625000Y-123687500D01*
X123625301Y-123681374D01*
X123626201Y-123675307D01*
X123627691Y-123669357D01*
X123629758Y-123663582D01*
X123632380Y-123658038D01*
X123635533Y-123652777D01*
X123639187Y-123647850D01*
X123643306Y-123643306D01*
X123647850Y-123639187D01*
X123652777Y-123635533D01*
X123658038Y-123632380D01*
X123663582Y-123629758D01*
X123669357Y-123627691D01*
X123675307Y-123626201D01*
X123681374Y-123625301D01*
X123687500Y-123625000D01*
X124387500Y-123625000D01*
X124393626Y-123625301D01*
X124393626Y-123625301D01*
G37*
D13*
X124037500Y-123750000D03*
D10*
G36*
X124393626Y-123125301D02*
G01*
X124399693Y-123126201D01*
X124405643Y-123127691D01*
X124411418Y-123129758D01*
X124416962Y-123132380D01*
X124422223Y-123135533D01*
X124427150Y-123139187D01*
X124431694Y-123143306D01*
X124435813Y-123147850D01*
X124439467Y-123152777D01*
X124442620Y-123158038D01*
X124445242Y-123163582D01*
X124447309Y-123169357D01*
X124448799Y-123175307D01*
X124449699Y-123181374D01*
X124450000Y-123187500D01*
X124450000Y-123312500D01*
X124449699Y-123318626D01*
X124448799Y-123324693D01*
X124447309Y-123330643D01*
X124445242Y-123336418D01*
X124442620Y-123341962D01*
X124439467Y-123347223D01*
X124435813Y-123352150D01*
X124431694Y-123356694D01*
X124427150Y-123360813D01*
X124422223Y-123364467D01*
X124416962Y-123367620D01*
X124411418Y-123370242D01*
X124405643Y-123372309D01*
X124399693Y-123373799D01*
X124393626Y-123374699D01*
X124387500Y-123375000D01*
X123687500Y-123375000D01*
X123681374Y-123374699D01*
X123675307Y-123373799D01*
X123669357Y-123372309D01*
X123663582Y-123370242D01*
X123658038Y-123367620D01*
X123652777Y-123364467D01*
X123647850Y-123360813D01*
X123643306Y-123356694D01*
X123639187Y-123352150D01*
X123635533Y-123347223D01*
X123632380Y-123341962D01*
X123629758Y-123336418D01*
X123627691Y-123330643D01*
X123626201Y-123324693D01*
X123625301Y-123318626D01*
X123625000Y-123312500D01*
X123625000Y-123187500D01*
X123625301Y-123181374D01*
X123626201Y-123175307D01*
X123627691Y-123169357D01*
X123629758Y-123163582D01*
X123632380Y-123158038D01*
X123635533Y-123152777D01*
X123639187Y-123147850D01*
X123643306Y-123143306D01*
X123647850Y-123139187D01*
X123652777Y-123135533D01*
X123658038Y-123132380D01*
X123663582Y-123129758D01*
X123669357Y-123127691D01*
X123675307Y-123126201D01*
X123681374Y-123125301D01*
X123687500Y-123125000D01*
X124387500Y-123125000D01*
X124393626Y-123125301D01*
X124393626Y-123125301D01*
G37*
D13*
X124037500Y-123250000D03*
D10*
G36*
X124393626Y-122625301D02*
G01*
X124399693Y-122626201D01*
X124405643Y-122627691D01*
X124411418Y-122629758D01*
X124416962Y-122632380D01*
X124422223Y-122635533D01*
X124427150Y-122639187D01*
X124431694Y-122643306D01*
X124435813Y-122647850D01*
X124439467Y-122652777D01*
X124442620Y-122658038D01*
X124445242Y-122663582D01*
X124447309Y-122669357D01*
X124448799Y-122675307D01*
X124449699Y-122681374D01*
X124450000Y-122687500D01*
X124450000Y-122812500D01*
X124449699Y-122818626D01*
X124448799Y-122824693D01*
X124447309Y-122830643D01*
X124445242Y-122836418D01*
X124442620Y-122841962D01*
X124439467Y-122847223D01*
X124435813Y-122852150D01*
X124431694Y-122856694D01*
X124427150Y-122860813D01*
X124422223Y-122864467D01*
X124416962Y-122867620D01*
X124411418Y-122870242D01*
X124405643Y-122872309D01*
X124399693Y-122873799D01*
X124393626Y-122874699D01*
X124387500Y-122875000D01*
X123687500Y-122875000D01*
X123681374Y-122874699D01*
X123675307Y-122873799D01*
X123669357Y-122872309D01*
X123663582Y-122870242D01*
X123658038Y-122867620D01*
X123652777Y-122864467D01*
X123647850Y-122860813D01*
X123643306Y-122856694D01*
X123639187Y-122852150D01*
X123635533Y-122847223D01*
X123632380Y-122841962D01*
X123629758Y-122836418D01*
X123627691Y-122830643D01*
X123626201Y-122824693D01*
X123625301Y-122818626D01*
X123625000Y-122812500D01*
X123625000Y-122687500D01*
X123625301Y-122681374D01*
X123626201Y-122675307D01*
X123627691Y-122669357D01*
X123629758Y-122663582D01*
X123632380Y-122658038D01*
X123635533Y-122652777D01*
X123639187Y-122647850D01*
X123643306Y-122643306D01*
X123647850Y-122639187D01*
X123652777Y-122635533D01*
X123658038Y-122632380D01*
X123663582Y-122629758D01*
X123669357Y-122627691D01*
X123675307Y-122626201D01*
X123681374Y-122625301D01*
X123687500Y-122625000D01*
X124387500Y-122625000D01*
X124393626Y-122625301D01*
X124393626Y-122625301D01*
G37*
D13*
X124037500Y-122750000D03*
D10*
G36*
X124818626Y-121625301D02*
G01*
X124824693Y-121626201D01*
X124830643Y-121627691D01*
X124836418Y-121629758D01*
X124841962Y-121632380D01*
X124847223Y-121635533D01*
X124852150Y-121639187D01*
X124856694Y-121643306D01*
X124860813Y-121647850D01*
X124864467Y-121652777D01*
X124867620Y-121658038D01*
X124870242Y-121663582D01*
X124872309Y-121669357D01*
X124873799Y-121675307D01*
X124874699Y-121681374D01*
X124875000Y-121687500D01*
X124875000Y-122387500D01*
X124874699Y-122393626D01*
X124873799Y-122399693D01*
X124872309Y-122405643D01*
X124870242Y-122411418D01*
X124867620Y-122416962D01*
X124864467Y-122422223D01*
X124860813Y-122427150D01*
X124856694Y-122431694D01*
X124852150Y-122435813D01*
X124847223Y-122439467D01*
X124841962Y-122442620D01*
X124836418Y-122445242D01*
X124830643Y-122447309D01*
X124824693Y-122448799D01*
X124818626Y-122449699D01*
X124812500Y-122450000D01*
X124687500Y-122450000D01*
X124681374Y-122449699D01*
X124675307Y-122448799D01*
X124669357Y-122447309D01*
X124663582Y-122445242D01*
X124658038Y-122442620D01*
X124652777Y-122439467D01*
X124647850Y-122435813D01*
X124643306Y-122431694D01*
X124639187Y-122427150D01*
X124635533Y-122422223D01*
X124632380Y-122416962D01*
X124629758Y-122411418D01*
X124627691Y-122405643D01*
X124626201Y-122399693D01*
X124625301Y-122393626D01*
X124625000Y-122387500D01*
X124625000Y-121687500D01*
X124625301Y-121681374D01*
X124626201Y-121675307D01*
X124627691Y-121669357D01*
X124629758Y-121663582D01*
X124632380Y-121658038D01*
X124635533Y-121652777D01*
X124639187Y-121647850D01*
X124643306Y-121643306D01*
X124647850Y-121639187D01*
X124652777Y-121635533D01*
X124658038Y-121632380D01*
X124663582Y-121629758D01*
X124669357Y-121627691D01*
X124675307Y-121626201D01*
X124681374Y-121625301D01*
X124687500Y-121625000D01*
X124812500Y-121625000D01*
X124818626Y-121625301D01*
X124818626Y-121625301D01*
G37*
D13*
X124750000Y-122037500D03*
D10*
G36*
X125318626Y-121625301D02*
G01*
X125324693Y-121626201D01*
X125330643Y-121627691D01*
X125336418Y-121629758D01*
X125341962Y-121632380D01*
X125347223Y-121635533D01*
X125352150Y-121639187D01*
X125356694Y-121643306D01*
X125360813Y-121647850D01*
X125364467Y-121652777D01*
X125367620Y-121658038D01*
X125370242Y-121663582D01*
X125372309Y-121669357D01*
X125373799Y-121675307D01*
X125374699Y-121681374D01*
X125375000Y-121687500D01*
X125375000Y-122387500D01*
X125374699Y-122393626D01*
X125373799Y-122399693D01*
X125372309Y-122405643D01*
X125370242Y-122411418D01*
X125367620Y-122416962D01*
X125364467Y-122422223D01*
X125360813Y-122427150D01*
X125356694Y-122431694D01*
X125352150Y-122435813D01*
X125347223Y-122439467D01*
X125341962Y-122442620D01*
X125336418Y-122445242D01*
X125330643Y-122447309D01*
X125324693Y-122448799D01*
X125318626Y-122449699D01*
X125312500Y-122450000D01*
X125187500Y-122450000D01*
X125181374Y-122449699D01*
X125175307Y-122448799D01*
X125169357Y-122447309D01*
X125163582Y-122445242D01*
X125158038Y-122442620D01*
X125152777Y-122439467D01*
X125147850Y-122435813D01*
X125143306Y-122431694D01*
X125139187Y-122427150D01*
X125135533Y-122422223D01*
X125132380Y-122416962D01*
X125129758Y-122411418D01*
X125127691Y-122405643D01*
X125126201Y-122399693D01*
X125125301Y-122393626D01*
X125125000Y-122387500D01*
X125125000Y-121687500D01*
X125125301Y-121681374D01*
X125126201Y-121675307D01*
X125127691Y-121669357D01*
X125129758Y-121663582D01*
X125132380Y-121658038D01*
X125135533Y-121652777D01*
X125139187Y-121647850D01*
X125143306Y-121643306D01*
X125147850Y-121639187D01*
X125152777Y-121635533D01*
X125158038Y-121632380D01*
X125163582Y-121629758D01*
X125169357Y-121627691D01*
X125175307Y-121626201D01*
X125181374Y-121625301D01*
X125187500Y-121625000D01*
X125312500Y-121625000D01*
X125318626Y-121625301D01*
X125318626Y-121625301D01*
G37*
D13*
X125250000Y-122037500D03*
D10*
G36*
X125818626Y-121625301D02*
G01*
X125824693Y-121626201D01*
X125830643Y-121627691D01*
X125836418Y-121629758D01*
X125841962Y-121632380D01*
X125847223Y-121635533D01*
X125852150Y-121639187D01*
X125856694Y-121643306D01*
X125860813Y-121647850D01*
X125864467Y-121652777D01*
X125867620Y-121658038D01*
X125870242Y-121663582D01*
X125872309Y-121669357D01*
X125873799Y-121675307D01*
X125874699Y-121681374D01*
X125875000Y-121687500D01*
X125875000Y-122387500D01*
X125874699Y-122393626D01*
X125873799Y-122399693D01*
X125872309Y-122405643D01*
X125870242Y-122411418D01*
X125867620Y-122416962D01*
X125864467Y-122422223D01*
X125860813Y-122427150D01*
X125856694Y-122431694D01*
X125852150Y-122435813D01*
X125847223Y-122439467D01*
X125841962Y-122442620D01*
X125836418Y-122445242D01*
X125830643Y-122447309D01*
X125824693Y-122448799D01*
X125818626Y-122449699D01*
X125812500Y-122450000D01*
X125687500Y-122450000D01*
X125681374Y-122449699D01*
X125675307Y-122448799D01*
X125669357Y-122447309D01*
X125663582Y-122445242D01*
X125658038Y-122442620D01*
X125652777Y-122439467D01*
X125647850Y-122435813D01*
X125643306Y-122431694D01*
X125639187Y-122427150D01*
X125635533Y-122422223D01*
X125632380Y-122416962D01*
X125629758Y-122411418D01*
X125627691Y-122405643D01*
X125626201Y-122399693D01*
X125625301Y-122393626D01*
X125625000Y-122387500D01*
X125625000Y-121687500D01*
X125625301Y-121681374D01*
X125626201Y-121675307D01*
X125627691Y-121669357D01*
X125629758Y-121663582D01*
X125632380Y-121658038D01*
X125635533Y-121652777D01*
X125639187Y-121647850D01*
X125643306Y-121643306D01*
X125647850Y-121639187D01*
X125652777Y-121635533D01*
X125658038Y-121632380D01*
X125663582Y-121629758D01*
X125669357Y-121627691D01*
X125675307Y-121626201D01*
X125681374Y-121625301D01*
X125687500Y-121625000D01*
X125812500Y-121625000D01*
X125818626Y-121625301D01*
X125818626Y-121625301D01*
G37*
D13*
X125750000Y-122037500D03*
D10*
G36*
X126318626Y-121625301D02*
G01*
X126324693Y-121626201D01*
X126330643Y-121627691D01*
X126336418Y-121629758D01*
X126341962Y-121632380D01*
X126347223Y-121635533D01*
X126352150Y-121639187D01*
X126356694Y-121643306D01*
X126360813Y-121647850D01*
X126364467Y-121652777D01*
X126367620Y-121658038D01*
X126370242Y-121663582D01*
X126372309Y-121669357D01*
X126373799Y-121675307D01*
X126374699Y-121681374D01*
X126375000Y-121687500D01*
X126375000Y-122387500D01*
X126374699Y-122393626D01*
X126373799Y-122399693D01*
X126372309Y-122405643D01*
X126370242Y-122411418D01*
X126367620Y-122416962D01*
X126364467Y-122422223D01*
X126360813Y-122427150D01*
X126356694Y-122431694D01*
X126352150Y-122435813D01*
X126347223Y-122439467D01*
X126341962Y-122442620D01*
X126336418Y-122445242D01*
X126330643Y-122447309D01*
X126324693Y-122448799D01*
X126318626Y-122449699D01*
X126312500Y-122450000D01*
X126187500Y-122450000D01*
X126181374Y-122449699D01*
X126175307Y-122448799D01*
X126169357Y-122447309D01*
X126163582Y-122445242D01*
X126158038Y-122442620D01*
X126152777Y-122439467D01*
X126147850Y-122435813D01*
X126143306Y-122431694D01*
X126139187Y-122427150D01*
X126135533Y-122422223D01*
X126132380Y-122416962D01*
X126129758Y-122411418D01*
X126127691Y-122405643D01*
X126126201Y-122399693D01*
X126125301Y-122393626D01*
X126125000Y-122387500D01*
X126125000Y-121687500D01*
X126125301Y-121681374D01*
X126126201Y-121675307D01*
X126127691Y-121669357D01*
X126129758Y-121663582D01*
X126132380Y-121658038D01*
X126135533Y-121652777D01*
X126139187Y-121647850D01*
X126143306Y-121643306D01*
X126147850Y-121639187D01*
X126152777Y-121635533D01*
X126158038Y-121632380D01*
X126163582Y-121629758D01*
X126169357Y-121627691D01*
X126175307Y-121626201D01*
X126181374Y-121625301D01*
X126187500Y-121625000D01*
X126312500Y-121625000D01*
X126318626Y-121625301D01*
X126318626Y-121625301D01*
G37*
D13*
X126250000Y-122037500D03*
D10*
G36*
X126818626Y-121625301D02*
G01*
X126824693Y-121626201D01*
X126830643Y-121627691D01*
X126836418Y-121629758D01*
X126841962Y-121632380D01*
X126847223Y-121635533D01*
X126852150Y-121639187D01*
X126856694Y-121643306D01*
X126860813Y-121647850D01*
X126864467Y-121652777D01*
X126867620Y-121658038D01*
X126870242Y-121663582D01*
X126872309Y-121669357D01*
X126873799Y-121675307D01*
X126874699Y-121681374D01*
X126875000Y-121687500D01*
X126875000Y-122387500D01*
X126874699Y-122393626D01*
X126873799Y-122399693D01*
X126872309Y-122405643D01*
X126870242Y-122411418D01*
X126867620Y-122416962D01*
X126864467Y-122422223D01*
X126860813Y-122427150D01*
X126856694Y-122431694D01*
X126852150Y-122435813D01*
X126847223Y-122439467D01*
X126841962Y-122442620D01*
X126836418Y-122445242D01*
X126830643Y-122447309D01*
X126824693Y-122448799D01*
X126818626Y-122449699D01*
X126812500Y-122450000D01*
X126687500Y-122450000D01*
X126681374Y-122449699D01*
X126675307Y-122448799D01*
X126669357Y-122447309D01*
X126663582Y-122445242D01*
X126658038Y-122442620D01*
X126652777Y-122439467D01*
X126647850Y-122435813D01*
X126643306Y-122431694D01*
X126639187Y-122427150D01*
X126635533Y-122422223D01*
X126632380Y-122416962D01*
X126629758Y-122411418D01*
X126627691Y-122405643D01*
X126626201Y-122399693D01*
X126625301Y-122393626D01*
X126625000Y-122387500D01*
X126625000Y-121687500D01*
X126625301Y-121681374D01*
X126626201Y-121675307D01*
X126627691Y-121669357D01*
X126629758Y-121663582D01*
X126632380Y-121658038D01*
X126635533Y-121652777D01*
X126639187Y-121647850D01*
X126643306Y-121643306D01*
X126647850Y-121639187D01*
X126652777Y-121635533D01*
X126658038Y-121632380D01*
X126663582Y-121629758D01*
X126669357Y-121627691D01*
X126675307Y-121626201D01*
X126681374Y-121625301D01*
X126687500Y-121625000D01*
X126812500Y-121625000D01*
X126818626Y-121625301D01*
X126818626Y-121625301D01*
G37*
D13*
X126750000Y-122037500D03*
D10*
G36*
X127318626Y-121625301D02*
G01*
X127324693Y-121626201D01*
X127330643Y-121627691D01*
X127336418Y-121629758D01*
X127341962Y-121632380D01*
X127347223Y-121635533D01*
X127352150Y-121639187D01*
X127356694Y-121643306D01*
X127360813Y-121647850D01*
X127364467Y-121652777D01*
X127367620Y-121658038D01*
X127370242Y-121663582D01*
X127372309Y-121669357D01*
X127373799Y-121675307D01*
X127374699Y-121681374D01*
X127375000Y-121687500D01*
X127375000Y-122387500D01*
X127374699Y-122393626D01*
X127373799Y-122399693D01*
X127372309Y-122405643D01*
X127370242Y-122411418D01*
X127367620Y-122416962D01*
X127364467Y-122422223D01*
X127360813Y-122427150D01*
X127356694Y-122431694D01*
X127352150Y-122435813D01*
X127347223Y-122439467D01*
X127341962Y-122442620D01*
X127336418Y-122445242D01*
X127330643Y-122447309D01*
X127324693Y-122448799D01*
X127318626Y-122449699D01*
X127312500Y-122450000D01*
X127187500Y-122450000D01*
X127181374Y-122449699D01*
X127175307Y-122448799D01*
X127169357Y-122447309D01*
X127163582Y-122445242D01*
X127158038Y-122442620D01*
X127152777Y-122439467D01*
X127147850Y-122435813D01*
X127143306Y-122431694D01*
X127139187Y-122427150D01*
X127135533Y-122422223D01*
X127132380Y-122416962D01*
X127129758Y-122411418D01*
X127127691Y-122405643D01*
X127126201Y-122399693D01*
X127125301Y-122393626D01*
X127125000Y-122387500D01*
X127125000Y-121687500D01*
X127125301Y-121681374D01*
X127126201Y-121675307D01*
X127127691Y-121669357D01*
X127129758Y-121663582D01*
X127132380Y-121658038D01*
X127135533Y-121652777D01*
X127139187Y-121647850D01*
X127143306Y-121643306D01*
X127147850Y-121639187D01*
X127152777Y-121635533D01*
X127158038Y-121632380D01*
X127163582Y-121629758D01*
X127169357Y-121627691D01*
X127175307Y-121626201D01*
X127181374Y-121625301D01*
X127187500Y-121625000D01*
X127312500Y-121625000D01*
X127318626Y-121625301D01*
X127318626Y-121625301D01*
G37*
D13*
X127250000Y-122037500D03*
D10*
G36*
X125644504Y-124131204D02*
G01*
X125668773Y-124134804D01*
X125692571Y-124140765D01*
X125715671Y-124149030D01*
X125737849Y-124159520D01*
X125758893Y-124172133D01*
X125778598Y-124186747D01*
X125796777Y-124203223D01*
X125813253Y-124221402D01*
X125827867Y-124241107D01*
X125840480Y-124262151D01*
X125850970Y-124284329D01*
X125859235Y-124307429D01*
X125865196Y-124331227D01*
X125868796Y-124355496D01*
X125870000Y-124380000D01*
X125870000Y-124970000D01*
X125868796Y-124994504D01*
X125865196Y-125018773D01*
X125859235Y-125042571D01*
X125850970Y-125065671D01*
X125840480Y-125087849D01*
X125827867Y-125108893D01*
X125813253Y-125128598D01*
X125796777Y-125146777D01*
X125778598Y-125163253D01*
X125758893Y-125177867D01*
X125737849Y-125190480D01*
X125715671Y-125200970D01*
X125692571Y-125209235D01*
X125668773Y-125215196D01*
X125644504Y-125218796D01*
X125620000Y-125220000D01*
X125030000Y-125220000D01*
X125005496Y-125218796D01*
X124981227Y-125215196D01*
X124957429Y-125209235D01*
X124934329Y-125200970D01*
X124912151Y-125190480D01*
X124891107Y-125177867D01*
X124871402Y-125163253D01*
X124853223Y-125146777D01*
X124836747Y-125128598D01*
X124822133Y-125108893D01*
X124809520Y-125087849D01*
X124799030Y-125065671D01*
X124790765Y-125042571D01*
X124784804Y-125018773D01*
X124781204Y-124994504D01*
X124780000Y-124970000D01*
X124780000Y-124380000D01*
X124781204Y-124355496D01*
X124784804Y-124331227D01*
X124790765Y-124307429D01*
X124799030Y-124284329D01*
X124809520Y-124262151D01*
X124822133Y-124241107D01*
X124836747Y-124221402D01*
X124853223Y-124203223D01*
X124871402Y-124186747D01*
X124891107Y-124172133D01*
X124912151Y-124159520D01*
X124934329Y-124149030D01*
X124957429Y-124140765D01*
X124981227Y-124134804D01*
X125005496Y-124131204D01*
X125030000Y-124130000D01*
X125620000Y-124130000D01*
X125644504Y-124131204D01*
X125644504Y-124131204D01*
G37*
D14*
X125325000Y-124675000D03*
D10*
G36*
X126994504Y-124131204D02*
G01*
X127018773Y-124134804D01*
X127042571Y-124140765D01*
X127065671Y-124149030D01*
X127087849Y-124159520D01*
X127108893Y-124172133D01*
X127128598Y-124186747D01*
X127146777Y-124203223D01*
X127163253Y-124221402D01*
X127177867Y-124241107D01*
X127190480Y-124262151D01*
X127200970Y-124284329D01*
X127209235Y-124307429D01*
X127215196Y-124331227D01*
X127218796Y-124355496D01*
X127220000Y-124380000D01*
X127220000Y-124970000D01*
X127218796Y-124994504D01*
X127215196Y-125018773D01*
X127209235Y-125042571D01*
X127200970Y-125065671D01*
X127190480Y-125087849D01*
X127177867Y-125108893D01*
X127163253Y-125128598D01*
X127146777Y-125146777D01*
X127128598Y-125163253D01*
X127108893Y-125177867D01*
X127087849Y-125190480D01*
X127065671Y-125200970D01*
X127042571Y-125209235D01*
X127018773Y-125215196D01*
X126994504Y-125218796D01*
X126970000Y-125220000D01*
X126380000Y-125220000D01*
X126355496Y-125218796D01*
X126331227Y-125215196D01*
X126307429Y-125209235D01*
X126284329Y-125200970D01*
X126262151Y-125190480D01*
X126241107Y-125177867D01*
X126221402Y-125163253D01*
X126203223Y-125146777D01*
X126186747Y-125128598D01*
X126172133Y-125108893D01*
X126159520Y-125087849D01*
X126149030Y-125065671D01*
X126140765Y-125042571D01*
X126134804Y-125018773D01*
X126131204Y-124994504D01*
X126130000Y-124970000D01*
X126130000Y-124380000D01*
X126131204Y-124355496D01*
X126134804Y-124331227D01*
X126140765Y-124307429D01*
X126149030Y-124284329D01*
X126159520Y-124262151D01*
X126172133Y-124241107D01*
X126186747Y-124221402D01*
X126203223Y-124203223D01*
X126221402Y-124186747D01*
X126241107Y-124172133D01*
X126262151Y-124159520D01*
X126284329Y-124149030D01*
X126307429Y-124140765D01*
X126331227Y-124134804D01*
X126355496Y-124131204D01*
X126380000Y-124130000D01*
X126970000Y-124130000D01*
X126994504Y-124131204D01*
X126994504Y-124131204D01*
G37*
D14*
X126675000Y-124675000D03*
D10*
G36*
X125644504Y-122781204D02*
G01*
X125668773Y-122784804D01*
X125692571Y-122790765D01*
X125715671Y-122799030D01*
X125737849Y-122809520D01*
X125758893Y-122822133D01*
X125778598Y-122836747D01*
X125796777Y-122853223D01*
X125813253Y-122871402D01*
X125827867Y-122891107D01*
X125840480Y-122912151D01*
X125850970Y-122934329D01*
X125859235Y-122957429D01*
X125865196Y-122981227D01*
X125868796Y-123005496D01*
X125870000Y-123030000D01*
X125870000Y-123620000D01*
X125868796Y-123644504D01*
X125865196Y-123668773D01*
X125859235Y-123692571D01*
X125850970Y-123715671D01*
X125840480Y-123737849D01*
X125827867Y-123758893D01*
X125813253Y-123778598D01*
X125796777Y-123796777D01*
X125778598Y-123813253D01*
X125758893Y-123827867D01*
X125737849Y-123840480D01*
X125715671Y-123850970D01*
X125692571Y-123859235D01*
X125668773Y-123865196D01*
X125644504Y-123868796D01*
X125620000Y-123870000D01*
X125030000Y-123870000D01*
X125005496Y-123868796D01*
X124981227Y-123865196D01*
X124957429Y-123859235D01*
X124934329Y-123850970D01*
X124912151Y-123840480D01*
X124891107Y-123827867D01*
X124871402Y-123813253D01*
X124853223Y-123796777D01*
X124836747Y-123778598D01*
X124822133Y-123758893D01*
X124809520Y-123737849D01*
X124799030Y-123715671D01*
X124790765Y-123692571D01*
X124784804Y-123668773D01*
X124781204Y-123644504D01*
X124780000Y-123620000D01*
X124780000Y-123030000D01*
X124781204Y-123005496D01*
X124784804Y-122981227D01*
X124790765Y-122957429D01*
X124799030Y-122934329D01*
X124809520Y-122912151D01*
X124822133Y-122891107D01*
X124836747Y-122871402D01*
X124853223Y-122853223D01*
X124871402Y-122836747D01*
X124891107Y-122822133D01*
X124912151Y-122809520D01*
X124934329Y-122799030D01*
X124957429Y-122790765D01*
X124981227Y-122784804D01*
X125005496Y-122781204D01*
X125030000Y-122780000D01*
X125620000Y-122780000D01*
X125644504Y-122781204D01*
X125644504Y-122781204D01*
G37*
D14*
X125325000Y-123325000D03*
D10*
G36*
X126994504Y-122781204D02*
G01*
X127018773Y-122784804D01*
X127042571Y-122790765D01*
X127065671Y-122799030D01*
X127087849Y-122809520D01*
X127108893Y-122822133D01*
X127128598Y-122836747D01*
X127146777Y-122853223D01*
X127163253Y-122871402D01*
X127177867Y-122891107D01*
X127190480Y-122912151D01*
X127200970Y-122934329D01*
X127209235Y-122957429D01*
X127215196Y-122981227D01*
X127218796Y-123005496D01*
X127220000Y-123030000D01*
X127220000Y-123620000D01*
X127218796Y-123644504D01*
X127215196Y-123668773D01*
X127209235Y-123692571D01*
X127200970Y-123715671D01*
X127190480Y-123737849D01*
X127177867Y-123758893D01*
X127163253Y-123778598D01*
X127146777Y-123796777D01*
X127128598Y-123813253D01*
X127108893Y-123827867D01*
X127087849Y-123840480D01*
X127065671Y-123850970D01*
X127042571Y-123859235D01*
X127018773Y-123865196D01*
X126994504Y-123868796D01*
X126970000Y-123870000D01*
X126380000Y-123870000D01*
X126355496Y-123868796D01*
X126331227Y-123865196D01*
X126307429Y-123859235D01*
X126284329Y-123850970D01*
X126262151Y-123840480D01*
X126241107Y-123827867D01*
X126221402Y-123813253D01*
X126203223Y-123796777D01*
X126186747Y-123778598D01*
X126172133Y-123758893D01*
X126159520Y-123737849D01*
X126149030Y-123715671D01*
X126140765Y-123692571D01*
X126134804Y-123668773D01*
X126131204Y-123644504D01*
X126130000Y-123620000D01*
X126130000Y-123030000D01*
X126131204Y-123005496D01*
X126134804Y-122981227D01*
X126140765Y-122957429D01*
X126149030Y-122934329D01*
X126159520Y-122912151D01*
X126172133Y-122891107D01*
X126186747Y-122871402D01*
X126203223Y-122853223D01*
X126221402Y-122836747D01*
X126241107Y-122822133D01*
X126262151Y-122809520D01*
X126284329Y-122799030D01*
X126307429Y-122790765D01*
X126331227Y-122784804D01*
X126355496Y-122781204D01*
X126380000Y-122780000D01*
X126970000Y-122780000D01*
X126994504Y-122781204D01*
X126994504Y-122781204D01*
G37*
D14*
X126675000Y-123325000D03*
D15*
X116660000Y-120590000D03*
X122060000Y-120590000D03*
D10*
G36*
X130330142Y-127901174D02*
G01*
X130353803Y-127904684D01*
X130377007Y-127910496D01*
X130399529Y-127918554D01*
X130421153Y-127928782D01*
X130441670Y-127941079D01*
X130460883Y-127955329D01*
X130478607Y-127971393D01*
X130494671Y-127989117D01*
X130508921Y-128008330D01*
X130521218Y-128028847D01*
X130531446Y-128050471D01*
X130539504Y-128072993D01*
X130545316Y-128096197D01*
X130548826Y-128119858D01*
X130550000Y-128143750D01*
X130550000Y-129056250D01*
X130548826Y-129080142D01*
X130545316Y-129103803D01*
X130539504Y-129127007D01*
X130531446Y-129149529D01*
X130521218Y-129171153D01*
X130508921Y-129191670D01*
X130494671Y-129210883D01*
X130478607Y-129228607D01*
X130460883Y-129244671D01*
X130441670Y-129258921D01*
X130421153Y-129271218D01*
X130399529Y-129281446D01*
X130377007Y-129289504D01*
X130353803Y-129295316D01*
X130330142Y-129298826D01*
X130306250Y-129300000D01*
X129818750Y-129300000D01*
X129794858Y-129298826D01*
X129771197Y-129295316D01*
X129747993Y-129289504D01*
X129725471Y-129281446D01*
X129703847Y-129271218D01*
X129683330Y-129258921D01*
X129664117Y-129244671D01*
X129646393Y-129228607D01*
X129630329Y-129210883D01*
X129616079Y-129191670D01*
X129603782Y-129171153D01*
X129593554Y-129149529D01*
X129585496Y-129127007D01*
X129579684Y-129103803D01*
X129576174Y-129080142D01*
X129575000Y-129056250D01*
X129575000Y-128143750D01*
X129576174Y-128119858D01*
X129579684Y-128096197D01*
X129585496Y-128072993D01*
X129593554Y-128050471D01*
X129603782Y-128028847D01*
X129616079Y-128008330D01*
X129630329Y-127989117D01*
X129646393Y-127971393D01*
X129664117Y-127955329D01*
X129683330Y-127941079D01*
X129703847Y-127928782D01*
X129725471Y-127918554D01*
X129747993Y-127910496D01*
X129771197Y-127904684D01*
X129794858Y-127901174D01*
X129818750Y-127900000D01*
X130306250Y-127900000D01*
X130330142Y-127901174D01*
X130330142Y-127901174D01*
G37*
D16*
X130062500Y-128600000D03*
D10*
G36*
X132205142Y-127901174D02*
G01*
X132228803Y-127904684D01*
X132252007Y-127910496D01*
X132274529Y-127918554D01*
X132296153Y-127928782D01*
X132316670Y-127941079D01*
X132335883Y-127955329D01*
X132353607Y-127971393D01*
X132369671Y-127989117D01*
X132383921Y-128008330D01*
X132396218Y-128028847D01*
X132406446Y-128050471D01*
X132414504Y-128072993D01*
X132420316Y-128096197D01*
X132423826Y-128119858D01*
X132425000Y-128143750D01*
X132425000Y-129056250D01*
X132423826Y-129080142D01*
X132420316Y-129103803D01*
X132414504Y-129127007D01*
X132406446Y-129149529D01*
X132396218Y-129171153D01*
X132383921Y-129191670D01*
X132369671Y-129210883D01*
X132353607Y-129228607D01*
X132335883Y-129244671D01*
X132316670Y-129258921D01*
X132296153Y-129271218D01*
X132274529Y-129281446D01*
X132252007Y-129289504D01*
X132228803Y-129295316D01*
X132205142Y-129298826D01*
X132181250Y-129300000D01*
X131693750Y-129300000D01*
X131669858Y-129298826D01*
X131646197Y-129295316D01*
X131622993Y-129289504D01*
X131600471Y-129281446D01*
X131578847Y-129271218D01*
X131558330Y-129258921D01*
X131539117Y-129244671D01*
X131521393Y-129228607D01*
X131505329Y-129210883D01*
X131491079Y-129191670D01*
X131478782Y-129171153D01*
X131468554Y-129149529D01*
X131460496Y-129127007D01*
X131454684Y-129103803D01*
X131451174Y-129080142D01*
X131450000Y-129056250D01*
X131450000Y-128143750D01*
X131451174Y-128119858D01*
X131454684Y-128096197D01*
X131460496Y-128072993D01*
X131468554Y-128050471D01*
X131478782Y-128028847D01*
X131491079Y-128008330D01*
X131505329Y-127989117D01*
X131521393Y-127971393D01*
X131539117Y-127955329D01*
X131558330Y-127941079D01*
X131578847Y-127928782D01*
X131600471Y-127918554D01*
X131622993Y-127910496D01*
X131646197Y-127904684D01*
X131669858Y-127901174D01*
X131693750Y-127900000D01*
X132181250Y-127900000D01*
X132205142Y-127901174D01*
X132205142Y-127901174D01*
G37*
D16*
X131937500Y-128600000D03*
D10*
G36*
X134480142Y-131263674D02*
G01*
X134503803Y-131267184D01*
X134527007Y-131272996D01*
X134549529Y-131281054D01*
X134571153Y-131291282D01*
X134591670Y-131303579D01*
X134610883Y-131317829D01*
X134628607Y-131333893D01*
X134644671Y-131351617D01*
X134658921Y-131370830D01*
X134671218Y-131391347D01*
X134681446Y-131412971D01*
X134689504Y-131435493D01*
X134695316Y-131458697D01*
X134698826Y-131482358D01*
X134700000Y-131506250D01*
X134700000Y-131993750D01*
X134698826Y-132017642D01*
X134695316Y-132041303D01*
X134689504Y-132064507D01*
X134681446Y-132087029D01*
X134671218Y-132108653D01*
X134658921Y-132129170D01*
X134644671Y-132148383D01*
X134628607Y-132166107D01*
X134610883Y-132182171D01*
X134591670Y-132196421D01*
X134571153Y-132208718D01*
X134549529Y-132218946D01*
X134527007Y-132227004D01*
X134503803Y-132232816D01*
X134480142Y-132236326D01*
X134456250Y-132237500D01*
X133543750Y-132237500D01*
X133519858Y-132236326D01*
X133496197Y-132232816D01*
X133472993Y-132227004D01*
X133450471Y-132218946D01*
X133428847Y-132208718D01*
X133408330Y-132196421D01*
X133389117Y-132182171D01*
X133371393Y-132166107D01*
X133355329Y-132148383D01*
X133341079Y-132129170D01*
X133328782Y-132108653D01*
X133318554Y-132087029D01*
X133310496Y-132064507D01*
X133304684Y-132041303D01*
X133301174Y-132017642D01*
X133300000Y-131993750D01*
X133300000Y-131506250D01*
X133301174Y-131482358D01*
X133304684Y-131458697D01*
X133310496Y-131435493D01*
X133318554Y-131412971D01*
X133328782Y-131391347D01*
X133341079Y-131370830D01*
X133355329Y-131351617D01*
X133371393Y-131333893D01*
X133389117Y-131317829D01*
X133408330Y-131303579D01*
X133428847Y-131291282D01*
X133450471Y-131281054D01*
X133472993Y-131272996D01*
X133496197Y-131267184D01*
X133519858Y-131263674D01*
X133543750Y-131262500D01*
X134456250Y-131262500D01*
X134480142Y-131263674D01*
X134480142Y-131263674D01*
G37*
D16*
X134000000Y-131750000D03*
D10*
G36*
X134480142Y-129388674D02*
G01*
X134503803Y-129392184D01*
X134527007Y-129397996D01*
X134549529Y-129406054D01*
X134571153Y-129416282D01*
X134591670Y-129428579D01*
X134610883Y-129442829D01*
X134628607Y-129458893D01*
X134644671Y-129476617D01*
X134658921Y-129495830D01*
X134671218Y-129516347D01*
X134681446Y-129537971D01*
X134689504Y-129560493D01*
X134695316Y-129583697D01*
X134698826Y-129607358D01*
X134700000Y-129631250D01*
X134700000Y-130118750D01*
X134698826Y-130142642D01*
X134695316Y-130166303D01*
X134689504Y-130189507D01*
X134681446Y-130212029D01*
X134671218Y-130233653D01*
X134658921Y-130254170D01*
X134644671Y-130273383D01*
X134628607Y-130291107D01*
X134610883Y-130307171D01*
X134591670Y-130321421D01*
X134571153Y-130333718D01*
X134549529Y-130343946D01*
X134527007Y-130352004D01*
X134503803Y-130357816D01*
X134480142Y-130361326D01*
X134456250Y-130362500D01*
X133543750Y-130362500D01*
X133519858Y-130361326D01*
X133496197Y-130357816D01*
X133472993Y-130352004D01*
X133450471Y-130343946D01*
X133428847Y-130333718D01*
X133408330Y-130321421D01*
X133389117Y-130307171D01*
X133371393Y-130291107D01*
X133355329Y-130273383D01*
X133341079Y-130254170D01*
X133328782Y-130233653D01*
X133318554Y-130212029D01*
X133310496Y-130189507D01*
X133304684Y-130166303D01*
X133301174Y-130142642D01*
X133300000Y-130118750D01*
X133300000Y-129631250D01*
X133301174Y-129607358D01*
X133304684Y-129583697D01*
X133310496Y-129560493D01*
X133318554Y-129537971D01*
X133328782Y-129516347D01*
X133341079Y-129495830D01*
X133355329Y-129476617D01*
X133371393Y-129458893D01*
X133389117Y-129442829D01*
X133408330Y-129428579D01*
X133428847Y-129416282D01*
X133450471Y-129406054D01*
X133472993Y-129397996D01*
X133496197Y-129392184D01*
X133519858Y-129388674D01*
X133543750Y-129387500D01*
X134456250Y-129387500D01*
X134480142Y-129388674D01*
X134480142Y-129388674D01*
G37*
D16*
X134000000Y-129875000D03*
D10*
G36*
X124530142Y-128501174D02*
G01*
X124553803Y-128504684D01*
X124577007Y-128510496D01*
X124599529Y-128518554D01*
X124621153Y-128528782D01*
X124641670Y-128541079D01*
X124660883Y-128555329D01*
X124678607Y-128571393D01*
X124694671Y-128589117D01*
X124708921Y-128608330D01*
X124721218Y-128628847D01*
X124731446Y-128650471D01*
X124739504Y-128672993D01*
X124745316Y-128696197D01*
X124748826Y-128719858D01*
X124750000Y-128743750D01*
X124750000Y-129656250D01*
X124748826Y-129680142D01*
X124745316Y-129703803D01*
X124739504Y-129727007D01*
X124731446Y-129749529D01*
X124721218Y-129771153D01*
X124708921Y-129791670D01*
X124694671Y-129810883D01*
X124678607Y-129828607D01*
X124660883Y-129844671D01*
X124641670Y-129858921D01*
X124621153Y-129871218D01*
X124599529Y-129881446D01*
X124577007Y-129889504D01*
X124553803Y-129895316D01*
X124530142Y-129898826D01*
X124506250Y-129900000D01*
X124018750Y-129900000D01*
X123994858Y-129898826D01*
X123971197Y-129895316D01*
X123947993Y-129889504D01*
X123925471Y-129881446D01*
X123903847Y-129871218D01*
X123883330Y-129858921D01*
X123864117Y-129844671D01*
X123846393Y-129828607D01*
X123830329Y-129810883D01*
X123816079Y-129791670D01*
X123803782Y-129771153D01*
X123793554Y-129749529D01*
X123785496Y-129727007D01*
X123779684Y-129703803D01*
X123776174Y-129680142D01*
X123775000Y-129656250D01*
X123775000Y-128743750D01*
X123776174Y-128719858D01*
X123779684Y-128696197D01*
X123785496Y-128672993D01*
X123793554Y-128650471D01*
X123803782Y-128628847D01*
X123816079Y-128608330D01*
X123830329Y-128589117D01*
X123846393Y-128571393D01*
X123864117Y-128555329D01*
X123883330Y-128541079D01*
X123903847Y-128528782D01*
X123925471Y-128518554D01*
X123947993Y-128510496D01*
X123971197Y-128504684D01*
X123994858Y-128501174D01*
X124018750Y-128500000D01*
X124506250Y-128500000D01*
X124530142Y-128501174D01*
X124530142Y-128501174D01*
G37*
D16*
X124262500Y-129200000D03*
D10*
G36*
X126405142Y-128501174D02*
G01*
X126428803Y-128504684D01*
X126452007Y-128510496D01*
X126474529Y-128518554D01*
X126496153Y-128528782D01*
X126516670Y-128541079D01*
X126535883Y-128555329D01*
X126553607Y-128571393D01*
X126569671Y-128589117D01*
X126583921Y-128608330D01*
X126596218Y-128628847D01*
X126606446Y-128650471D01*
X126614504Y-128672993D01*
X126620316Y-128696197D01*
X126623826Y-128719858D01*
X126625000Y-128743750D01*
X126625000Y-129656250D01*
X126623826Y-129680142D01*
X126620316Y-129703803D01*
X126614504Y-129727007D01*
X126606446Y-129749529D01*
X126596218Y-129771153D01*
X126583921Y-129791670D01*
X126569671Y-129810883D01*
X126553607Y-129828607D01*
X126535883Y-129844671D01*
X126516670Y-129858921D01*
X126496153Y-129871218D01*
X126474529Y-129881446D01*
X126452007Y-129889504D01*
X126428803Y-129895316D01*
X126405142Y-129898826D01*
X126381250Y-129900000D01*
X125893750Y-129900000D01*
X125869858Y-129898826D01*
X125846197Y-129895316D01*
X125822993Y-129889504D01*
X125800471Y-129881446D01*
X125778847Y-129871218D01*
X125758330Y-129858921D01*
X125739117Y-129844671D01*
X125721393Y-129828607D01*
X125705329Y-129810883D01*
X125691079Y-129791670D01*
X125678782Y-129771153D01*
X125668554Y-129749529D01*
X125660496Y-129727007D01*
X125654684Y-129703803D01*
X125651174Y-129680142D01*
X125650000Y-129656250D01*
X125650000Y-128743750D01*
X125651174Y-128719858D01*
X125654684Y-128696197D01*
X125660496Y-128672993D01*
X125668554Y-128650471D01*
X125678782Y-128628847D01*
X125691079Y-128608330D01*
X125705329Y-128589117D01*
X125721393Y-128571393D01*
X125739117Y-128555329D01*
X125758330Y-128541079D01*
X125778847Y-128528782D01*
X125800471Y-128518554D01*
X125822993Y-128510496D01*
X125846197Y-128504684D01*
X125869858Y-128501174D01*
X125893750Y-128500000D01*
X126381250Y-128500000D01*
X126405142Y-128501174D01*
X126405142Y-128501174D01*
G37*
D16*
X126137500Y-129200000D03*
D10*
G36*
X120960142Y-128681174D02*
G01*
X120983803Y-128684684D01*
X121007007Y-128690496D01*
X121029529Y-128698554D01*
X121051153Y-128708782D01*
X121071670Y-128721079D01*
X121090883Y-128735329D01*
X121108607Y-128751393D01*
X121124671Y-128769117D01*
X121138921Y-128788330D01*
X121151218Y-128808847D01*
X121161446Y-128830471D01*
X121169504Y-128852993D01*
X121175316Y-128876197D01*
X121178826Y-128899858D01*
X121180000Y-128923750D01*
X121180000Y-129411250D01*
X121178826Y-129435142D01*
X121175316Y-129458803D01*
X121169504Y-129482007D01*
X121161446Y-129504529D01*
X121151218Y-129526153D01*
X121138921Y-129546670D01*
X121124671Y-129565883D01*
X121108607Y-129583607D01*
X121090883Y-129599671D01*
X121071670Y-129613921D01*
X121051153Y-129626218D01*
X121029529Y-129636446D01*
X121007007Y-129644504D01*
X120983803Y-129650316D01*
X120960142Y-129653826D01*
X120936250Y-129655000D01*
X120023750Y-129655000D01*
X119999858Y-129653826D01*
X119976197Y-129650316D01*
X119952993Y-129644504D01*
X119930471Y-129636446D01*
X119908847Y-129626218D01*
X119888330Y-129613921D01*
X119869117Y-129599671D01*
X119851393Y-129583607D01*
X119835329Y-129565883D01*
X119821079Y-129546670D01*
X119808782Y-129526153D01*
X119798554Y-129504529D01*
X119790496Y-129482007D01*
X119784684Y-129458803D01*
X119781174Y-129435142D01*
X119780000Y-129411250D01*
X119780000Y-128923750D01*
X119781174Y-128899858D01*
X119784684Y-128876197D01*
X119790496Y-128852993D01*
X119798554Y-128830471D01*
X119808782Y-128808847D01*
X119821079Y-128788330D01*
X119835329Y-128769117D01*
X119851393Y-128751393D01*
X119869117Y-128735329D01*
X119888330Y-128721079D01*
X119908847Y-128708782D01*
X119930471Y-128698554D01*
X119952993Y-128690496D01*
X119976197Y-128684684D01*
X119999858Y-128681174D01*
X120023750Y-128680000D01*
X120936250Y-128680000D01*
X120960142Y-128681174D01*
X120960142Y-128681174D01*
G37*
D16*
X120480000Y-129167500D03*
D10*
G36*
X120960142Y-126806174D02*
G01*
X120983803Y-126809684D01*
X121007007Y-126815496D01*
X121029529Y-126823554D01*
X121051153Y-126833782D01*
X121071670Y-126846079D01*
X121090883Y-126860329D01*
X121108607Y-126876393D01*
X121124671Y-126894117D01*
X121138921Y-126913330D01*
X121151218Y-126933847D01*
X121161446Y-126955471D01*
X121169504Y-126977993D01*
X121175316Y-127001197D01*
X121178826Y-127024858D01*
X121180000Y-127048750D01*
X121180000Y-127536250D01*
X121178826Y-127560142D01*
X121175316Y-127583803D01*
X121169504Y-127607007D01*
X121161446Y-127629529D01*
X121151218Y-127651153D01*
X121138921Y-127671670D01*
X121124671Y-127690883D01*
X121108607Y-127708607D01*
X121090883Y-127724671D01*
X121071670Y-127738921D01*
X121051153Y-127751218D01*
X121029529Y-127761446D01*
X121007007Y-127769504D01*
X120983803Y-127775316D01*
X120960142Y-127778826D01*
X120936250Y-127780000D01*
X120023750Y-127780000D01*
X119999858Y-127778826D01*
X119976197Y-127775316D01*
X119952993Y-127769504D01*
X119930471Y-127761446D01*
X119908847Y-127751218D01*
X119888330Y-127738921D01*
X119869117Y-127724671D01*
X119851393Y-127708607D01*
X119835329Y-127690883D01*
X119821079Y-127671670D01*
X119808782Y-127651153D01*
X119798554Y-127629529D01*
X119790496Y-127607007D01*
X119784684Y-127583803D01*
X119781174Y-127560142D01*
X119780000Y-127536250D01*
X119780000Y-127048750D01*
X119781174Y-127024858D01*
X119784684Y-127001197D01*
X119790496Y-126977993D01*
X119798554Y-126955471D01*
X119808782Y-126933847D01*
X119821079Y-126913330D01*
X119835329Y-126894117D01*
X119851393Y-126876393D01*
X119869117Y-126860329D01*
X119888330Y-126846079D01*
X119908847Y-126833782D01*
X119930471Y-126823554D01*
X119952993Y-126815496D01*
X119976197Y-126809684D01*
X119999858Y-126806174D01*
X120023750Y-126805000D01*
X120936250Y-126805000D01*
X120960142Y-126806174D01*
X120960142Y-126806174D01*
G37*
D16*
X120480000Y-127292500D03*
D10*
G36*
X119160142Y-131141174D02*
G01*
X119183803Y-131144684D01*
X119207007Y-131150496D01*
X119229529Y-131158554D01*
X119251153Y-131168782D01*
X119271670Y-131181079D01*
X119290883Y-131195329D01*
X119308607Y-131211393D01*
X119324671Y-131229117D01*
X119338921Y-131248330D01*
X119351218Y-131268847D01*
X119361446Y-131290471D01*
X119369504Y-131312993D01*
X119375316Y-131336197D01*
X119378826Y-131359858D01*
X119380000Y-131383750D01*
X119380000Y-132296250D01*
X119378826Y-132320142D01*
X119375316Y-132343803D01*
X119369504Y-132367007D01*
X119361446Y-132389529D01*
X119351218Y-132411153D01*
X119338921Y-132431670D01*
X119324671Y-132450883D01*
X119308607Y-132468607D01*
X119290883Y-132484671D01*
X119271670Y-132498921D01*
X119251153Y-132511218D01*
X119229529Y-132521446D01*
X119207007Y-132529504D01*
X119183803Y-132535316D01*
X119160142Y-132538826D01*
X119136250Y-132540000D01*
X118648750Y-132540000D01*
X118624858Y-132538826D01*
X118601197Y-132535316D01*
X118577993Y-132529504D01*
X118555471Y-132521446D01*
X118533847Y-132511218D01*
X118513330Y-132498921D01*
X118494117Y-132484671D01*
X118476393Y-132468607D01*
X118460329Y-132450883D01*
X118446079Y-132431670D01*
X118433782Y-132411153D01*
X118423554Y-132389529D01*
X118415496Y-132367007D01*
X118409684Y-132343803D01*
X118406174Y-132320142D01*
X118405000Y-132296250D01*
X118405000Y-131383750D01*
X118406174Y-131359858D01*
X118409684Y-131336197D01*
X118415496Y-131312993D01*
X118423554Y-131290471D01*
X118433782Y-131268847D01*
X118446079Y-131248330D01*
X118460329Y-131229117D01*
X118476393Y-131211393D01*
X118494117Y-131195329D01*
X118513330Y-131181079D01*
X118533847Y-131168782D01*
X118555471Y-131158554D01*
X118577993Y-131150496D01*
X118601197Y-131144684D01*
X118624858Y-131141174D01*
X118648750Y-131140000D01*
X119136250Y-131140000D01*
X119160142Y-131141174D01*
X119160142Y-131141174D01*
G37*
D16*
X118892500Y-131840000D03*
D10*
G36*
X121035142Y-131141174D02*
G01*
X121058803Y-131144684D01*
X121082007Y-131150496D01*
X121104529Y-131158554D01*
X121126153Y-131168782D01*
X121146670Y-131181079D01*
X121165883Y-131195329D01*
X121183607Y-131211393D01*
X121199671Y-131229117D01*
X121213921Y-131248330D01*
X121226218Y-131268847D01*
X121236446Y-131290471D01*
X121244504Y-131312993D01*
X121250316Y-131336197D01*
X121253826Y-131359858D01*
X121255000Y-131383750D01*
X121255000Y-132296250D01*
X121253826Y-132320142D01*
X121250316Y-132343803D01*
X121244504Y-132367007D01*
X121236446Y-132389529D01*
X121226218Y-132411153D01*
X121213921Y-132431670D01*
X121199671Y-132450883D01*
X121183607Y-132468607D01*
X121165883Y-132484671D01*
X121146670Y-132498921D01*
X121126153Y-132511218D01*
X121104529Y-132521446D01*
X121082007Y-132529504D01*
X121058803Y-132535316D01*
X121035142Y-132538826D01*
X121011250Y-132540000D01*
X120523750Y-132540000D01*
X120499858Y-132538826D01*
X120476197Y-132535316D01*
X120452993Y-132529504D01*
X120430471Y-132521446D01*
X120408847Y-132511218D01*
X120388330Y-132498921D01*
X120369117Y-132484671D01*
X120351393Y-132468607D01*
X120335329Y-132450883D01*
X120321079Y-132431670D01*
X120308782Y-132411153D01*
X120298554Y-132389529D01*
X120290496Y-132367007D01*
X120284684Y-132343803D01*
X120281174Y-132320142D01*
X120280000Y-132296250D01*
X120280000Y-131383750D01*
X120281174Y-131359858D01*
X120284684Y-131336197D01*
X120290496Y-131312993D01*
X120298554Y-131290471D01*
X120308782Y-131268847D01*
X120321079Y-131248330D01*
X120335329Y-131229117D01*
X120351393Y-131211393D01*
X120369117Y-131195329D01*
X120388330Y-131181079D01*
X120408847Y-131168782D01*
X120430471Y-131158554D01*
X120452993Y-131150496D01*
X120476197Y-131144684D01*
X120499858Y-131141174D01*
X120523750Y-131140000D01*
X121011250Y-131140000D01*
X121035142Y-131141174D01*
X121035142Y-131141174D01*
G37*
D16*
X120767500Y-131840000D03*
D10*
G36*
X131792642Y-125701174D02*
G01*
X131816303Y-125704684D01*
X131839507Y-125710496D01*
X131862029Y-125718554D01*
X131883653Y-125728782D01*
X131904170Y-125741079D01*
X131923383Y-125755329D01*
X131941107Y-125771393D01*
X131957171Y-125789117D01*
X131971421Y-125808330D01*
X131983718Y-125828847D01*
X131993946Y-125850471D01*
X132002004Y-125872993D01*
X132007816Y-125896197D01*
X132011326Y-125919858D01*
X132012500Y-125943750D01*
X132012500Y-126856250D01*
X132011326Y-126880142D01*
X132007816Y-126903803D01*
X132002004Y-126927007D01*
X131993946Y-126949529D01*
X131983718Y-126971153D01*
X131971421Y-126991670D01*
X131957171Y-127010883D01*
X131941107Y-127028607D01*
X131923383Y-127044671D01*
X131904170Y-127058921D01*
X131883653Y-127071218D01*
X131862029Y-127081446D01*
X131839507Y-127089504D01*
X131816303Y-127095316D01*
X131792642Y-127098826D01*
X131768750Y-127100000D01*
X131281250Y-127100000D01*
X131257358Y-127098826D01*
X131233697Y-127095316D01*
X131210493Y-127089504D01*
X131187971Y-127081446D01*
X131166347Y-127071218D01*
X131145830Y-127058921D01*
X131126617Y-127044671D01*
X131108893Y-127028607D01*
X131092829Y-127010883D01*
X131078579Y-126991670D01*
X131066282Y-126971153D01*
X131056054Y-126949529D01*
X131047996Y-126927007D01*
X131042184Y-126903803D01*
X131038674Y-126880142D01*
X131037500Y-126856250D01*
X131037500Y-125943750D01*
X131038674Y-125919858D01*
X131042184Y-125896197D01*
X131047996Y-125872993D01*
X131056054Y-125850471D01*
X131066282Y-125828847D01*
X131078579Y-125808330D01*
X131092829Y-125789117D01*
X131108893Y-125771393D01*
X131126617Y-125755329D01*
X131145830Y-125741079D01*
X131166347Y-125728782D01*
X131187971Y-125718554D01*
X131210493Y-125710496D01*
X131233697Y-125704684D01*
X131257358Y-125701174D01*
X131281250Y-125700000D01*
X131768750Y-125700000D01*
X131792642Y-125701174D01*
X131792642Y-125701174D01*
G37*
D16*
X131525000Y-126400000D03*
D10*
G36*
X133667642Y-125701174D02*
G01*
X133691303Y-125704684D01*
X133714507Y-125710496D01*
X133737029Y-125718554D01*
X133758653Y-125728782D01*
X133779170Y-125741079D01*
X133798383Y-125755329D01*
X133816107Y-125771393D01*
X133832171Y-125789117D01*
X133846421Y-125808330D01*
X133858718Y-125828847D01*
X133868946Y-125850471D01*
X133877004Y-125872993D01*
X133882816Y-125896197D01*
X133886326Y-125919858D01*
X133887500Y-125943750D01*
X133887500Y-126856250D01*
X133886326Y-126880142D01*
X133882816Y-126903803D01*
X133877004Y-126927007D01*
X133868946Y-126949529D01*
X133858718Y-126971153D01*
X133846421Y-126991670D01*
X133832171Y-127010883D01*
X133816107Y-127028607D01*
X133798383Y-127044671D01*
X133779170Y-127058921D01*
X133758653Y-127071218D01*
X133737029Y-127081446D01*
X133714507Y-127089504D01*
X133691303Y-127095316D01*
X133667642Y-127098826D01*
X133643750Y-127100000D01*
X133156250Y-127100000D01*
X133132358Y-127098826D01*
X133108697Y-127095316D01*
X133085493Y-127089504D01*
X133062971Y-127081446D01*
X133041347Y-127071218D01*
X133020830Y-127058921D01*
X133001617Y-127044671D01*
X132983893Y-127028607D01*
X132967829Y-127010883D01*
X132953579Y-126991670D01*
X132941282Y-126971153D01*
X132931054Y-126949529D01*
X132922996Y-126927007D01*
X132917184Y-126903803D01*
X132913674Y-126880142D01*
X132912500Y-126856250D01*
X132912500Y-125943750D01*
X132913674Y-125919858D01*
X132917184Y-125896197D01*
X132922996Y-125872993D01*
X132931054Y-125850471D01*
X132941282Y-125828847D01*
X132953579Y-125808330D01*
X132967829Y-125789117D01*
X132983893Y-125771393D01*
X133001617Y-125755329D01*
X133020830Y-125741079D01*
X133041347Y-125728782D01*
X133062971Y-125718554D01*
X133085493Y-125710496D01*
X133108697Y-125704684D01*
X133132358Y-125701174D01*
X133156250Y-125700000D01*
X133643750Y-125700000D01*
X133667642Y-125701174D01*
X133667642Y-125701174D01*
G37*
D16*
X133400000Y-126400000D03*
D10*
G36*
X118510142Y-129571174D02*
G01*
X118533803Y-129574684D01*
X118557007Y-129580496D01*
X118579529Y-129588554D01*
X118601153Y-129598782D01*
X118621670Y-129611079D01*
X118640883Y-129625329D01*
X118658607Y-129641393D01*
X118674671Y-129659117D01*
X118688921Y-129678330D01*
X118701218Y-129698847D01*
X118711446Y-129720471D01*
X118719504Y-129742993D01*
X118725316Y-129766197D01*
X118728826Y-129789858D01*
X118730000Y-129813750D01*
X118730000Y-130301250D01*
X118728826Y-130325142D01*
X118725316Y-130348803D01*
X118719504Y-130372007D01*
X118711446Y-130394529D01*
X118701218Y-130416153D01*
X118688921Y-130436670D01*
X118674671Y-130455883D01*
X118658607Y-130473607D01*
X118640883Y-130489671D01*
X118621670Y-130503921D01*
X118601153Y-130516218D01*
X118579529Y-130526446D01*
X118557007Y-130534504D01*
X118533803Y-130540316D01*
X118510142Y-130543826D01*
X118486250Y-130545000D01*
X117573750Y-130545000D01*
X117549858Y-130543826D01*
X117526197Y-130540316D01*
X117502993Y-130534504D01*
X117480471Y-130526446D01*
X117458847Y-130516218D01*
X117438330Y-130503921D01*
X117419117Y-130489671D01*
X117401393Y-130473607D01*
X117385329Y-130455883D01*
X117371079Y-130436670D01*
X117358782Y-130416153D01*
X117348554Y-130394529D01*
X117340496Y-130372007D01*
X117334684Y-130348803D01*
X117331174Y-130325142D01*
X117330000Y-130301250D01*
X117330000Y-129813750D01*
X117331174Y-129789858D01*
X117334684Y-129766197D01*
X117340496Y-129742993D01*
X117348554Y-129720471D01*
X117358782Y-129698847D01*
X117371079Y-129678330D01*
X117385329Y-129659117D01*
X117401393Y-129641393D01*
X117419117Y-129625329D01*
X117438330Y-129611079D01*
X117458847Y-129598782D01*
X117480471Y-129588554D01*
X117502993Y-129580496D01*
X117526197Y-129574684D01*
X117549858Y-129571174D01*
X117573750Y-129570000D01*
X118486250Y-129570000D01*
X118510142Y-129571174D01*
X118510142Y-129571174D01*
G37*
D16*
X118030000Y-130057500D03*
D10*
G36*
X118510142Y-127696174D02*
G01*
X118533803Y-127699684D01*
X118557007Y-127705496D01*
X118579529Y-127713554D01*
X118601153Y-127723782D01*
X118621670Y-127736079D01*
X118640883Y-127750329D01*
X118658607Y-127766393D01*
X118674671Y-127784117D01*
X118688921Y-127803330D01*
X118701218Y-127823847D01*
X118711446Y-127845471D01*
X118719504Y-127867993D01*
X118725316Y-127891197D01*
X118728826Y-127914858D01*
X118730000Y-127938750D01*
X118730000Y-128426250D01*
X118728826Y-128450142D01*
X118725316Y-128473803D01*
X118719504Y-128497007D01*
X118711446Y-128519529D01*
X118701218Y-128541153D01*
X118688921Y-128561670D01*
X118674671Y-128580883D01*
X118658607Y-128598607D01*
X118640883Y-128614671D01*
X118621670Y-128628921D01*
X118601153Y-128641218D01*
X118579529Y-128651446D01*
X118557007Y-128659504D01*
X118533803Y-128665316D01*
X118510142Y-128668826D01*
X118486250Y-128670000D01*
X117573750Y-128670000D01*
X117549858Y-128668826D01*
X117526197Y-128665316D01*
X117502993Y-128659504D01*
X117480471Y-128651446D01*
X117458847Y-128641218D01*
X117438330Y-128628921D01*
X117419117Y-128614671D01*
X117401393Y-128598607D01*
X117385329Y-128580883D01*
X117371079Y-128561670D01*
X117358782Y-128541153D01*
X117348554Y-128519529D01*
X117340496Y-128497007D01*
X117334684Y-128473803D01*
X117331174Y-128450142D01*
X117330000Y-128426250D01*
X117330000Y-127938750D01*
X117331174Y-127914858D01*
X117334684Y-127891197D01*
X117340496Y-127867993D01*
X117348554Y-127845471D01*
X117358782Y-127823847D01*
X117371079Y-127803330D01*
X117385329Y-127784117D01*
X117401393Y-127766393D01*
X117419117Y-127750329D01*
X117438330Y-127736079D01*
X117458847Y-127723782D01*
X117480471Y-127713554D01*
X117502993Y-127705496D01*
X117526197Y-127699684D01*
X117549858Y-127696174D01*
X117573750Y-127695000D01*
X118486250Y-127695000D01*
X118510142Y-127696174D01*
X118510142Y-127696174D01*
G37*
D16*
X118030000Y-128182500D03*
D10*
G36*
X116520142Y-127696174D02*
G01*
X116543803Y-127699684D01*
X116567007Y-127705496D01*
X116589529Y-127713554D01*
X116611153Y-127723782D01*
X116631670Y-127736079D01*
X116650883Y-127750329D01*
X116668607Y-127766393D01*
X116684671Y-127784117D01*
X116698921Y-127803330D01*
X116711218Y-127823847D01*
X116721446Y-127845471D01*
X116729504Y-127867993D01*
X116735316Y-127891197D01*
X116738826Y-127914858D01*
X116740000Y-127938750D01*
X116740000Y-128426250D01*
X116738826Y-128450142D01*
X116735316Y-128473803D01*
X116729504Y-128497007D01*
X116721446Y-128519529D01*
X116711218Y-128541153D01*
X116698921Y-128561670D01*
X116684671Y-128580883D01*
X116668607Y-128598607D01*
X116650883Y-128614671D01*
X116631670Y-128628921D01*
X116611153Y-128641218D01*
X116589529Y-128651446D01*
X116567007Y-128659504D01*
X116543803Y-128665316D01*
X116520142Y-128668826D01*
X116496250Y-128670000D01*
X115583750Y-128670000D01*
X115559858Y-128668826D01*
X115536197Y-128665316D01*
X115512993Y-128659504D01*
X115490471Y-128651446D01*
X115468847Y-128641218D01*
X115448330Y-128628921D01*
X115429117Y-128614671D01*
X115411393Y-128598607D01*
X115395329Y-128580883D01*
X115381079Y-128561670D01*
X115368782Y-128541153D01*
X115358554Y-128519529D01*
X115350496Y-128497007D01*
X115344684Y-128473803D01*
X115341174Y-128450142D01*
X115340000Y-128426250D01*
X115340000Y-127938750D01*
X115341174Y-127914858D01*
X115344684Y-127891197D01*
X115350496Y-127867993D01*
X115358554Y-127845471D01*
X115368782Y-127823847D01*
X115381079Y-127803330D01*
X115395329Y-127784117D01*
X115411393Y-127766393D01*
X115429117Y-127750329D01*
X115448330Y-127736079D01*
X115468847Y-127723782D01*
X115490471Y-127713554D01*
X115512993Y-127705496D01*
X115536197Y-127699684D01*
X115559858Y-127696174D01*
X115583750Y-127695000D01*
X116496250Y-127695000D01*
X116520142Y-127696174D01*
X116520142Y-127696174D01*
G37*
D16*
X116040000Y-128182500D03*
D10*
G36*
X116520142Y-129571174D02*
G01*
X116543803Y-129574684D01*
X116567007Y-129580496D01*
X116589529Y-129588554D01*
X116611153Y-129598782D01*
X116631670Y-129611079D01*
X116650883Y-129625329D01*
X116668607Y-129641393D01*
X116684671Y-129659117D01*
X116698921Y-129678330D01*
X116711218Y-129698847D01*
X116721446Y-129720471D01*
X116729504Y-129742993D01*
X116735316Y-129766197D01*
X116738826Y-129789858D01*
X116740000Y-129813750D01*
X116740000Y-130301250D01*
X116738826Y-130325142D01*
X116735316Y-130348803D01*
X116729504Y-130372007D01*
X116721446Y-130394529D01*
X116711218Y-130416153D01*
X116698921Y-130436670D01*
X116684671Y-130455883D01*
X116668607Y-130473607D01*
X116650883Y-130489671D01*
X116631670Y-130503921D01*
X116611153Y-130516218D01*
X116589529Y-130526446D01*
X116567007Y-130534504D01*
X116543803Y-130540316D01*
X116520142Y-130543826D01*
X116496250Y-130545000D01*
X115583750Y-130545000D01*
X115559858Y-130543826D01*
X115536197Y-130540316D01*
X115512993Y-130534504D01*
X115490471Y-130526446D01*
X115468847Y-130516218D01*
X115448330Y-130503921D01*
X115429117Y-130489671D01*
X115411393Y-130473607D01*
X115395329Y-130455883D01*
X115381079Y-130436670D01*
X115368782Y-130416153D01*
X115358554Y-130394529D01*
X115350496Y-130372007D01*
X115344684Y-130348803D01*
X115341174Y-130325142D01*
X115340000Y-130301250D01*
X115340000Y-129813750D01*
X115341174Y-129789858D01*
X115344684Y-129766197D01*
X115350496Y-129742993D01*
X115358554Y-129720471D01*
X115368782Y-129698847D01*
X115381079Y-129678330D01*
X115395329Y-129659117D01*
X115411393Y-129641393D01*
X115429117Y-129625329D01*
X115448330Y-129611079D01*
X115468847Y-129598782D01*
X115490471Y-129588554D01*
X115512993Y-129580496D01*
X115536197Y-129574684D01*
X115559858Y-129571174D01*
X115583750Y-129570000D01*
X116496250Y-129570000D01*
X116520142Y-129571174D01*
X116520142Y-129571174D01*
G37*
D16*
X116040000Y-130057500D03*
D10*
G36*
X116260142Y-122966174D02*
G01*
X116283803Y-122969684D01*
X116307007Y-122975496D01*
X116329529Y-122983554D01*
X116351153Y-122993782D01*
X116371670Y-123006079D01*
X116390883Y-123020329D01*
X116408607Y-123036393D01*
X116424671Y-123054117D01*
X116438921Y-123073330D01*
X116451218Y-123093847D01*
X116461446Y-123115471D01*
X116469504Y-123137993D01*
X116475316Y-123161197D01*
X116478826Y-123184858D01*
X116480000Y-123208750D01*
X116480000Y-123696250D01*
X116478826Y-123720142D01*
X116475316Y-123743803D01*
X116469504Y-123767007D01*
X116461446Y-123789529D01*
X116451218Y-123811153D01*
X116438921Y-123831670D01*
X116424671Y-123850883D01*
X116408607Y-123868607D01*
X116390883Y-123884671D01*
X116371670Y-123898921D01*
X116351153Y-123911218D01*
X116329529Y-123921446D01*
X116307007Y-123929504D01*
X116283803Y-123935316D01*
X116260142Y-123938826D01*
X116236250Y-123940000D01*
X115323750Y-123940000D01*
X115299858Y-123938826D01*
X115276197Y-123935316D01*
X115252993Y-123929504D01*
X115230471Y-123921446D01*
X115208847Y-123911218D01*
X115188330Y-123898921D01*
X115169117Y-123884671D01*
X115151393Y-123868607D01*
X115135329Y-123850883D01*
X115121079Y-123831670D01*
X115108782Y-123811153D01*
X115098554Y-123789529D01*
X115090496Y-123767007D01*
X115084684Y-123743803D01*
X115081174Y-123720142D01*
X115080000Y-123696250D01*
X115080000Y-123208750D01*
X115081174Y-123184858D01*
X115084684Y-123161197D01*
X115090496Y-123137993D01*
X115098554Y-123115471D01*
X115108782Y-123093847D01*
X115121079Y-123073330D01*
X115135329Y-123054117D01*
X115151393Y-123036393D01*
X115169117Y-123020329D01*
X115188330Y-123006079D01*
X115208847Y-122993782D01*
X115230471Y-122983554D01*
X115252993Y-122975496D01*
X115276197Y-122969684D01*
X115299858Y-122966174D01*
X115323750Y-122965000D01*
X116236250Y-122965000D01*
X116260142Y-122966174D01*
X116260142Y-122966174D01*
G37*
D16*
X115780000Y-123452500D03*
D10*
G36*
X116260142Y-124841174D02*
G01*
X116283803Y-124844684D01*
X116307007Y-124850496D01*
X116329529Y-124858554D01*
X116351153Y-124868782D01*
X116371670Y-124881079D01*
X116390883Y-124895329D01*
X116408607Y-124911393D01*
X116424671Y-124929117D01*
X116438921Y-124948330D01*
X116451218Y-124968847D01*
X116461446Y-124990471D01*
X116469504Y-125012993D01*
X116475316Y-125036197D01*
X116478826Y-125059858D01*
X116480000Y-125083750D01*
X116480000Y-125571250D01*
X116478826Y-125595142D01*
X116475316Y-125618803D01*
X116469504Y-125642007D01*
X116461446Y-125664529D01*
X116451218Y-125686153D01*
X116438921Y-125706670D01*
X116424671Y-125725883D01*
X116408607Y-125743607D01*
X116390883Y-125759671D01*
X116371670Y-125773921D01*
X116351153Y-125786218D01*
X116329529Y-125796446D01*
X116307007Y-125804504D01*
X116283803Y-125810316D01*
X116260142Y-125813826D01*
X116236250Y-125815000D01*
X115323750Y-125815000D01*
X115299858Y-125813826D01*
X115276197Y-125810316D01*
X115252993Y-125804504D01*
X115230471Y-125796446D01*
X115208847Y-125786218D01*
X115188330Y-125773921D01*
X115169117Y-125759671D01*
X115151393Y-125743607D01*
X115135329Y-125725883D01*
X115121079Y-125706670D01*
X115108782Y-125686153D01*
X115098554Y-125664529D01*
X115090496Y-125642007D01*
X115084684Y-125618803D01*
X115081174Y-125595142D01*
X115080000Y-125571250D01*
X115080000Y-125083750D01*
X115081174Y-125059858D01*
X115084684Y-125036197D01*
X115090496Y-125012993D01*
X115098554Y-124990471D01*
X115108782Y-124968847D01*
X115121079Y-124948330D01*
X115135329Y-124929117D01*
X115151393Y-124911393D01*
X115169117Y-124895329D01*
X115188330Y-124881079D01*
X115208847Y-124868782D01*
X115230471Y-124858554D01*
X115252993Y-124850496D01*
X115276197Y-124844684D01*
X115299858Y-124841174D01*
X115323750Y-124840000D01*
X116236250Y-124840000D01*
X116260142Y-124841174D01*
X116260142Y-124841174D01*
G37*
D16*
X115780000Y-125327500D03*
D10*
G36*
X120250142Y-124841174D02*
G01*
X120273803Y-124844684D01*
X120297007Y-124850496D01*
X120319529Y-124858554D01*
X120341153Y-124868782D01*
X120361670Y-124881079D01*
X120380883Y-124895329D01*
X120398607Y-124911393D01*
X120414671Y-124929117D01*
X120428921Y-124948330D01*
X120441218Y-124968847D01*
X120451446Y-124990471D01*
X120459504Y-125012993D01*
X120465316Y-125036197D01*
X120468826Y-125059858D01*
X120470000Y-125083750D01*
X120470000Y-125571250D01*
X120468826Y-125595142D01*
X120465316Y-125618803D01*
X120459504Y-125642007D01*
X120451446Y-125664529D01*
X120441218Y-125686153D01*
X120428921Y-125706670D01*
X120414671Y-125725883D01*
X120398607Y-125743607D01*
X120380883Y-125759671D01*
X120361670Y-125773921D01*
X120341153Y-125786218D01*
X120319529Y-125796446D01*
X120297007Y-125804504D01*
X120273803Y-125810316D01*
X120250142Y-125813826D01*
X120226250Y-125815000D01*
X119313750Y-125815000D01*
X119289858Y-125813826D01*
X119266197Y-125810316D01*
X119242993Y-125804504D01*
X119220471Y-125796446D01*
X119198847Y-125786218D01*
X119178330Y-125773921D01*
X119159117Y-125759671D01*
X119141393Y-125743607D01*
X119125329Y-125725883D01*
X119111079Y-125706670D01*
X119098782Y-125686153D01*
X119088554Y-125664529D01*
X119080496Y-125642007D01*
X119074684Y-125618803D01*
X119071174Y-125595142D01*
X119070000Y-125571250D01*
X119070000Y-125083750D01*
X119071174Y-125059858D01*
X119074684Y-125036197D01*
X119080496Y-125012993D01*
X119088554Y-124990471D01*
X119098782Y-124968847D01*
X119111079Y-124948330D01*
X119125329Y-124929117D01*
X119141393Y-124911393D01*
X119159117Y-124895329D01*
X119178330Y-124881079D01*
X119198847Y-124868782D01*
X119220471Y-124858554D01*
X119242993Y-124850496D01*
X119266197Y-124844684D01*
X119289858Y-124841174D01*
X119313750Y-124840000D01*
X120226250Y-124840000D01*
X120250142Y-124841174D01*
X120250142Y-124841174D01*
G37*
D16*
X119770000Y-125327500D03*
D10*
G36*
X120250142Y-122966174D02*
G01*
X120273803Y-122969684D01*
X120297007Y-122975496D01*
X120319529Y-122983554D01*
X120341153Y-122993782D01*
X120361670Y-123006079D01*
X120380883Y-123020329D01*
X120398607Y-123036393D01*
X120414671Y-123054117D01*
X120428921Y-123073330D01*
X120441218Y-123093847D01*
X120451446Y-123115471D01*
X120459504Y-123137993D01*
X120465316Y-123161197D01*
X120468826Y-123184858D01*
X120470000Y-123208750D01*
X120470000Y-123696250D01*
X120468826Y-123720142D01*
X120465316Y-123743803D01*
X120459504Y-123767007D01*
X120451446Y-123789529D01*
X120441218Y-123811153D01*
X120428921Y-123831670D01*
X120414671Y-123850883D01*
X120398607Y-123868607D01*
X120380883Y-123884671D01*
X120361670Y-123898921D01*
X120341153Y-123911218D01*
X120319529Y-123921446D01*
X120297007Y-123929504D01*
X120273803Y-123935316D01*
X120250142Y-123938826D01*
X120226250Y-123940000D01*
X119313750Y-123940000D01*
X119289858Y-123938826D01*
X119266197Y-123935316D01*
X119242993Y-123929504D01*
X119220471Y-123921446D01*
X119198847Y-123911218D01*
X119178330Y-123898921D01*
X119159117Y-123884671D01*
X119141393Y-123868607D01*
X119125329Y-123850883D01*
X119111079Y-123831670D01*
X119098782Y-123811153D01*
X119088554Y-123789529D01*
X119080496Y-123767007D01*
X119074684Y-123743803D01*
X119071174Y-123720142D01*
X119070000Y-123696250D01*
X119070000Y-123208750D01*
X119071174Y-123184858D01*
X119074684Y-123161197D01*
X119080496Y-123137993D01*
X119088554Y-123115471D01*
X119098782Y-123093847D01*
X119111079Y-123073330D01*
X119125329Y-123054117D01*
X119141393Y-123036393D01*
X119159117Y-123020329D01*
X119178330Y-123006079D01*
X119198847Y-122993782D01*
X119220471Y-122983554D01*
X119242993Y-122975496D01*
X119266197Y-122969684D01*
X119289858Y-122966174D01*
X119313750Y-122965000D01*
X120226250Y-122965000D01*
X120250142Y-122966174D01*
X120250142Y-122966174D01*
G37*
D16*
X119770000Y-123452500D03*
D10*
G36*
X118260142Y-124841174D02*
G01*
X118283803Y-124844684D01*
X118307007Y-124850496D01*
X118329529Y-124858554D01*
X118351153Y-124868782D01*
X118371670Y-124881079D01*
X118390883Y-124895329D01*
X118408607Y-124911393D01*
X118424671Y-124929117D01*
X118438921Y-124948330D01*
X118451218Y-124968847D01*
X118461446Y-124990471D01*
X118469504Y-125012993D01*
X118475316Y-125036197D01*
X118478826Y-125059858D01*
X118480000Y-125083750D01*
X118480000Y-125571250D01*
X118478826Y-125595142D01*
X118475316Y-125618803D01*
X118469504Y-125642007D01*
X118461446Y-125664529D01*
X118451218Y-125686153D01*
X118438921Y-125706670D01*
X118424671Y-125725883D01*
X118408607Y-125743607D01*
X118390883Y-125759671D01*
X118371670Y-125773921D01*
X118351153Y-125786218D01*
X118329529Y-125796446D01*
X118307007Y-125804504D01*
X118283803Y-125810316D01*
X118260142Y-125813826D01*
X118236250Y-125815000D01*
X117323750Y-125815000D01*
X117299858Y-125813826D01*
X117276197Y-125810316D01*
X117252993Y-125804504D01*
X117230471Y-125796446D01*
X117208847Y-125786218D01*
X117188330Y-125773921D01*
X117169117Y-125759671D01*
X117151393Y-125743607D01*
X117135329Y-125725883D01*
X117121079Y-125706670D01*
X117108782Y-125686153D01*
X117098554Y-125664529D01*
X117090496Y-125642007D01*
X117084684Y-125618803D01*
X117081174Y-125595142D01*
X117080000Y-125571250D01*
X117080000Y-125083750D01*
X117081174Y-125059858D01*
X117084684Y-125036197D01*
X117090496Y-125012993D01*
X117098554Y-124990471D01*
X117108782Y-124968847D01*
X117121079Y-124948330D01*
X117135329Y-124929117D01*
X117151393Y-124911393D01*
X117169117Y-124895329D01*
X117188330Y-124881079D01*
X117208847Y-124868782D01*
X117230471Y-124858554D01*
X117252993Y-124850496D01*
X117276197Y-124844684D01*
X117299858Y-124841174D01*
X117323750Y-124840000D01*
X118236250Y-124840000D01*
X118260142Y-124841174D01*
X118260142Y-124841174D01*
G37*
D16*
X117780000Y-125327500D03*
D10*
G36*
X118260142Y-122966174D02*
G01*
X118283803Y-122969684D01*
X118307007Y-122975496D01*
X118329529Y-122983554D01*
X118351153Y-122993782D01*
X118371670Y-123006079D01*
X118390883Y-123020329D01*
X118408607Y-123036393D01*
X118424671Y-123054117D01*
X118438921Y-123073330D01*
X118451218Y-123093847D01*
X118461446Y-123115471D01*
X118469504Y-123137993D01*
X118475316Y-123161197D01*
X118478826Y-123184858D01*
X118480000Y-123208750D01*
X118480000Y-123696250D01*
X118478826Y-123720142D01*
X118475316Y-123743803D01*
X118469504Y-123767007D01*
X118461446Y-123789529D01*
X118451218Y-123811153D01*
X118438921Y-123831670D01*
X118424671Y-123850883D01*
X118408607Y-123868607D01*
X118390883Y-123884671D01*
X118371670Y-123898921D01*
X118351153Y-123911218D01*
X118329529Y-123921446D01*
X118307007Y-123929504D01*
X118283803Y-123935316D01*
X118260142Y-123938826D01*
X118236250Y-123940000D01*
X117323750Y-123940000D01*
X117299858Y-123938826D01*
X117276197Y-123935316D01*
X117252993Y-123929504D01*
X117230471Y-123921446D01*
X117208847Y-123911218D01*
X117188330Y-123898921D01*
X117169117Y-123884671D01*
X117151393Y-123868607D01*
X117135329Y-123850883D01*
X117121079Y-123831670D01*
X117108782Y-123811153D01*
X117098554Y-123789529D01*
X117090496Y-123767007D01*
X117084684Y-123743803D01*
X117081174Y-123720142D01*
X117080000Y-123696250D01*
X117080000Y-123208750D01*
X117081174Y-123184858D01*
X117084684Y-123161197D01*
X117090496Y-123137993D01*
X117098554Y-123115471D01*
X117108782Y-123093847D01*
X117121079Y-123073330D01*
X117135329Y-123054117D01*
X117151393Y-123036393D01*
X117169117Y-123020329D01*
X117188330Y-123006079D01*
X117208847Y-122993782D01*
X117230471Y-122983554D01*
X117252993Y-122975496D01*
X117276197Y-122969684D01*
X117299858Y-122966174D01*
X117323750Y-122965000D01*
X118236250Y-122965000D01*
X118260142Y-122966174D01*
X118260142Y-122966174D01*
G37*
D16*
X117780000Y-123452500D03*
D10*
G36*
X112560142Y-115356174D02*
G01*
X112583803Y-115359684D01*
X112607007Y-115365496D01*
X112629529Y-115373554D01*
X112651153Y-115383782D01*
X112671670Y-115396079D01*
X112690883Y-115410329D01*
X112708607Y-115426393D01*
X112724671Y-115444117D01*
X112738921Y-115463330D01*
X112751218Y-115483847D01*
X112761446Y-115505471D01*
X112769504Y-115527993D01*
X112775316Y-115551197D01*
X112778826Y-115574858D01*
X112780000Y-115598750D01*
X112780000Y-116086250D01*
X112778826Y-116110142D01*
X112775316Y-116133803D01*
X112769504Y-116157007D01*
X112761446Y-116179529D01*
X112751218Y-116201153D01*
X112738921Y-116221670D01*
X112724671Y-116240883D01*
X112708607Y-116258607D01*
X112690883Y-116274671D01*
X112671670Y-116288921D01*
X112651153Y-116301218D01*
X112629529Y-116311446D01*
X112607007Y-116319504D01*
X112583803Y-116325316D01*
X112560142Y-116328826D01*
X112536250Y-116330000D01*
X111623750Y-116330000D01*
X111599858Y-116328826D01*
X111576197Y-116325316D01*
X111552993Y-116319504D01*
X111530471Y-116311446D01*
X111508847Y-116301218D01*
X111488330Y-116288921D01*
X111469117Y-116274671D01*
X111451393Y-116258607D01*
X111435329Y-116240883D01*
X111421079Y-116221670D01*
X111408782Y-116201153D01*
X111398554Y-116179529D01*
X111390496Y-116157007D01*
X111384684Y-116133803D01*
X111381174Y-116110142D01*
X111380000Y-116086250D01*
X111380000Y-115598750D01*
X111381174Y-115574858D01*
X111384684Y-115551197D01*
X111390496Y-115527993D01*
X111398554Y-115505471D01*
X111408782Y-115483847D01*
X111421079Y-115463330D01*
X111435329Y-115444117D01*
X111451393Y-115426393D01*
X111469117Y-115410329D01*
X111488330Y-115396079D01*
X111508847Y-115383782D01*
X111530471Y-115373554D01*
X111552993Y-115365496D01*
X111576197Y-115359684D01*
X111599858Y-115356174D01*
X111623750Y-115355000D01*
X112536250Y-115355000D01*
X112560142Y-115356174D01*
X112560142Y-115356174D01*
G37*
D16*
X112080000Y-115842500D03*
D10*
G36*
X112560142Y-117231174D02*
G01*
X112583803Y-117234684D01*
X112607007Y-117240496D01*
X112629529Y-117248554D01*
X112651153Y-117258782D01*
X112671670Y-117271079D01*
X112690883Y-117285329D01*
X112708607Y-117301393D01*
X112724671Y-117319117D01*
X112738921Y-117338330D01*
X112751218Y-117358847D01*
X112761446Y-117380471D01*
X112769504Y-117402993D01*
X112775316Y-117426197D01*
X112778826Y-117449858D01*
X112780000Y-117473750D01*
X112780000Y-117961250D01*
X112778826Y-117985142D01*
X112775316Y-118008803D01*
X112769504Y-118032007D01*
X112761446Y-118054529D01*
X112751218Y-118076153D01*
X112738921Y-118096670D01*
X112724671Y-118115883D01*
X112708607Y-118133607D01*
X112690883Y-118149671D01*
X112671670Y-118163921D01*
X112651153Y-118176218D01*
X112629529Y-118186446D01*
X112607007Y-118194504D01*
X112583803Y-118200316D01*
X112560142Y-118203826D01*
X112536250Y-118205000D01*
X111623750Y-118205000D01*
X111599858Y-118203826D01*
X111576197Y-118200316D01*
X111552993Y-118194504D01*
X111530471Y-118186446D01*
X111508847Y-118176218D01*
X111488330Y-118163921D01*
X111469117Y-118149671D01*
X111451393Y-118133607D01*
X111435329Y-118115883D01*
X111421079Y-118096670D01*
X111408782Y-118076153D01*
X111398554Y-118054529D01*
X111390496Y-118032007D01*
X111384684Y-118008803D01*
X111381174Y-117985142D01*
X111380000Y-117961250D01*
X111380000Y-117473750D01*
X111381174Y-117449858D01*
X111384684Y-117426197D01*
X111390496Y-117402993D01*
X111398554Y-117380471D01*
X111408782Y-117358847D01*
X111421079Y-117338330D01*
X111435329Y-117319117D01*
X111451393Y-117301393D01*
X111469117Y-117285329D01*
X111488330Y-117271079D01*
X111508847Y-117258782D01*
X111530471Y-117248554D01*
X111552993Y-117240496D01*
X111576197Y-117234684D01*
X111599858Y-117231174D01*
X111623750Y-117230000D01*
X112536250Y-117230000D01*
X112560142Y-117231174D01*
X112560142Y-117231174D01*
G37*
D16*
X112080000Y-117717500D03*
D17*
X135725000Y-133350000D03*
X135075000Y-133350000D03*
X134425000Y-133350000D03*
X133775000Y-133350000D03*
D18*
X133775000Y-136250000D03*
X134425000Y-136250000D03*
X135075000Y-136250000D03*
X135725000Y-136250000D03*
D19*
X136165000Y-134750000D03*
D20*
X134750000Y-135110000D03*
D19*
X133335000Y-134750000D03*
D21*
X115390000Y-116660000D03*
X120390000Y-116660000D03*
D10*
G36*
X117093329Y-131896023D02*
G01*
X117113957Y-131899083D01*
X117134185Y-131904150D01*
X117153820Y-131911176D01*
X117172672Y-131920092D01*
X117190559Y-131930813D01*
X117207309Y-131943235D01*
X117222760Y-131957240D01*
X117236765Y-131972691D01*
X117249187Y-131989441D01*
X117259908Y-132007328D01*
X117268824Y-132026180D01*
X117275850Y-132045815D01*
X117280917Y-132066043D01*
X117283977Y-132086671D01*
X117285000Y-132107500D01*
X117285000Y-132907500D01*
X117283977Y-132928329D01*
X117280917Y-132948957D01*
X117275850Y-132969185D01*
X117268824Y-132988820D01*
X117259908Y-133007672D01*
X117249187Y-133025559D01*
X117236765Y-133042309D01*
X117222760Y-133057760D01*
X117207309Y-133071765D01*
X117190559Y-133084187D01*
X117172672Y-133094908D01*
X117153820Y-133103824D01*
X117134185Y-133110850D01*
X117113957Y-133115917D01*
X117093329Y-133118977D01*
X117072500Y-133120000D01*
X116647500Y-133120000D01*
X116626671Y-133118977D01*
X116606043Y-133115917D01*
X116585815Y-133110850D01*
X116566180Y-133103824D01*
X116547328Y-133094908D01*
X116529441Y-133084187D01*
X116512691Y-133071765D01*
X116497240Y-133057760D01*
X116483235Y-133042309D01*
X116470813Y-133025559D01*
X116460092Y-133007672D01*
X116451176Y-132988820D01*
X116444150Y-132969185D01*
X116439083Y-132948957D01*
X116436023Y-132928329D01*
X116435000Y-132907500D01*
X116435000Y-132107500D01*
X116436023Y-132086671D01*
X116439083Y-132066043D01*
X116444150Y-132045815D01*
X116451176Y-132026180D01*
X116460092Y-132007328D01*
X116470813Y-131989441D01*
X116483235Y-131972691D01*
X116497240Y-131957240D01*
X116512691Y-131943235D01*
X116529441Y-131930813D01*
X116547328Y-131920092D01*
X116566180Y-131911176D01*
X116585815Y-131904150D01*
X116606043Y-131899083D01*
X116626671Y-131896023D01*
X116647500Y-131895000D01*
X117072500Y-131895000D01*
X117093329Y-131896023D01*
X117093329Y-131896023D01*
G37*
D22*
X116860000Y-132507500D03*
D10*
G36*
X117093329Y-133521023D02*
G01*
X117113957Y-133524083D01*
X117134185Y-133529150D01*
X117153820Y-133536176D01*
X117172672Y-133545092D01*
X117190559Y-133555813D01*
X117207309Y-133568235D01*
X117222760Y-133582240D01*
X117236765Y-133597691D01*
X117249187Y-133614441D01*
X117259908Y-133632328D01*
X117268824Y-133651180D01*
X117275850Y-133670815D01*
X117280917Y-133691043D01*
X117283977Y-133711671D01*
X117285000Y-133732500D01*
X117285000Y-134532500D01*
X117283977Y-134553329D01*
X117280917Y-134573957D01*
X117275850Y-134594185D01*
X117268824Y-134613820D01*
X117259908Y-134632672D01*
X117249187Y-134650559D01*
X117236765Y-134667309D01*
X117222760Y-134682760D01*
X117207309Y-134696765D01*
X117190559Y-134709187D01*
X117172672Y-134719908D01*
X117153820Y-134728824D01*
X117134185Y-134735850D01*
X117113957Y-134740917D01*
X117093329Y-134743977D01*
X117072500Y-134745000D01*
X116647500Y-134745000D01*
X116626671Y-134743977D01*
X116606043Y-134740917D01*
X116585815Y-134735850D01*
X116566180Y-134728824D01*
X116547328Y-134719908D01*
X116529441Y-134709187D01*
X116512691Y-134696765D01*
X116497240Y-134682760D01*
X116483235Y-134667309D01*
X116470813Y-134650559D01*
X116460092Y-134632672D01*
X116451176Y-134613820D01*
X116444150Y-134594185D01*
X116439083Y-134573957D01*
X116436023Y-134553329D01*
X116435000Y-134532500D01*
X116435000Y-133732500D01*
X116436023Y-133711671D01*
X116439083Y-133691043D01*
X116444150Y-133670815D01*
X116451176Y-133651180D01*
X116460092Y-133632328D01*
X116470813Y-133614441D01*
X116483235Y-133597691D01*
X116497240Y-133582240D01*
X116512691Y-133568235D01*
X116529441Y-133555813D01*
X116547328Y-133545092D01*
X116566180Y-133536176D01*
X116585815Y-133529150D01*
X116606043Y-133524083D01*
X116626671Y-133521023D01*
X116647500Y-133520000D01*
X117072500Y-133520000D01*
X117093329Y-133521023D01*
X117093329Y-133521023D01*
G37*
D22*
X116860000Y-134132500D03*
D23*
X119400000Y-141500000D03*
X119400000Y-136500000D03*
D10*
G36*
X124852691Y-116826053D02*
G01*
X124873926Y-116829203D01*
X124894750Y-116834419D01*
X124914962Y-116841651D01*
X124934368Y-116850830D01*
X124952781Y-116861866D01*
X124970024Y-116874654D01*
X124985930Y-116889070D01*
X125000346Y-116904976D01*
X125013134Y-116922219D01*
X125024170Y-116940632D01*
X125033349Y-116960038D01*
X125040581Y-116980250D01*
X125045797Y-117001074D01*
X125048947Y-117022309D01*
X125050000Y-117043750D01*
X125050000Y-117556250D01*
X125048947Y-117577691D01*
X125045797Y-117598926D01*
X125040581Y-117619750D01*
X125033349Y-117639962D01*
X125024170Y-117659368D01*
X125013134Y-117677781D01*
X125000346Y-117695024D01*
X124985930Y-117710930D01*
X124970024Y-117725346D01*
X124952781Y-117738134D01*
X124934368Y-117749170D01*
X124914962Y-117758349D01*
X124894750Y-117765581D01*
X124873926Y-117770797D01*
X124852691Y-117773947D01*
X124831250Y-117775000D01*
X124393750Y-117775000D01*
X124372309Y-117773947D01*
X124351074Y-117770797D01*
X124330250Y-117765581D01*
X124310038Y-117758349D01*
X124290632Y-117749170D01*
X124272219Y-117738134D01*
X124254976Y-117725346D01*
X124239070Y-117710930D01*
X124224654Y-117695024D01*
X124211866Y-117677781D01*
X124200830Y-117659368D01*
X124191651Y-117639962D01*
X124184419Y-117619750D01*
X124179203Y-117598926D01*
X124176053Y-117577691D01*
X124175000Y-117556250D01*
X124175000Y-117043750D01*
X124176053Y-117022309D01*
X124179203Y-117001074D01*
X124184419Y-116980250D01*
X124191651Y-116960038D01*
X124200830Y-116940632D01*
X124211866Y-116922219D01*
X124224654Y-116904976D01*
X124239070Y-116889070D01*
X124254976Y-116874654D01*
X124272219Y-116861866D01*
X124290632Y-116850830D01*
X124310038Y-116841651D01*
X124330250Y-116834419D01*
X124351074Y-116829203D01*
X124372309Y-116826053D01*
X124393750Y-116825000D01*
X124831250Y-116825000D01*
X124852691Y-116826053D01*
X124852691Y-116826053D01*
G37*
D11*
X124612500Y-117300000D03*
D10*
G36*
X126427691Y-116826053D02*
G01*
X126448926Y-116829203D01*
X126469750Y-116834419D01*
X126489962Y-116841651D01*
X126509368Y-116850830D01*
X126527781Y-116861866D01*
X126545024Y-116874654D01*
X126560930Y-116889070D01*
X126575346Y-116904976D01*
X126588134Y-116922219D01*
X126599170Y-116940632D01*
X126608349Y-116960038D01*
X126615581Y-116980250D01*
X126620797Y-117001074D01*
X126623947Y-117022309D01*
X126625000Y-117043750D01*
X126625000Y-117556250D01*
X126623947Y-117577691D01*
X126620797Y-117598926D01*
X126615581Y-117619750D01*
X126608349Y-117639962D01*
X126599170Y-117659368D01*
X126588134Y-117677781D01*
X126575346Y-117695024D01*
X126560930Y-117710930D01*
X126545024Y-117725346D01*
X126527781Y-117738134D01*
X126509368Y-117749170D01*
X126489962Y-117758349D01*
X126469750Y-117765581D01*
X126448926Y-117770797D01*
X126427691Y-117773947D01*
X126406250Y-117775000D01*
X125968750Y-117775000D01*
X125947309Y-117773947D01*
X125926074Y-117770797D01*
X125905250Y-117765581D01*
X125885038Y-117758349D01*
X125865632Y-117749170D01*
X125847219Y-117738134D01*
X125829976Y-117725346D01*
X125814070Y-117710930D01*
X125799654Y-117695024D01*
X125786866Y-117677781D01*
X125775830Y-117659368D01*
X125766651Y-117639962D01*
X125759419Y-117619750D01*
X125754203Y-117598926D01*
X125751053Y-117577691D01*
X125750000Y-117556250D01*
X125750000Y-117043750D01*
X125751053Y-117022309D01*
X125754203Y-117001074D01*
X125759419Y-116980250D01*
X125766651Y-116960038D01*
X125775830Y-116940632D01*
X125786866Y-116922219D01*
X125799654Y-116904976D01*
X125814070Y-116889070D01*
X125829976Y-116874654D01*
X125847219Y-116861866D01*
X125865632Y-116850830D01*
X125885038Y-116841651D01*
X125905250Y-116834419D01*
X125926074Y-116829203D01*
X125947309Y-116826053D01*
X125968750Y-116825000D01*
X126406250Y-116825000D01*
X126427691Y-116826053D01*
X126427691Y-116826053D01*
G37*
D11*
X126187500Y-117300000D03*
D10*
G36*
X130505142Y-116801174D02*
G01*
X130528803Y-116804684D01*
X130552007Y-116810496D01*
X130574529Y-116818554D01*
X130596153Y-116828782D01*
X130616670Y-116841079D01*
X130635883Y-116855329D01*
X130653607Y-116871393D01*
X130669671Y-116889117D01*
X130683921Y-116908330D01*
X130696218Y-116928847D01*
X130706446Y-116950471D01*
X130714504Y-116972993D01*
X130720316Y-116996197D01*
X130723826Y-117019858D01*
X130725000Y-117043750D01*
X130725000Y-117956250D01*
X130723826Y-117980142D01*
X130720316Y-118003803D01*
X130714504Y-118027007D01*
X130706446Y-118049529D01*
X130696218Y-118071153D01*
X130683921Y-118091670D01*
X130669671Y-118110883D01*
X130653607Y-118128607D01*
X130635883Y-118144671D01*
X130616670Y-118158921D01*
X130596153Y-118171218D01*
X130574529Y-118181446D01*
X130552007Y-118189504D01*
X130528803Y-118195316D01*
X130505142Y-118198826D01*
X130481250Y-118200000D01*
X129993750Y-118200000D01*
X129969858Y-118198826D01*
X129946197Y-118195316D01*
X129922993Y-118189504D01*
X129900471Y-118181446D01*
X129878847Y-118171218D01*
X129858330Y-118158921D01*
X129839117Y-118144671D01*
X129821393Y-118128607D01*
X129805329Y-118110883D01*
X129791079Y-118091670D01*
X129778782Y-118071153D01*
X129768554Y-118049529D01*
X129760496Y-118027007D01*
X129754684Y-118003803D01*
X129751174Y-117980142D01*
X129750000Y-117956250D01*
X129750000Y-117043750D01*
X129751174Y-117019858D01*
X129754684Y-116996197D01*
X129760496Y-116972993D01*
X129768554Y-116950471D01*
X129778782Y-116928847D01*
X129791079Y-116908330D01*
X129805329Y-116889117D01*
X129821393Y-116871393D01*
X129839117Y-116855329D01*
X129858330Y-116841079D01*
X129878847Y-116828782D01*
X129900471Y-116818554D01*
X129922993Y-116810496D01*
X129946197Y-116804684D01*
X129969858Y-116801174D01*
X129993750Y-116800000D01*
X130481250Y-116800000D01*
X130505142Y-116801174D01*
X130505142Y-116801174D01*
G37*
D16*
X130237500Y-117500000D03*
D10*
G36*
X128630142Y-116801174D02*
G01*
X128653803Y-116804684D01*
X128677007Y-116810496D01*
X128699529Y-116818554D01*
X128721153Y-116828782D01*
X128741670Y-116841079D01*
X128760883Y-116855329D01*
X128778607Y-116871393D01*
X128794671Y-116889117D01*
X128808921Y-116908330D01*
X128821218Y-116928847D01*
X128831446Y-116950471D01*
X128839504Y-116972993D01*
X128845316Y-116996197D01*
X128848826Y-117019858D01*
X128850000Y-117043750D01*
X128850000Y-117956250D01*
X128848826Y-117980142D01*
X128845316Y-118003803D01*
X128839504Y-118027007D01*
X128831446Y-118049529D01*
X128821218Y-118071153D01*
X128808921Y-118091670D01*
X128794671Y-118110883D01*
X128778607Y-118128607D01*
X128760883Y-118144671D01*
X128741670Y-118158921D01*
X128721153Y-118171218D01*
X128699529Y-118181446D01*
X128677007Y-118189504D01*
X128653803Y-118195316D01*
X128630142Y-118198826D01*
X128606250Y-118200000D01*
X128118750Y-118200000D01*
X128094858Y-118198826D01*
X128071197Y-118195316D01*
X128047993Y-118189504D01*
X128025471Y-118181446D01*
X128003847Y-118171218D01*
X127983330Y-118158921D01*
X127964117Y-118144671D01*
X127946393Y-118128607D01*
X127930329Y-118110883D01*
X127916079Y-118091670D01*
X127903782Y-118071153D01*
X127893554Y-118049529D01*
X127885496Y-118027007D01*
X127879684Y-118003803D01*
X127876174Y-117980142D01*
X127875000Y-117956250D01*
X127875000Y-117043750D01*
X127876174Y-117019858D01*
X127879684Y-116996197D01*
X127885496Y-116972993D01*
X127893554Y-116950471D01*
X127903782Y-116928847D01*
X127916079Y-116908330D01*
X127930329Y-116889117D01*
X127946393Y-116871393D01*
X127964117Y-116855329D01*
X127983330Y-116841079D01*
X128003847Y-116828782D01*
X128025471Y-116818554D01*
X128047993Y-116810496D01*
X128071197Y-116804684D01*
X128094858Y-116801174D01*
X128118750Y-116800000D01*
X128606250Y-116800000D01*
X128630142Y-116801174D01*
X128630142Y-116801174D01*
G37*
D16*
X128362500Y-117500000D03*
D10*
G36*
X132505142Y-119301174D02*
G01*
X132528803Y-119304684D01*
X132552007Y-119310496D01*
X132574529Y-119318554D01*
X132596153Y-119328782D01*
X132616670Y-119341079D01*
X132635883Y-119355329D01*
X132653607Y-119371393D01*
X132669671Y-119389117D01*
X132683921Y-119408330D01*
X132696218Y-119428847D01*
X132706446Y-119450471D01*
X132714504Y-119472993D01*
X132720316Y-119496197D01*
X132723826Y-119519858D01*
X132725000Y-119543750D01*
X132725000Y-120456250D01*
X132723826Y-120480142D01*
X132720316Y-120503803D01*
X132714504Y-120527007D01*
X132706446Y-120549529D01*
X132696218Y-120571153D01*
X132683921Y-120591670D01*
X132669671Y-120610883D01*
X132653607Y-120628607D01*
X132635883Y-120644671D01*
X132616670Y-120658921D01*
X132596153Y-120671218D01*
X132574529Y-120681446D01*
X132552007Y-120689504D01*
X132528803Y-120695316D01*
X132505142Y-120698826D01*
X132481250Y-120700000D01*
X131993750Y-120700000D01*
X131969858Y-120698826D01*
X131946197Y-120695316D01*
X131922993Y-120689504D01*
X131900471Y-120681446D01*
X131878847Y-120671218D01*
X131858330Y-120658921D01*
X131839117Y-120644671D01*
X131821393Y-120628607D01*
X131805329Y-120610883D01*
X131791079Y-120591670D01*
X131778782Y-120571153D01*
X131768554Y-120549529D01*
X131760496Y-120527007D01*
X131754684Y-120503803D01*
X131751174Y-120480142D01*
X131750000Y-120456250D01*
X131750000Y-119543750D01*
X131751174Y-119519858D01*
X131754684Y-119496197D01*
X131760496Y-119472993D01*
X131768554Y-119450471D01*
X131778782Y-119428847D01*
X131791079Y-119408330D01*
X131805329Y-119389117D01*
X131821393Y-119371393D01*
X131839117Y-119355329D01*
X131858330Y-119341079D01*
X131878847Y-119328782D01*
X131900471Y-119318554D01*
X131922993Y-119310496D01*
X131946197Y-119304684D01*
X131969858Y-119301174D01*
X131993750Y-119300000D01*
X132481250Y-119300000D01*
X132505142Y-119301174D01*
X132505142Y-119301174D01*
G37*
D16*
X132237500Y-120000000D03*
D10*
G36*
X130630142Y-119301174D02*
G01*
X130653803Y-119304684D01*
X130677007Y-119310496D01*
X130699529Y-119318554D01*
X130721153Y-119328782D01*
X130741670Y-119341079D01*
X130760883Y-119355329D01*
X130778607Y-119371393D01*
X130794671Y-119389117D01*
X130808921Y-119408330D01*
X130821218Y-119428847D01*
X130831446Y-119450471D01*
X130839504Y-119472993D01*
X130845316Y-119496197D01*
X130848826Y-119519858D01*
X130850000Y-119543750D01*
X130850000Y-120456250D01*
X130848826Y-120480142D01*
X130845316Y-120503803D01*
X130839504Y-120527007D01*
X130831446Y-120549529D01*
X130821218Y-120571153D01*
X130808921Y-120591670D01*
X130794671Y-120610883D01*
X130778607Y-120628607D01*
X130760883Y-120644671D01*
X130741670Y-120658921D01*
X130721153Y-120671218D01*
X130699529Y-120681446D01*
X130677007Y-120689504D01*
X130653803Y-120695316D01*
X130630142Y-120698826D01*
X130606250Y-120700000D01*
X130118750Y-120700000D01*
X130094858Y-120698826D01*
X130071197Y-120695316D01*
X130047993Y-120689504D01*
X130025471Y-120681446D01*
X130003847Y-120671218D01*
X129983330Y-120658921D01*
X129964117Y-120644671D01*
X129946393Y-120628607D01*
X129930329Y-120610883D01*
X129916079Y-120591670D01*
X129903782Y-120571153D01*
X129893554Y-120549529D01*
X129885496Y-120527007D01*
X129879684Y-120503803D01*
X129876174Y-120480142D01*
X129875000Y-120456250D01*
X129875000Y-119543750D01*
X129876174Y-119519858D01*
X129879684Y-119496197D01*
X129885496Y-119472993D01*
X129893554Y-119450471D01*
X129903782Y-119428847D01*
X129916079Y-119408330D01*
X129930329Y-119389117D01*
X129946393Y-119371393D01*
X129964117Y-119355329D01*
X129983330Y-119341079D01*
X130003847Y-119328782D01*
X130025471Y-119318554D01*
X130047993Y-119310496D01*
X130071197Y-119304684D01*
X130094858Y-119301174D01*
X130118750Y-119300000D01*
X130606250Y-119300000D01*
X130630142Y-119301174D01*
X130630142Y-119301174D01*
G37*
D16*
X130362500Y-120000000D03*
D10*
G36*
X130730142Y-123701174D02*
G01*
X130753803Y-123704684D01*
X130777007Y-123710496D01*
X130799529Y-123718554D01*
X130821153Y-123728782D01*
X130841670Y-123741079D01*
X130860883Y-123755329D01*
X130878607Y-123771393D01*
X130894671Y-123789117D01*
X130908921Y-123808330D01*
X130921218Y-123828847D01*
X130931446Y-123850471D01*
X130939504Y-123872993D01*
X130945316Y-123896197D01*
X130948826Y-123919858D01*
X130950000Y-123943750D01*
X130950000Y-124431250D01*
X130948826Y-124455142D01*
X130945316Y-124478803D01*
X130939504Y-124502007D01*
X130931446Y-124524529D01*
X130921218Y-124546153D01*
X130908921Y-124566670D01*
X130894671Y-124585883D01*
X130878607Y-124603607D01*
X130860883Y-124619671D01*
X130841670Y-124633921D01*
X130821153Y-124646218D01*
X130799529Y-124656446D01*
X130777007Y-124664504D01*
X130753803Y-124670316D01*
X130730142Y-124673826D01*
X130706250Y-124675000D01*
X129793750Y-124675000D01*
X129769858Y-124673826D01*
X129746197Y-124670316D01*
X129722993Y-124664504D01*
X129700471Y-124656446D01*
X129678847Y-124646218D01*
X129658330Y-124633921D01*
X129639117Y-124619671D01*
X129621393Y-124603607D01*
X129605329Y-124585883D01*
X129591079Y-124566670D01*
X129578782Y-124546153D01*
X129568554Y-124524529D01*
X129560496Y-124502007D01*
X129554684Y-124478803D01*
X129551174Y-124455142D01*
X129550000Y-124431250D01*
X129550000Y-123943750D01*
X129551174Y-123919858D01*
X129554684Y-123896197D01*
X129560496Y-123872993D01*
X129568554Y-123850471D01*
X129578782Y-123828847D01*
X129591079Y-123808330D01*
X129605329Y-123789117D01*
X129621393Y-123771393D01*
X129639117Y-123755329D01*
X129658330Y-123741079D01*
X129678847Y-123728782D01*
X129700471Y-123718554D01*
X129722993Y-123710496D01*
X129746197Y-123704684D01*
X129769858Y-123701174D01*
X129793750Y-123700000D01*
X130706250Y-123700000D01*
X130730142Y-123701174D01*
X130730142Y-123701174D01*
G37*
D16*
X130250000Y-124187500D03*
D10*
G36*
X130730142Y-121826174D02*
G01*
X130753803Y-121829684D01*
X130777007Y-121835496D01*
X130799529Y-121843554D01*
X130821153Y-121853782D01*
X130841670Y-121866079D01*
X130860883Y-121880329D01*
X130878607Y-121896393D01*
X130894671Y-121914117D01*
X130908921Y-121933330D01*
X130921218Y-121953847D01*
X130931446Y-121975471D01*
X130939504Y-121997993D01*
X130945316Y-122021197D01*
X130948826Y-122044858D01*
X130950000Y-122068750D01*
X130950000Y-122556250D01*
X130948826Y-122580142D01*
X130945316Y-122603803D01*
X130939504Y-122627007D01*
X130931446Y-122649529D01*
X130921218Y-122671153D01*
X130908921Y-122691670D01*
X130894671Y-122710883D01*
X130878607Y-122728607D01*
X130860883Y-122744671D01*
X130841670Y-122758921D01*
X130821153Y-122771218D01*
X130799529Y-122781446D01*
X130777007Y-122789504D01*
X130753803Y-122795316D01*
X130730142Y-122798826D01*
X130706250Y-122800000D01*
X129793750Y-122800000D01*
X129769858Y-122798826D01*
X129746197Y-122795316D01*
X129722993Y-122789504D01*
X129700471Y-122781446D01*
X129678847Y-122771218D01*
X129658330Y-122758921D01*
X129639117Y-122744671D01*
X129621393Y-122728607D01*
X129605329Y-122710883D01*
X129591079Y-122691670D01*
X129578782Y-122671153D01*
X129568554Y-122649529D01*
X129560496Y-122627007D01*
X129554684Y-122603803D01*
X129551174Y-122580142D01*
X129550000Y-122556250D01*
X129550000Y-122068750D01*
X129551174Y-122044858D01*
X129554684Y-122021197D01*
X129560496Y-121997993D01*
X129568554Y-121975471D01*
X129578782Y-121953847D01*
X129591079Y-121933330D01*
X129605329Y-121914117D01*
X129621393Y-121896393D01*
X129639117Y-121880329D01*
X129658330Y-121866079D01*
X129678847Y-121853782D01*
X129700471Y-121843554D01*
X129722993Y-121835496D01*
X129746197Y-121829684D01*
X129769858Y-121826174D01*
X129793750Y-121825000D01*
X130706250Y-121825000D01*
X130730142Y-121826174D01*
X130730142Y-121826174D01*
G37*
D16*
X130250000Y-122312500D03*
D10*
G36*
X132730142Y-122326174D02*
G01*
X132753803Y-122329684D01*
X132777007Y-122335496D01*
X132799529Y-122343554D01*
X132821153Y-122353782D01*
X132841670Y-122366079D01*
X132860883Y-122380329D01*
X132878607Y-122396393D01*
X132894671Y-122414117D01*
X132908921Y-122433330D01*
X132921218Y-122453847D01*
X132931446Y-122475471D01*
X132939504Y-122497993D01*
X132945316Y-122521197D01*
X132948826Y-122544858D01*
X132950000Y-122568750D01*
X132950000Y-123056250D01*
X132948826Y-123080142D01*
X132945316Y-123103803D01*
X132939504Y-123127007D01*
X132931446Y-123149529D01*
X132921218Y-123171153D01*
X132908921Y-123191670D01*
X132894671Y-123210883D01*
X132878607Y-123228607D01*
X132860883Y-123244671D01*
X132841670Y-123258921D01*
X132821153Y-123271218D01*
X132799529Y-123281446D01*
X132777007Y-123289504D01*
X132753803Y-123295316D01*
X132730142Y-123298826D01*
X132706250Y-123300000D01*
X131793750Y-123300000D01*
X131769858Y-123298826D01*
X131746197Y-123295316D01*
X131722993Y-123289504D01*
X131700471Y-123281446D01*
X131678847Y-123271218D01*
X131658330Y-123258921D01*
X131639117Y-123244671D01*
X131621393Y-123228607D01*
X131605329Y-123210883D01*
X131591079Y-123191670D01*
X131578782Y-123171153D01*
X131568554Y-123149529D01*
X131560496Y-123127007D01*
X131554684Y-123103803D01*
X131551174Y-123080142D01*
X131550000Y-123056250D01*
X131550000Y-122568750D01*
X131551174Y-122544858D01*
X131554684Y-122521197D01*
X131560496Y-122497993D01*
X131568554Y-122475471D01*
X131578782Y-122453847D01*
X131591079Y-122433330D01*
X131605329Y-122414117D01*
X131621393Y-122396393D01*
X131639117Y-122380329D01*
X131658330Y-122366079D01*
X131678847Y-122353782D01*
X131700471Y-122343554D01*
X131722993Y-122335496D01*
X131746197Y-122329684D01*
X131769858Y-122326174D01*
X131793750Y-122325000D01*
X132706250Y-122325000D01*
X132730142Y-122326174D01*
X132730142Y-122326174D01*
G37*
D16*
X132250000Y-122812500D03*
D10*
G36*
X132730142Y-124201174D02*
G01*
X132753803Y-124204684D01*
X132777007Y-124210496D01*
X132799529Y-124218554D01*
X132821153Y-124228782D01*
X132841670Y-124241079D01*
X132860883Y-124255329D01*
X132878607Y-124271393D01*
X132894671Y-124289117D01*
X132908921Y-124308330D01*
X132921218Y-124328847D01*
X132931446Y-124350471D01*
X132939504Y-124372993D01*
X132945316Y-124396197D01*
X132948826Y-124419858D01*
X132950000Y-124443750D01*
X132950000Y-124931250D01*
X132948826Y-124955142D01*
X132945316Y-124978803D01*
X132939504Y-125002007D01*
X132931446Y-125024529D01*
X132921218Y-125046153D01*
X132908921Y-125066670D01*
X132894671Y-125085883D01*
X132878607Y-125103607D01*
X132860883Y-125119671D01*
X132841670Y-125133921D01*
X132821153Y-125146218D01*
X132799529Y-125156446D01*
X132777007Y-125164504D01*
X132753803Y-125170316D01*
X132730142Y-125173826D01*
X132706250Y-125175000D01*
X131793750Y-125175000D01*
X131769858Y-125173826D01*
X131746197Y-125170316D01*
X131722993Y-125164504D01*
X131700471Y-125156446D01*
X131678847Y-125146218D01*
X131658330Y-125133921D01*
X131639117Y-125119671D01*
X131621393Y-125103607D01*
X131605329Y-125085883D01*
X131591079Y-125066670D01*
X131578782Y-125046153D01*
X131568554Y-125024529D01*
X131560496Y-125002007D01*
X131554684Y-124978803D01*
X131551174Y-124955142D01*
X131550000Y-124931250D01*
X131550000Y-124443750D01*
X131551174Y-124419858D01*
X131554684Y-124396197D01*
X131560496Y-124372993D01*
X131568554Y-124350471D01*
X131578782Y-124328847D01*
X131591079Y-124308330D01*
X131605329Y-124289117D01*
X131621393Y-124271393D01*
X131639117Y-124255329D01*
X131658330Y-124241079D01*
X131678847Y-124228782D01*
X131700471Y-124218554D01*
X131722993Y-124210496D01*
X131746197Y-124204684D01*
X131769858Y-124201174D01*
X131793750Y-124200000D01*
X132706250Y-124200000D01*
X132730142Y-124201174D01*
X132730142Y-124201174D01*
G37*
D16*
X132250000Y-124687500D03*
M02*
