M48
; DRILL file {KiCad (5.1.0)-1} date 16.11.2019 16:38:08
; FORMAT={-:-/ absolute / inch / decimal}
; #@! TF.CreationDate,2019-11-16T16:38:08+01:00
; #@! TF.GenerationSoftware,Kicad,Pcbnew,(5.1.0)-1
FMAT,2
INCH
T1C0.0098
T2C0.0138
T3C0.0157
T4C0.0197
T5C0.0394
T6C0.0520
T7C0.0866
%
G90
G05
T1
X4.9311Y-4.4618
T3
X4.3331Y-5.4087
X4.3366Y-4.5606
X4.4134Y-5.3465
X4.5248Y-5.415
X4.5402Y-4.5055
X4.5906Y-4.4567
X4.5941Y-5.3476
X4.6181Y-4.311
X4.6181Y-4.3811
X4.6244Y-5.5173
X4.6299Y-5.626
X4.7079Y-4.7319
X4.7756Y-5.6339
X4.7858Y-5.55
X4.8059Y-4.9224
X4.8425Y-4.5787
X4.8508Y-4.9713
X4.8583Y-5.1402
X4.9213Y-4.7441
X4.9311Y-4.8524
X4.9311Y-4.9114
X4.9409Y-5.0325
X4.9606Y-4.5571
X4.9673Y-4.7311
X4.9815Y-5.6303
X4.9827Y-5.528
X4.9902Y-4.8524
X4.9902Y-4.9114
X5.0094Y-5.1409
X5.0114Y-4.7374
X5.0492Y-5.0394
X5.0768Y-4.8278
X5.0776Y-4.8766
X5.0787Y-4.7756
X5.0854Y-4.9753
X5.1102Y-4.5551
X5.1181Y-4.9606
X5.1331Y-5.1398
X5.1874Y-5.5386
X5.189Y-4.4173
X5.189Y-5.6295
X5.2283Y-4.5984
X5.2677Y-4.7087
X5.2756Y-4.5039
X5.378Y-4.8228
X5.3858Y-4.5591
X5.4213Y-4.9567
X5.4252Y-5.1496
X5.4291Y-4.7323
X5.4291Y-5.2835
X4.3205Y-4.3713
X4.3395Y-4.3253
X4.3395Y-4.4172
X4.3854Y-4.3063
X4.3854Y-4.4362
X4.4314Y-4.3253
X4.4314Y-4.4172
X4.4504Y-4.3713
X4.3205Y-5.5591
X4.3395Y-5.5131
X4.3395Y-5.605
X4.3854Y-5.4941
X4.3854Y-5.624
X4.4314Y-5.5131
X4.4314Y-5.605
X4.4504Y-5.5591
X5.3012Y-4.3661
X5.3202Y-4.3202
X5.3202Y-4.4121
X5.3661Y-4.3012
X5.3661Y-4.4311
X5.4121Y-4.3202
X5.4121Y-4.4121
X5.4311Y-4.3661
X5.3012Y-5.5591
X5.3202Y-5.5131
X5.3202Y-5.605
X5.3661Y-5.4941
X5.3661Y-5.624
X5.4121Y-5.5131
X5.4121Y-5.605
X5.4311Y-5.5591
T5
X4.3437Y-4.7413
X4.3437Y-4.8413
X4.3437Y-4.9413
X4.3437Y-5.0413
X4.3437Y-5.1413
X4.3437Y-5.2413
X4.4437Y-4.7413
X4.4437Y-4.8413
X4.4437Y-4.9413
X4.4437Y-5.0413
X4.4437Y-5.1413
X4.4437Y-5.2413
T6
X4.8976Y-5.3819
X5.0945Y-5.3819
T7
X5.3661Y-4.3661
X5.3661Y-5.5591
X4.3854Y-4.3713
X4.3854Y-5.5591
T2
G00X4.7513Y-4.4604
M15
G01X4.7809Y-4.4604
M16
G05
G00X5.0813Y-4.4604
M15
G01X5.1109Y-4.4604
M16
G05
T4
G00X4.6961Y-4.2884
M15
G01X4.6961Y-4.3337
M16
G05
G00X4.752Y-4.4585
M15
G01X4.752Y-4.4959
M16
G05
G00X5.1102Y-4.4585
M15
G01X5.1102Y-4.4959
M16
G05
G00X5.1661Y-4.2884
M15
G01X5.1661Y-4.3337
M16
G05
T0
M30
