G04 #@! TF.GenerationSoftware,KiCad,Pcbnew,(5.1.0)-1*
G04 #@! TF.CreationDate,2019-11-16T16:41:27+01:00*
G04 #@! TF.ProjectId,USBC_PowerDelivery,55534243-5f50-46f7-9765-7244656c6976,rev?*
G04 #@! TF.SameCoordinates,Original*
G04 #@! TF.FileFunction,Legend,Bot*
G04 #@! TF.FilePolarity,Positive*
%FSLAX46Y46*%
G04 Gerber Fmt 4.6, Leading zero omitted, Abs format (unit mm)*
G04 Created by KiCad (PCBNEW (5.1.0)-1) date 2019-11-16 16:41:27*
%MOMM*%
%LPD*%
G04 APERTURE LIST*
%ADD10C,0.150000*%
%ADD11C,0.120000*%
G04 APERTURE END LIST*
D10*
X112371904Y-134750000D02*
X112467142Y-134702380D01*
X112610000Y-134702380D01*
X112752857Y-134750000D01*
X112848095Y-134845238D01*
X112895714Y-134940476D01*
X112943333Y-135130952D01*
X112943333Y-135273809D01*
X112895714Y-135464285D01*
X112848095Y-135559523D01*
X112752857Y-135654761D01*
X112610000Y-135702380D01*
X112514761Y-135702380D01*
X112371904Y-135654761D01*
X112324285Y-135607142D01*
X112324285Y-135273809D01*
X112514761Y-135273809D01*
X111895714Y-135702380D02*
X111895714Y-134702380D01*
X111324285Y-135702380D01*
X111324285Y-134702380D01*
X110848095Y-135702380D02*
X110848095Y-134702380D01*
X110610000Y-134702380D01*
X110467142Y-134750000D01*
X110371904Y-134845238D01*
X110324285Y-134940476D01*
X110276666Y-135130952D01*
X110276666Y-135273809D01*
X110324285Y-135464285D01*
X110371904Y-135559523D01*
X110467142Y-135654761D01*
X110610000Y-135702380D01*
X110848095Y-135702380D01*
D11*
X114395000Y-130750000D02*
X115145000Y-130750000D01*
D10*
X115372380Y-130466666D02*
X116372380Y-130800000D01*
X115372380Y-131133333D01*
X116277142Y-132038095D02*
X116324761Y-131990476D01*
X116372380Y-131847619D01*
X116372380Y-131752380D01*
X116324761Y-131609523D01*
X116229523Y-131514285D01*
X116134285Y-131466666D01*
X115943809Y-131419047D01*
X115800952Y-131419047D01*
X115610476Y-131466666D01*
X115515238Y-131514285D01*
X115420000Y-131609523D01*
X115372380Y-131752380D01*
X115372380Y-131847619D01*
X115420000Y-131990476D01*
X115467619Y-132038095D01*
X116277142Y-133038095D02*
X116324761Y-132990476D01*
X116372380Y-132847619D01*
X116372380Y-132752380D01*
X116324761Y-132609523D01*
X116229523Y-132514285D01*
X116134285Y-132466666D01*
X115943809Y-132419047D01*
X115800952Y-132419047D01*
X115610476Y-132466666D01*
X115515238Y-132514285D01*
X115420000Y-132609523D01*
X115372380Y-132752380D01*
X115372380Y-132847619D01*
X115420000Y-132990476D01*
X115467619Y-133038095D01*
D11*
X114395000Y-120375000D02*
X115120000Y-120375000D01*
X114370000Y-123050000D02*
X115220000Y-123050000D01*
X114320000Y-125850000D02*
X115220000Y-125850000D01*
D10*
X116374761Y-118703571D02*
X116422380Y-118846428D01*
X116422380Y-119084523D01*
X116374761Y-119179761D01*
X116327142Y-119227380D01*
X116231904Y-119275000D01*
X116136666Y-119275000D01*
X116041428Y-119227380D01*
X115993809Y-119179761D01*
X115946190Y-119084523D01*
X115898571Y-118894047D01*
X115850952Y-118798809D01*
X115803333Y-118751190D01*
X115708095Y-118703571D01*
X115612857Y-118703571D01*
X115517619Y-118751190D01*
X115470000Y-118798809D01*
X115422380Y-118894047D01*
X115422380Y-119132142D01*
X115470000Y-119275000D01*
X116327142Y-120275000D02*
X116374761Y-120227380D01*
X116422380Y-120084523D01*
X116422380Y-119989285D01*
X116374761Y-119846428D01*
X116279523Y-119751190D01*
X116184285Y-119703571D01*
X115993809Y-119655952D01*
X115850952Y-119655952D01*
X115660476Y-119703571D01*
X115565238Y-119751190D01*
X115470000Y-119846428D01*
X115422380Y-119989285D01*
X115422380Y-120084523D01*
X115470000Y-120227380D01*
X115517619Y-120275000D01*
X116422380Y-121179761D02*
X116422380Y-120703571D01*
X115422380Y-120703571D01*
X116374761Y-122227380D02*
X116422380Y-122370238D01*
X116422380Y-122608333D01*
X116374761Y-122703571D01*
X116327142Y-122751190D01*
X116231904Y-122798809D01*
X116136666Y-122798809D01*
X116041428Y-122751190D01*
X115993809Y-122703571D01*
X115946190Y-122608333D01*
X115898571Y-122417857D01*
X115850952Y-122322619D01*
X115803333Y-122275000D01*
X115708095Y-122227380D01*
X115612857Y-122227380D01*
X115517619Y-122275000D01*
X115470000Y-122322619D01*
X115422380Y-122417857D01*
X115422380Y-122655952D01*
X115470000Y-122798809D01*
X116422380Y-123227380D02*
X115422380Y-123227380D01*
X115422380Y-123465476D01*
X115470000Y-123608333D01*
X115565238Y-123703571D01*
X115660476Y-123751190D01*
X115850952Y-123798809D01*
X115993809Y-123798809D01*
X116184285Y-123751190D01*
X116279523Y-123703571D01*
X116374761Y-123608333D01*
X116422380Y-123465476D01*
X116422380Y-123227380D01*
X116136666Y-124179761D02*
X116136666Y-124655952D01*
X116422380Y-124084523D02*
X115422380Y-124417857D01*
X116422380Y-124751190D01*
X116136666Y-125798809D02*
X116136666Y-126275000D01*
X116422380Y-125703571D02*
X115422380Y-126036904D01*
X116422380Y-126370238D01*
X116422380Y-127179761D02*
X116422380Y-126703571D01*
X115422380Y-126703571D01*
X116422380Y-128084523D02*
X115946190Y-127751190D01*
X116422380Y-127513095D02*
X115422380Y-127513095D01*
X115422380Y-127894047D01*
X115470000Y-127989285D01*
X115517619Y-128036904D01*
X115612857Y-128084523D01*
X115755714Y-128084523D01*
X115850952Y-128036904D01*
X115898571Y-127989285D01*
X115946190Y-127894047D01*
X115946190Y-127513095D01*
X115422380Y-128370238D02*
X115422380Y-128941666D01*
X116422380Y-128655952D02*
X115422380Y-128655952D01*
D11*
X125150000Y-116600000D02*
X118250000Y-116600000D01*
X125150000Y-119900000D02*
X118250000Y-119900000D01*
X125150000Y-116600000D02*
X125150000Y-119900000D01*
X125600000Y-119900000D02*
X132500000Y-119900000D01*
X125600000Y-116600000D02*
X132500000Y-116600000D01*
X125600000Y-119900000D02*
X125600000Y-116600000D01*
D10*
X119838095Y-121152380D02*
X119838095Y-120152380D01*
X119600000Y-120152380D01*
X119457142Y-120200000D01*
X119361904Y-120295238D01*
X119314285Y-120390476D01*
X119266666Y-120580952D01*
X119266666Y-120723809D01*
X119314285Y-120914285D01*
X119361904Y-121009523D01*
X119457142Y-121104761D01*
X119600000Y-121152380D01*
X119838095Y-121152380D01*
X118361904Y-120152380D02*
X118838095Y-120152380D01*
X118885714Y-120628571D01*
X118838095Y-120580952D01*
X118742857Y-120533333D01*
X118504761Y-120533333D01*
X118409523Y-120580952D01*
X118361904Y-120628571D01*
X118314285Y-120723809D01*
X118314285Y-120961904D01*
X118361904Y-121057142D01*
X118409523Y-121104761D01*
X118504761Y-121152380D01*
X118742857Y-121152380D01*
X118838095Y-121104761D01*
X118885714Y-121057142D01*
X132538095Y-121152380D02*
X132538095Y-120152380D01*
X132300000Y-120152380D01*
X132157142Y-120200000D01*
X132061904Y-120295238D01*
X132014285Y-120390476D01*
X131966666Y-120580952D01*
X131966666Y-120723809D01*
X132014285Y-120914285D01*
X132061904Y-121009523D01*
X132157142Y-121104761D01*
X132300000Y-121152380D01*
X132538095Y-121152380D01*
X131633333Y-120152380D02*
X131014285Y-120152380D01*
X131347619Y-120533333D01*
X131204761Y-120533333D01*
X131109523Y-120580952D01*
X131061904Y-120628571D01*
X131014285Y-120723809D01*
X131014285Y-120961904D01*
X131061904Y-121057142D01*
X131109523Y-121104761D01*
X131204761Y-121152380D01*
X131490476Y-121152380D01*
X131585714Y-121104761D01*
X131633333Y-121057142D01*
M02*
